<svg width="59" height="48" viewBox="0 0 59 48" fill="none" xmlns="http://www.w3.org/2000/svg">
<path d="M0.113647 2.50602C0.113647 1.62188 0.830379 0.905151 1.71451 0.905151L15.3219 0.905151C16.206 0.905151 16.9227 1.62188 16.9227 2.50602V12.7013C16.9227 13.3188 16.5676 13.8812 16.0101 14.1466L9.20645 17.3865C8.77103 17.5938 8.26534 17.5938 7.82992 17.3865L1.02625 14.1466C0.468761 13.8812 0.113647 13.3188 0.113647 12.7013L0.113647 2.50602Z" fill="white"/>
<path d="M25.7275 2.50602C25.7275 1.62188 26.4442 0.905151 27.3284 0.905151L31.3305 0.905151C32.2146 0.905151 32.9314 1.62188 32.9314 2.50602V5.70775C32.9314 6.59188 32.2146 7.30861 31.3305 7.30861L27.3284 7.30861C26.4442 7.30861 25.7275 6.59188 25.7275 5.70775V2.50602Z" fill="white"/>
<path d="M41.7361 2.50602C41.7361 1.62188 42.4529 0.905151 43.337 0.905151L56.9444 0.905151C57.8285 0.905151 58.5452 1.62188 58.5452 2.50602V12.1112C58.5452 12.9953 57.8285 13.7121 56.9444 13.7121L43.337 13.7121C42.4529 13.7121 41.7361 12.9953 41.7361 12.1112V2.50602Z" fill="white"/>
<path d="M0.113647 19.3151C0.113647 18.431 0.830379 17.7142 1.71451 17.7142L15.3219 17.7142C16.206 17.7142 16.9227 18.431 16.9227 19.3151V28.9203C16.9227 29.8044 16.206 30.5212 15.3219 30.5212L1.71451 30.5212C0.830379 30.5212 0.113647 29.8044 0.113647 28.9203L0.113647 19.3151Z" fill="white"/>
<path d="M20.9249 12.9116C20.9249 12.0275 21.6416 11.3108 22.5258 11.3108L36.1331 11.3108C37.0172 11.3108 37.734 12.0275 37.734 12.9116L37.734 35.3237C37.734 36.2079 37.0172 36.9246 36.1331 36.9246L22.5258 36.9246C21.6416 36.9246 20.9249 36.2079 20.9249 35.3237L20.9249 12.9116Z" fill="white"/>
<path d="M41.7361 19.3151C41.7361 18.431 42.4529 17.7142 43.337 17.7142H56.9444C57.8285 17.7142 58.5452 18.431 58.5452 19.3151L58.5452 28.9203C58.5452 29.8044 57.8285 30.5212 56.9444 30.5212H43.337C42.4529 30.5212 41.7361 29.8044 41.7361 28.9203L41.7361 19.3151Z" fill="white"/>
<path d="M0.113647 36.1242C0.113647 35.24 0.830379 34.5233 1.71451 34.5233H15.3219C16.206 34.5233 16.9227 35.24 16.9227 36.1242L16.9227 45.7294C16.9227 46.6135 16.206 47.3302 15.3219 47.3302H1.71451C0.830379 47.3302 0.113647 46.6135 0.113647 45.7294L0.113647 36.1242Z" fill="white"/>
<path d="M25.7275 42.5276C25.7275 41.6435 26.4442 40.9268 27.3284 40.9268H31.3305C32.2146 40.9268 32.9314 41.6435 32.9314 42.5276V45.7294C32.9314 46.6135 32.2146 47.3302 31.3305 47.3302H27.3284C26.4442 47.3302 25.7275 46.6135 25.7275 45.7294V42.5276Z" fill="white"/>
<path d="M41.7361 35.5341C41.7361 34.9166 42.0912 34.3542 42.6487 34.0887L49.4524 30.8489C49.8878 30.6416 50.3935 30.6416 50.8289 30.8489L57.6326 34.0887C58.1901 34.3542 58.5452 34.9166 58.5452 35.5341V45.7294C58.5452 46.6135 57.8285 47.3302 56.9444 47.3302H43.337C42.4529 47.3302 41.7361 46.6135 41.7361 45.7294V35.5341Z" fill="white"/>
</svg>
