<svg width="101" height="32" viewBox="0 0 101 32" fill="none" xmlns="http://www.w3.org/2000/svg">
<g clip-path="url(#clip0_1_100)">
<path d="M43.5932 0L26.7132 12.48C25.8954 9.39131 24.0642 6.66666 21.5132 4.74286C18.9058 2.7729 15.7297 1.70214 12.4618 1.69143H0.42749V30.3314H12.5075C15.8016 30.3912 19.0208 29.345 21.6503 27.36C24.1925 25.4194 25.982 22.6563 26.7132 19.5429L43.5932 32L60.4275 19.5429V30.3314H79.4218V24.5143H66.8503V1.65714H59.9932V12.4571L43.9932 24.9257L40.5646 22.0229L48.3361 16.2057L56.5418 9.97714L51.7875 6.24L35.8561 18.2857L32.4275 15.3829L48.4275 3.74857L43.5932 0ZM6.89606 7.48571H12.0732C13.1398 7.48345 14.195 7.70539 15.1703 8.13714C16.1512 8.57449 17.0395 9.19513 17.7875 9.96572C18.5614 10.7654 19.1778 11.7037 19.6046 12.7314C20.4617 14.9052 20.4617 17.3233 19.6046 19.4971C19.2126 20.5257 18.6311 21.4716 17.8903 22.2857C17.1628 23.1036 16.2762 23.7647 15.2846 24.2286C14.2535 24.7067 13.1298 24.9525 11.9932 24.9486H6.89606V7.48571ZM100.999 24.5143V30.3314H82.0046V1.66857H88.9189V24.5257H100.999V24.5143Z" fill="#3D544D"/>
</g>
<defs>
<clipPath id="clip0_1_100">
<rect width="100.571" height="32" fill="white" transform="translate(0.428589)"/>
</clipPath>
</defs>
</svg>
