<svg width="60" height="35" viewBox="0 0 60 35" fill="none" xmlns="http://www.w3.org/2000/svg">
<path fill-rule="evenodd" clip-rule="evenodd" d="M29.9831 30.3621C33.4454 27.1798 35.6156 22.6144 35.6156 17.541C35.6156 12.4676 33.4454 7.90225 29.9831 4.71999C33.0824 1.87176 37.2187 0.131622 41.7601 0.131622C51.3748 0.131622 59.1695 7.92625 59.1695 17.541C59.1695 27.1558 51.3748 34.9504 41.7601 34.9504C37.2187 34.9504 33.0824 33.2103 29.9831 30.3621ZM29.9831 30.3621C26.8839 33.2103 22.7475 34.9504 18.2062 34.9504C8.59138 34.9504 0.796753 27.1558 0.796753 17.541C0.796753 7.92625 8.59138 0.131622 18.2062 0.131622C22.7475 0.131622 26.8839 1.87176 29.9831 4.71999C26.5208 7.90225 24.3507 12.4676 24.3507 17.541C24.3507 22.6144 26.5208 27.1798 29.9831 30.3621Z" fill="white"/>
</svg>
