<svg width="238" height="32" viewBox="0 0 238 32" fill="none" xmlns="http://www.w3.org/2000/svg">
<g clip-path="url(#clip0_1_96)">
<path d="M18.6285 3.71196C18.6285 1.15196 16.1965 0.511963 14.2765 0.511963V0.895963C15.4285 0.895963 16.3245 1.27996 16.3245 2.17596C16.3245 2.68796 15.9405 3.45596 14.7885 3.45596C13.8925 3.45596 11.9725 2.94396 10.5645 2.43196C8.90054 1.79196 7.36454 1.27996 6.08454 1.27996C3.52454 1.27996 1.73254 3.19996 1.73254 5.37596C1.73254 7.29596 3.14054 7.93596 3.65254 8.19196L3.78054 7.93596C3.52454 7.67996 3.14054 7.42396 3.14054 6.65596C3.14054 6.14396 3.65254 5.24796 4.93254 5.24796C6.08454 5.24796 7.62054 5.75996 9.66854 6.39996C11.4605 6.91196 13.3805 7.29596 14.4045 7.42396V11.392L12.4845 13.056V13.184L14.4045 14.848V20.352C13.3805 20.992 12.2285 21.12 11.2045 21.12C9.28454 21.12 7.62054 20.608 6.21254 19.072L11.4605 16.512V7.67996L5.06054 10.496C5.57254 8.83196 6.98054 7.67996 8.38854 6.91196L8.26054 6.52796C4.42054 7.55196 0.964539 11.136 0.964539 15.488C0.964539 20.608 5.18854 24.448 9.92454 24.448C15.0445 24.448 18.3725 20.352 18.3725 16.128H18.1165C17.3485 17.792 16.1965 19.328 14.7885 20.096V14.848L16.8365 13.184V13.056L14.7885 11.392V7.42396C16.7085 7.42396 18.6285 6.14396 18.6285 3.71196ZM7.49254 17.792L5.95654 18.56C5.06054 17.408 4.54854 15.872 4.54854 13.696C4.54854 12.8 4.54854 11.776 4.80454 11.008L7.49254 9.85596V17.792ZM21.0606 20.736L19.3966 22.016L19.6525 22.272L20.4205 21.632L23.2366 24.192L27.0766 21.632L26.9486 21.376L25.9246 22.016L24.6446 20.736V12.032L25.6686 11.264L27.8446 13.056V20.864C27.8446 25.728 26.8206 26.496 24.6446 27.264V27.648C28.2286 27.776 31.5566 26.624 31.5566 20.352V11.904L32.7086 11.008L32.4526 10.752L31.4286 11.52L28.2286 8.83196L24.6446 11.52V1.02396H24.3886L19.9086 4.09596V4.35196C20.4206 4.60796 21.1885 4.86396 21.1885 6.27196L21.0606 20.736ZM44.4846 19.328L41.2846 21.76L38.0846 19.2V17.664L44.1006 13.568V13.44L41.0286 8.83196L34.3726 12.416V20.864L33.0926 21.888L33.3486 22.144L34.5006 21.248L38.8526 24.448L44.6126 19.84L44.4846 19.328ZM38.0846 17.152V10.88L38.3406 10.752L41.1566 15.232L38.0846 17.152ZM68.9326 2.55996C68.9326 2.17596 68.8046 1.79196 68.6766 1.40796H68.4206C68.0366 2.43196 67.5246 2.94396 66.2446 2.94396C65.0926 2.94396 64.3246 2.30396 63.8126 1.79196L60.1006 6.01596L60.3566 6.27196L61.6366 5.11996C62.4046 5.75996 63.0446 6.27196 64.8366 6.39996V17.024L57.2846 4.09596C56.6446 3.07196 55.7486 1.66396 53.9566 1.66396C51.9086 1.66396 50.1166 3.45596 50.3726 6.27196H50.7566C50.8846 5.50396 51.2686 4.60796 52.1646 4.60796C52.8046 4.60796 53.4446 5.24796 53.8286 5.88796V10.112C51.5246 10.112 49.9886 11.136 49.9886 13.056C49.9886 14.08 50.5006 15.616 52.0366 16V15.744C51.7806 15.488 51.6526 15.232 51.6526 14.848C51.6526 14.208 52.1646 13.696 53.0606 13.696H53.7006V19.072C51.0126 19.072 48.8366 20.608 48.8366 23.168C48.8366 25.6 50.8846 26.752 53.1886 26.624V26.368C51.7806 26.24 51.1406 25.6 51.1406 24.704C51.1406 23.552 51.9086 23.04 52.9326 23.04C53.9566 23.04 54.8526 23.68 55.4926 24.448L59.2046 20.352L58.9486 20.096L58.0526 21.12C56.6446 19.84 55.8766 19.456 54.2126 19.2V6.39996L64.4526 24.32H65.2206V6.39996C67.1406 6.27196 68.9326 4.73596 68.9326 2.55996ZM78.2766 19.328L75.0766 21.76L71.8766 19.2V17.664L77.8926 13.568V13.44L74.8206 8.83196L68.1646 12.416V20.864L66.8846 21.888L67.1406 22.144L68.2926 21.248L72.6446 24.448L78.4046 19.84L78.2766 19.328ZM71.8766 17.152V10.88L72.1326 10.752L74.9486 15.232L71.8766 17.152ZM99.1406 10.24L98.2446 10.88L95.8126 8.83196L92.9966 11.392L94.1486 12.544V22.144L91.0766 20.224V12.288L92.1006 11.648L89.1566 8.83196L86.3406 11.392L87.4926 12.544V21.76L87.1086 22.016L84.4206 20.096V12.416C84.4206 10.624 83.5246 10.112 82.5006 9.47196C81.6046 8.83196 81.0926 8.44796 81.0926 7.55196C81.0926 6.78396 81.8606 6.39996 82.2446 6.14396V5.88796C81.2206 5.88796 78.5326 6.91196 78.5326 9.34396C78.5326 10.624 79.1726 11.136 79.8126 11.776C80.4526 12.416 81.0926 12.928 81.0926 14.08V21.504L79.6846 22.528L79.9406 22.784L81.2206 21.76L84.1646 24.32L87.3646 22.144L90.9486 24.32L97.7326 20.352V11.776L99.3966 10.496L99.1406 10.24ZM122.949 3.19996L121.669 4.35196L118.853 1.79196L114.629 4.86396V2.04796H114.245L114.373 22.784C113.989 22.784 112.837 22.528 111.941 22.272L111.685 4.99196C111.685 3.71196 110.789 1.91996 108.485 1.91996C106.181 1.91996 104.645 3.71196 104.645 5.50396H105.029C105.157 4.73596 105.541 4.09596 106.309 4.09596C107.077 4.09596 107.717 4.60796 107.717 6.27196V11.264C105.413 11.392 104.005 12.672 104.005 14.336C104.005 15.36 104.517 16.896 106.053 16.896V16.64C105.541 16.384 105.413 16 105.413 15.744C105.413 14.976 106.053 14.72 107.077 14.72H107.589V22.656C105.669 23.296 104.901 24.704 104.901 26.24C104.901 28.416 106.565 29.952 109.125 29.952C110.917 29.952 112.453 29.696 113.989 29.312C115.269 29.056 116.933 28.672 117.701 28.672C118.725 28.672 119.109 29.184 119.109 29.824C119.109 30.72 118.725 31.104 118.213 31.232V31.488C120.261 31.104 121.541 29.824 121.541 27.904C121.541 25.984 119.621 24.832 117.573 24.832C116.549 24.832 114.373 25.216 112.837 25.472C111.045 25.856 109.253 26.112 108.741 26.112C107.845 26.112 106.821 25.728 106.821 24.448C106.821 23.424 107.717 22.528 109.893 22.528C111.045 22.528 112.453 22.656 113.861 23.04C115.397 23.424 116.805 23.808 118.085 23.808C120.005 23.808 121.669 23.168 121.669 20.48V4.73596L123.205 3.45596L122.949 3.19996ZM117.701 11.008C117.317 11.392 116.805 11.776 116.165 11.776C115.525 11.776 114.885 11.392 114.629 11.008V5.37596L115.909 4.47996L117.701 6.14396V11.008ZM117.701 14.848C117.445 14.592 116.805 14.208 116.165 14.208C115.525 14.208 114.885 14.592 114.629 14.848V11.52C114.885 11.776 115.525 12.16 116.165 12.16C116.805 12.16 117.445 11.776 117.701 11.52V14.848ZM117.701 20.864C117.701 21.888 117.061 22.912 115.653 22.912H114.629V15.36C114.885 15.104 115.525 14.72 116.165 14.72C116.805 14.72 117.317 15.104 117.701 15.36V20.864ZM135.237 11.776L131.141 8.83196L124.869 12.416V20.736L123.589 21.76L123.717 22.016L124.741 21.248L128.837 24.32L135.237 20.48V11.776ZM128.325 19.84V10.624L131.525 12.928V22.016L128.325 19.84ZM147.397 9.08796H147.141C146.757 9.34396 146.373 9.59996 145.989 9.59996C145.477 9.59996 144.837 9.34396 144.581 8.95996H144.325L142.149 11.392L139.973 8.95996L136.133 11.52L136.261 11.776L137.285 11.136L138.565 12.544V20.608L136.901 21.888L137.157 22.144L137.925 21.504L140.997 24.064L144.965 21.376L144.837 21.12L143.685 21.76L142.149 20.48V11.52C142.789 12.16 143.557 12.8 144.453 12.8C146.245 12.928 147.269 11.136 147.397 9.08796ZM162.757 21.376L158.405 24.32L152.517 15.36L156.741 8.83196H156.997C157.509 9.34396 158.277 9.85596 159.173 9.85596C160.069 9.85596 160.709 9.34396 161.093 8.83196H161.349C161.221 11.392 159.429 12.928 158.149 12.928C156.869 12.928 156.229 12.288 155.461 11.904L155.077 12.544L161.477 22.016L162.757 21.248V21.376ZM148.677 20.736L147.013 22.016L147.269 22.272L148.037 21.632L150.853 24.192L154.693 21.632L154.437 21.376L153.413 22.016L152.133 20.736V1.02396H152.005L147.397 4.09596V4.35196C147.909 4.60796 148.677 4.73596 148.677 6.27196V20.736ZM184.005 3.71196C184.005 1.15196 181.573 0.511963 179.653 0.511963V0.895963C180.805 0.895963 181.701 1.27996 181.701 2.17596C181.701 2.68796 181.317 3.45596 180.165 3.45596C179.269 3.45596 177.349 2.94396 175.941 2.43196C174.277 1.91996 172.741 1.40796 171.461 1.40796C168.901 1.40796 167.109 3.32796 167.109 5.50396C167.109 7.42396 168.517 8.06396 169.029 8.31996L169.157 8.06396C168.773 7.80796 168.389 7.55196 168.389 6.78396C168.389 6.27196 168.901 5.37596 170.181 5.37596C171.333 5.37596 172.869 5.88796 174.917 6.52796C176.709 7.03996 178.629 7.42396 179.653 7.55196V11.52L177.733 13.184V13.312L179.653 14.976V20.48C178.629 21.12 177.477 21.248 176.453 21.248C174.533 21.248 172.869 20.736 171.461 19.2L176.709 16.64V7.67996L170.309 10.496C170.949 8.83196 172.357 7.67996 173.637 6.78396L173.509 6.52796C169.669 7.55196 166.213 11.008 166.213 15.36C166.213 20.48 170.437 24.32 175.173 24.32C180.293 24.32 183.621 20.224 183.621 16H183.365C182.597 17.664 181.445 19.2 180.037 19.968V14.72L182.085 13.056V12.928L180.165 11.264V7.42396C182.085 7.42396 184.005 6.14396 184.005 3.71196ZM172.869 17.792L171.333 18.56C170.437 17.408 169.925 15.872 169.925 13.696C169.925 12.8 170.053 11.776 170.309 11.008L172.997 9.85596L172.869 17.792ZM188.485 2.43196H188.357L185.797 4.60796V4.73596L187.973 7.16796H188.229L190.789 4.99196V4.86396L188.485 2.43196ZM192.325 21.376L191.301 22.016L190.021 20.736V11.904L191.301 11.008L191.045 10.752L190.149 11.52L187.845 8.83196L184.133 11.392L184.389 11.776L185.285 11.136L186.437 12.544V20.864L184.773 22.144L184.901 22.4L185.797 21.76L188.613 24.32L192.453 21.76L192.325 21.376ZM213.701 21.248L212.805 21.888L211.397 20.608V11.904L212.677 10.88L212.421 10.624L211.397 11.52L208.453 8.83196L204.613 11.52L201.669 8.83196L198.085 11.52L195.781 8.83196L192.069 11.392L192.197 11.776L193.093 11.136L194.373 12.544V20.864L193.349 21.888L196.293 24.32L199.109 21.76L197.957 20.608V11.904L199.109 11.136L201.029 12.928V20.608L200.005 21.632L202.949 24.064L205.765 21.504L204.613 20.352V11.904L205.637 11.264L207.685 13.056V20.736L206.789 21.632L209.733 24.32L213.701 21.632V21.248ZM224.837 19.328L221.637 21.76L218.437 19.2V17.664L224.453 13.568V13.44L221.381 8.83196L214.725 12.416V21.12L219.205 24.32L224.965 19.712L224.837 19.328ZM218.437 17.152V10.88L218.693 10.752L221.509 15.232L218.437 17.152ZM236.485 16L234.053 14.08C235.717 12.672 236.357 10.752 236.357 9.47196V8.70396H236.101C235.845 9.34396 235.333 9.98396 234.309 9.98396C233.285 9.98396 232.645 9.47196 232.005 8.70396L226.245 11.904V16.512L228.421 18.176C226.245 20.096 225.861 21.376 225.861 22.4C225.861 23.68 226.501 24.576 227.525 24.96L227.653 24.704C227.397 24.448 227.141 24.32 227.141 23.68C227.141 23.296 227.653 22.656 228.677 22.656C229.957 22.656 230.725 23.552 231.109 23.936L236.613 20.608V16H236.485ZM235.077 12.16C234.181 13.696 232.261 15.232 231.109 16L229.701 14.848V10.368C230.213 11.648 231.621 12.672 233.029 12.672C233.925 12.672 234.437 12.544 235.077 12.16ZM232.901 22.4C232.261 20.992 230.725 19.968 229.189 19.968C228.805 19.968 227.781 19.968 226.757 20.608C227.397 19.584 229.061 17.792 231.237 16.512L232.773 17.792L232.901 22.4Z" fill="#3D544D"/>
</g>
<defs>
<clipPath id="clip0_1_96">
<rect width="236.8" height="32" fill="white" transform="translate(0.964783)"/>
</clipPath>
</defs>
</svg>
