<svg width="91" height="32" viewBox="0 0 91 32" fill="none" xmlns="http://www.w3.org/2000/svg">
<g clip-path="url(#clip0_1_92)">
<path fill-rule="evenodd" clip-rule="evenodd" d="M15.1357 9.37931C15.1342 8.21965 14.6727 7.10794 13.8524 6.28819C13.0322 5.46844 11.9202 5.00763 10.7605 5.0069H4.99224V13.8097H10.7605C11.3401 13.8108 11.914 13.6966 12.449 13.4737C12.9839 13.2508 13.4692 12.9236 13.8764 12.5112C14.2836 12.0989 14.6047 11.6096 14.8209 11.0719C15.0371 10.5342 15.1441 9.95879 15.1357 9.37931ZM10.7605 0C13.2503 3.71001e-08 15.638 0.989047 17.3985 2.74956C19.1591 4.51008 20.1481 6.89784 20.1481 9.38759C20.1481 11.8773 19.1591 14.2651 17.3985 16.0256C15.638 17.7861 13.2503 18.7752 10.7605 18.7752H4.99224V31.6662H0.00189209V0H10.7605ZM36.5315 18.4414C36.2084 17.1949 35.4792 16.0916 34.4591 15.3058C33.439 14.52 32.1861 14.0964 30.8984 14.1021C28.1398 14.1021 25.8778 15.8621 25.2571 18.4414H36.5315ZM30.9481 9.68C37.4033 9.68 41.9109 14.8193 41.9109 22.1738V22.571H25.2571C26.1426 25.3297 28.5343 27.1614 31.3509 27.1614C34.286 27.1614 36.5012 25.3131 37.315 24.5186L37.624 24.2207L40.6226 27.8786L40.3633 28.1324C37.8364 30.6152 34.6226 31.9945 31.3095 31.9945C24.9646 31.9945 20.0129 26.9655 20.0129 20.5435C20.0014 19.1087 20.2765 17.6862 20.822 16.3592C21.3675 15.0322 22.1724 13.8274 23.1897 12.8156C24.2069 11.8038 25.4159 11.0052 26.7458 10.4668C28.0757 9.92835 29.4997 9.66086 30.9343 9.68H30.9481ZM50.0653 3.37931V10H56.8874V14.4772H50.0515V23.8566C50.0467 24.2271 50.116 24.5948 50.2554 24.9381C50.3947 25.2815 50.6012 25.5935 50.8629 25.8559C51.1245 26.1183 51.4359 26.3258 51.7789 26.4661C52.1218 26.6064 52.4893 26.6768 52.8598 26.6731H56.7909V31.68H52.7771C48.0874 31.68 45.0529 28.5931 45.0529 23.8152V3.40138L50.0653 3.37931ZM76.0681 20.7972C76.0567 19.5858 75.687 18.4048 75.0056 17.4031C74.3243 16.4014 73.3617 15.6237 72.2392 15.168C71.1167 14.7123 69.8844 14.599 68.6976 14.8423C67.5108 15.0857 66.4225 15.6748 65.5699 16.5354C64.7173 17.3961 64.1385 18.4898 63.9063 19.6789C63.6741 20.8679 63.799 22.0991 64.2652 23.2172C64.7314 24.3354 65.5181 25.2906 66.5262 25.9626C67.5343 26.6345 68.7187 26.9931 69.9302 26.9931C70.7393 26.9891 71.5397 26.8256 72.2856 26.512C73.0315 26.1983 73.7083 25.7407 74.2771 25.1652C74.8459 24.5897 75.2957 23.9077 75.6006 23.1582C75.9056 22.4087 76.0598 21.6064 76.0543 20.7972H76.0681ZM76.6198 12.1379V10.0138H80.9895V31.6662H76.6364V29.5421C74.746 31.1384 72.3492 32.0097 69.875 32C68.3947 32.0233 66.9245 31.7518 65.5501 31.2014C64.1757 30.651 62.9246 29.8327 61.8695 28.7941C60.8145 27.7555 59.9766 26.5173 59.4046 25.1518C58.8327 23.7862 58.5381 22.3205 58.5381 20.84C58.5381 19.3595 58.8327 17.8938 59.4046 16.5282C59.9766 15.1627 60.8145 13.9245 61.8695 12.8859C62.9246 11.8473 64.1757 11.029 65.5501 10.4786C66.9245 9.92819 68.3947 9.65673 69.875 9.68C72.3332 9.68977 74.7106 10.5593 76.595 12.1379H76.6198ZM85.5191 31.6662V1.66897H90.4846V31.6662H85.5191Z" fill="#3D544D"/>
</g>
<defs>
<clipPath id="clip0_1_92">
<rect width="90.4828" height="32" fill="white" transform="translate(0.00213623)"/>
</clipPath>
</defs>
</svg>
