<svg width="52" height="52" viewBox="0 0 52 52" fill="none" xmlns="http://www.w3.org/2000/svg">
<path d="M25.0493 0.888414C25.3508 -0.0283611 26.6477 -0.0283636 26.9492 0.888411L32.7711 18.5906C32.8703 18.8923 33.1069 19.1289 33.4086 19.2281L51.1108 25.0501C52.0276 25.3516 52.0276 26.6484 51.1108 26.9499L33.4086 32.7719C33.1069 32.8711 32.8703 33.1077 32.7711 33.4094L26.9492 51.1116C26.6477 52.0284 25.3508 52.0284 25.0493 51.1116L19.2274 33.4094C19.1282 33.1077 18.8915 32.8711 18.5898 32.7719L0.887651 26.9499C-0.029124 26.6484 -0.0291265 25.3516 0.887648 25.0501L18.5898 19.2281C18.8915 19.1289 19.1282 18.8923 19.2274 18.5906L25.0493 0.888414Z" fill="#2BB32A"/>
</svg>
