<svg width="106" height="32" viewBox="0 0 106 32" fill="none" xmlns="http://www.w3.org/2000/svg">
<g clip-path="url(#clip0_1_90)">
<path d="M68.3376 7.39728C66.6418 7.38193 64.9798 7.87125 63.5628 8.80302C62.1459 9.73478 61.038 11.0669 60.3802 12.63C59.7224 14.193 59.5442 15.9164 59.8685 17.581C60.1927 19.2456 61.0046 20.7761 62.201 21.978C63.3975 23.1799 64.9243 23.9988 66.5874 24.3306C68.2504 24.6624 69.9746 24.4922 71.5407 23.8415C73.1067 23.1908 74.4439 22.089 75.3821 20.6763C76.3203 19.2636 76.8172 17.6039 76.8096 15.908C76.8121 14.7929 76.595 13.6882 76.1706 12.657C75.7463 11.6258 75.1229 10.6883 74.3362 9.89803C73.5495 9.10773 72.6149 8.48013 71.5856 8.05105C70.5564 7.62197 69.4527 7.39982 68.3376 7.39728ZM68.4054 21.0009C67.7506 21.0093 67.1007 20.8869 66.4938 20.6409C65.8869 20.3948 65.3353 20.03 64.8713 19.5679C64.2914 18.9944 63.8619 18.2867 63.6209 17.5075C63.38 16.7283 63.335 15.9016 63.49 15.1009C63.645 14.3001 63.9952 13.55 64.5095 12.917C65.0238 12.2839 65.6863 11.7876 66.4384 11.4719C67.1905 11.1563 68.0088 11.0311 68.8208 11.1074C69.6329 11.1837 70.4136 11.4592 71.0936 11.9095C71.7737 12.3597 72.3322 12.9708 72.7196 13.6886C73.1069 14.4063 73.3112 15.2086 73.3143 16.0242C73.2852 17.3267 72.7581 18.5685 71.8414 19.4942C70.9247 20.4199 69.6881 20.9591 68.386 21.0009H68.4054ZM87.1406 11.4251C86.5655 11.4327 85.9975 11.5538 85.4694 11.7815C84.9412 12.0092 84.4632 12.3389 84.0628 12.7519C83.6625 13.1649 83.3476 13.6528 83.1364 14.1878C82.9252 14.7228 82.8217 15.2942 82.832 15.8693V23.9927H79.143L79.0946 7.87171H82.7836V10.3988C83.3122 9.62653 84.0177 8.99169 84.8412 8.54709C85.6647 8.10248 86.5825 7.86098 87.5182 7.84266H88.593V11.4251H87.1406ZM50.3479 8.01694L53.1073 19.0741L56.012 7.9879H59.701L55.1406 24.1573H51.5582L48.6535 12.8871L45.8553 24.2057H42.2631L37.422 8.0944H41.0141L44.248 19.1225L46.8332 8.03631L50.3479 8.01694ZM99.4081 15.1625C100.703 14.4057 101.777 13.3227 102.523 12.0213C103.269 10.7199 103.66 9.24577 103.659 7.74584H99.9697C99.9852 9.04705 99.4844 10.3014 98.5771 11.2342C97.6697 12.167 96.4297 12.7021 95.1285 12.7225H94.596L94.5573 0H90.8683L91.0135 23.954H94.7025V16.3631H95.1285C95.3239 16.3417 95.5212 16.3802 95.6941 16.4736C95.8671 16.567 96.0075 16.7108 96.0967 16.8859L101.296 23.925H105.614L99.4081 15.1625Z" fill="#3D544D"/>
<path d="M28.9017 7.59092C24.8932 7.59092 21.853 10.2536 20.7104 14.475C18.8846 11.6323 17.4546 8.5541 16.4599 5.32526H12.2481V16.4986C12.2481 17.5618 11.8258 18.5813 11.0741 19.3331C10.3223 20.0848 9.30275 20.5071 8.23964 20.5071C7.17653 20.5071 6.15695 20.0848 5.40522 19.3331C4.65349 18.5813 4.23117 17.5618 4.23117 16.4986V5.32526L0 5.40272L0.0484115 16.5761C0.0445884 17.6644 0.255643 18.7427 0.669471 19.7493C1.0833 20.7559 1.69176 21.6708 2.45996 22.4417C3.22816 23.2126 4.14098 23.8243 5.14608 24.2416C6.15119 24.659 7.22879 24.8738 8.3171 24.8738C9.40503 24.8587 10.4793 24.6288 11.4781 24.1972C12.4769 23.7657 13.3805 23.1411 14.1372 22.3592C14.8939 21.5774 15.4886 20.6537 15.8872 19.6413C16.2858 18.6289 16.4804 17.5478 16.4599 16.4599V14.5234C17.3455 16.2889 18.3788 17.9764 19.5486 19.5679L16.9924 32L21.3011 31.9516L23.1601 22.9761C24.8951 24.0805 26.9128 24.6589 28.9694 24.6415C31.186 24.5575 33.2831 23.6153 34.8179 22.014C36.3527 20.4126 37.2051 18.2774 37.195 16.0594C37.185 13.8413 36.3133 11.7139 34.764 10.1266C33.2147 8.53921 31.1092 7.6161 28.892 7.55219L28.9017 7.59092ZM28.9598 20.3328C27.205 20.2867 25.5222 19.6253 24.2058 18.4641L24.6221 16.7794V16.6826C24.9319 14.8914 25.8614 11.8415 29.0275 11.8415C30.1447 11.8388 31.2176 12.2782 32.0121 13.0636C32.8065 13.849 33.2582 14.9168 33.2684 16.0339C33.2207 17.1604 32.7512 18.2278 31.953 19.0242C31.1548 19.8205 30.0864 20.2877 28.9598 20.3328Z" fill="#3D544D"/>
</g>
<defs>
<clipPath id="clip0_1_90">
<rect width="105.527" height="32" fill="white"/>
</clipPath>
</defs>
</svg>
