<svg width="102" height="32" viewBox="0 0 102 32" fill="none" xmlns="http://www.w3.org/2000/svg">
<g clip-path="url(#clip0_1_98)">
<path fill-rule="evenodd" clip-rule="evenodd" d="M101.937 4.73144C102.047 5.16687 101.559 5.58515 101.306 5.90515C99.1766 8.57144 96.8155 11.7257 93.9789 13.7509C94.1835 14.8114 94.0749 16.2194 93.7046 16.9966C94.4475 17.9429 95.236 18.8389 95.6955 20.064C95.0909 23.264 93.6875 25.7463 91.444 27.3691C89.2543 28.9509 86.2955 29.5749 82.9389 30.3451C76.4486 31.8366 65.7698 33.3074 60.9549 29.4423C55.7412 32.4914 45.2052 32.8937 40.3286 29.2617C36.8623 33.6354 23.1881 33.2514 25.2223 24.5726C22.6863 26.4869 18.9366 29.1257 15.3595 30.616C11.211 32.3417 3.35497 32.1474 4.14011 26.2869C4.23497 25.5886 4.53097 25.1943 4.86468 24.5726C3.65097 22.4617 2.88411 20.9966 2.1504 19.1611C1.44754 17.4011 0.375538 15.3977 0.249824 12.9394C-0.0130329 7.70972 4.07611 4.3943 8.12411 2.83658C10.1893 2.0423 11.8669 0.891437 13.9126 0.314294C16.9698 -0.554277 19.5903 1.12229 19.7926 3.92115C23.3469 2.86972 27.6749 1.70972 32.3686 2.38858C36.1058 -0.508564 43.4041 1.28115 48.2006 2.65715C49.2852 2.96915 50.7446 3.77487 51.548 3.74058C52.2281 3.71315 53.4566 2.79315 54.1698 2.47772C57.5355 0.989723 61.9355 -0.594277 66.7458 0.222866C67.6566 0.376009 68.4898 0.857151 69.4589 0.942866C70.1172 1.00344 70.9218 0.797723 71.6303 0.76458C82.8726 0.217152 92.2315 3.22515 101.937 4.73144ZM70.4555 4.37258C69.3069 4.50972 68.492 5.7623 67.7412 6.17601C67.796 6.1703 67.8475 6.16115 67.8303 6.08458C67.9675 5.46972 68.2303 4.97944 68.2829 4.2823C62.2623 2.16801 56.4029 5.2583 52.0909 7.6183C48.6418 9.50401 45.5652 11.7211 43.4052 13.9303C44.1858 12.6046 45.0143 11.2926 45.9389 10.0537C46.8761 8.79544 47.9195 7.65715 48.7446 6.53715C46.9412 6.0663 45.1332 5.56915 43.3138 5.18287C40.7286 4.6343 37.1332 3.72572 34.9915 4.91315C34.3721 5.25601 33.8646 6.10058 33.2726 6.17601C32.7823 6.23887 31.9755 5.8823 31.3721 5.81601C29.1618 5.5703 27.1275 5.77487 25.1298 6.17601C23.2589 6.54972 19.3035 7.21258 18.7961 8.97029C18.4715 10.0994 19.1961 11.1932 19.0681 12.3097C18.9446 13.4069 17.8863 14.8606 17.3492 15.736C16.6921 16.8103 16.0235 17.7611 14.9058 18.2606C14.2292 14.9006 14.9652 11.912 15.5401 9.06287C15.8943 7.3063 16.6086 5.50858 15.9938 3.74058C14.2681 3.50172 12.8155 4.86287 11.107 5.54287C7.89782 6.82287 4.32411 7.98972 3.8704 11.6766C3.6144 13.7531 4.39725 15.0731 4.95611 16.5474C6.06043 19.4973 7.55156 22.2873 9.3904 24.8446C8.91039 25.7223 7.78239 25.9509 7.66925 27.1874C8.18011 27.9074 9.24297 28.0034 10.2933 28C13.3286 27.9931 15.8178 26.4709 18.0726 25.2046C22.9823 22.4503 26.2806 18.2114 29.7446 14.2023C30.3526 13.4971 30.8532 12.648 31.6452 12.2183C32.4223 15.7806 30.9103 17.6857 29.8338 20.6046C29.4189 21.7291 28.1103 25.2491 28.7481 26.9166C29.4475 28.7509 35.4029 28.8309 36.9812 27.6411C37.7766 27.0411 38.0932 25.6869 38.5206 24.8446C39.0658 23.7611 39.5378 22.8263 39.9675 21.8686C39.9915 25.8194 42.9355 26.9794 46.1183 27.8206C52.8841 29.6034 59.7069 26.4183 63.3983 24.2149C62.9366 27.1417 64.0772 27.4354 66.3846 27.912C72.3503 29.1394 78.3583 27.7234 83.2109 26.5577C87.66 25.4903 91.2372 24.736 91.8966 20.3337C91.1846 19.72 89.4052 19.7966 88.188 19.9749C84.5995 20.4983 81.1252 22.3063 76.3366 21.9577C75.4623 21.8949 73.5755 21.5909 73.4395 21.0571C73.2292 20.2251 74.7241 19.6423 75.9766 19.4343C79.5652 18.8286 84.7538 19.44 87.644 18.3486C89.0315 17.8274 90.7058 16.3211 90.5378 14.6526C90.428 13.5257 88.9526 12.936 87.5526 12.8503C83.5938 12.6034 80.764 14.9074 76.6098 14.112C77.1286 13.4583 77.2223 12.3806 77.8738 11.8583C80.9126 11.7943 83.8646 12.3954 86.74 12.2183C90.7378 11.9691 92.9915 10.2903 94.8829 8.06972C95.0852 7.82972 95.5926 7.57258 95.4258 7.16915C88.4818 6.11544 79.0166 3.32572 70.4555 4.37258ZM56.7035 11.3143C56.2578 13.3371 55.3263 15.6526 54.8041 17.8971C57.6795 17.9383 60.7126 17.3531 63.6692 17.176C64.0692 16.6434 64.2658 15.9074 64.484 15.192C65.0772 16.0286 65.4943 17.5943 64.9366 18.7989C60.4463 18.736 57.2189 22.4023 52.8143 22.4057C50.8418 22.408 49.1652 21.2777 50.0989 19.0686C51.4178 15.9543 54.6886 13.7783 56.7035 11.3143ZM67.1983 7.97715C68.044 8.9383 69.8955 8.89715 70.9972 9.6023C69.5103 9.98287 67.6383 9.98058 66.292 10.5017C66.6098 9.6743 66.8943 8.81601 67.1983 7.97715Z" fill="#3D544D"/>
</g>
<defs>
<clipPath id="clip0_1_98">
<rect width="101.714" height="32" fill="white" transform="translate(0.239502)"/>
</clipPath>
</defs>
</svg>
