<svg width="27" height="47" viewBox="0 0 27 47" fill="none" xmlns="http://www.w3.org/2000/svg">
<path fill-rule="evenodd" clip-rule="evenodd" d="M15.5437 0.469159C16.3564 -0.11168 17.4861 0.0763063 18.067 0.889038C21.1597 5.21653 24.8487 12.5973 25.93 20.8184C27.0187 29.0957 25.4651 38.336 17.8828 46.0187C17.1811 46.7297 16.0358 46.7372 15.3248 46.0355C14.6139 45.3338 14.6063 44.1886 15.308 43.4776C21.921 36.777 23.3248 28.7517 22.3434 21.2901C21.3545 13.7723 17.9458 6.94105 15.1238 2.99244C14.543 2.17971 14.731 1.05 15.5437 0.469159ZM7.70354 7.10286C8.5154 6.52081 9.64539 6.70712 10.2274 7.51899C12.4106 10.5642 15.0084 15.7436 15.7715 21.5273C16.5422 27.368 15.4426 33.9345 10.0428 39.3886C9.33998 40.0985 8.19475 40.1042 7.48485 39.4014C6.77496 38.6986 6.76922 37.5534 7.47204 36.8435C11.8998 32.3711 12.8476 27.0218 12.1851 22.0005C11.515 16.9222 9.19904 12.2932 7.2874 9.62676C6.70536 8.81489 6.89167 7.6849 7.70354 7.10286ZM1.66735 14.3429C2.47644 13.757 3.6073 13.938 4.1932 14.7471C5.38527 16.3933 6.79491 19.1721 7.21165 22.2991C7.63634 25.4857 7.02964 29.1375 4.0072 32.16C3.30083 32.8663 2.15558 32.8663 1.44922 32.16C0.74285 31.4536 0.74285 30.3083 1.44922 29.602C3.49131 27.5599 3.93972 25.1322 3.62583 22.777C3.304 20.3621 2.18137 18.1367 1.26321 16.8688C0.677317 16.0597 0.858254 14.9288 1.66735 14.3429Z" fill="white"/>
</svg>
