<svg width="422" height="264" viewBox="0 0 422 264" fill="none" xmlns="http://www.w3.org/2000/svg">
<g filter="url(#filter0_b_18_34)">
<rect width="412.27" height="260.381" rx="34.7175" transform="matrix(1 0 0.0348995 0.999391 0 2)" fill="white" fill-opacity="0.1"/>
<rect width="412.27" height="260.381" rx="34.7175" transform="matrix(1 0 0.0348995 0.999391 0 2)" stroke="url(#paint0_linear_18_34)" stroke-opacity="0.5" stroke-width="2.16984"/>
</g>
<path d="M51.4266 196.724L51.0396 185.643H53.0598L58.3043 193.597H58.3347L58.0569 185.643H59.9403L60.3273 196.724H58.3072L53.0778 188.77H53.0475L53.3252 196.724H51.4266ZM64.5558 196.875C63.766 196.875 63.1358 196.663 62.6653 196.238C62.2046 195.803 61.9613 195.216 61.9355 194.477C61.9034 193.556 62.2381 192.848 62.9397 192.352C63.6413 191.856 64.6554 191.608 65.9819 191.608H67.0907C67.0773 191.224 67.0164 190.93 66.9081 190.728C66.8095 190.515 66.6424 190.368 66.4066 190.287C66.181 190.207 65.8607 190.166 65.4455 190.166C64.9392 190.166 64.4144 190.217 63.8712 190.318C63.338 190.419 62.837 190.571 62.3682 190.773L62.0737 189.301C62.5834 189.109 63.1502 188.957 63.7742 188.845C64.3981 188.734 65.024 188.678 65.6518 188.678C66.4517 188.678 67.0829 188.775 67.5453 188.967C68.0178 189.159 68.3632 189.483 68.5816 189.938C68.8001 190.394 68.9224 190.996 68.9485 191.745L69.1224 196.724H67.3453L67.2983 195.813H67.2679C67.0055 196.127 66.6196 196.385 66.1102 196.587C65.6005 196.779 65.0824 196.875 64.5558 196.875ZM65.1732 195.418C65.5479 195.418 65.8899 195.352 66.1992 195.221C66.5081 195.079 66.7497 194.892 66.9238 194.659C67.098 194.426 67.1799 194.163 67.1697 193.87L67.1363 192.914H66.3009C65.4301 192.914 64.7759 193.03 64.3385 193.263C63.9109 193.485 63.7052 193.829 63.7214 194.295C63.7335 194.639 63.8645 194.912 64.1146 195.115C64.3647 195.317 64.7176 195.418 65.1732 195.418ZM71.1218 196.724L70.8462 188.83H72.5777L72.6404 189.756H72.6708C72.9423 189.412 73.2724 189.149 73.6609 188.967C74.0491 188.775 74.5065 188.678 75.033 188.678C75.5495 188.678 75.9882 188.775 76.3494 188.967C76.7202 189.149 76.9876 189.412 77.1515 189.756H77.1819C77.4726 189.382 77.8124 189.109 78.2013 188.937C78.5902 188.764 79.053 188.678 79.5897 188.678C80.4403 188.678 81.0659 188.906 81.4666 189.362C81.8669 189.807 82.0839 190.51 82.1175 191.472L82.3009 196.724H80.4934L80.3259 191.927C80.305 191.33 80.1936 190.895 79.9917 190.621C79.7898 190.348 79.4762 190.212 79.0509 190.212C78.5446 190.212 78.1504 190.379 77.8684 190.713C77.5865 191.046 77.4552 191.492 77.4746 192.048L77.6379 196.724H75.8152L75.6429 191.79C75.6249 191.274 75.505 190.885 75.2832 190.621C75.061 190.348 74.7524 190.212 74.3575 190.212C74.0537 190.212 73.7781 190.293 73.5306 190.454C73.2932 190.616 73.1034 190.834 72.961 191.107C72.8288 191.38 72.7689 191.694 72.7812 192.048L72.9445 196.724H71.1218ZM88.1108 196.875C86.7134 196.875 85.6277 196.521 84.8537 195.813C84.0796 195.104 83.6696 194.093 83.6237 192.777C83.5791 191.502 83.8884 190.5 84.5516 189.771C85.2248 189.043 86.1639 188.678 87.3689 188.678C88.5334 188.678 89.4466 189.023 90.1086 189.711C90.7705 190.399 91.1236 191.375 91.1678 192.64C91.1727 192.782 91.1731 192.939 91.169 193.111C91.1649 193.283 91.1592 193.409 91.1519 193.49H84.6814L84.6343 192.139H89.677L89.4179 192.549C89.3889 191.719 89.2055 191.107 88.8677 190.713C88.5396 190.308 88.0567 190.105 87.4187 190.105C86.7403 190.105 86.2313 190.318 85.8917 190.743C85.5619 191.158 85.4114 191.775 85.44 192.595L85.4585 193.126C85.4854 193.895 85.7079 194.467 86.126 194.841C86.5437 195.206 87.1627 195.388 87.9829 195.388C88.4082 195.388 88.8625 195.347 89.3457 195.266C89.8285 195.175 90.2548 195.059 90.6245 194.917L90.9033 196.375C90.5238 196.526 90.0875 196.648 89.5946 196.739C89.1016 196.83 88.607 196.875 88.1108 196.875Z" fill="#EDEDED"/>
<path d="M53.636 111.218C52.431 111.218 51.3852 110.991 50.4985 110.535C49.6117 110.08 48.9206 109.427 48.4251 108.577C47.9398 107.727 47.6764 106.71 47.6351 105.526C47.5934 104.332 47.7857 103.315 48.212 102.475C48.6482 101.625 49.2937 100.972 50.1486 100.517C51.0035 100.061 52.0335 99.8335 53.2385 99.8335C54.6156 99.8335 55.8462 100.132 56.9303 100.729L56.5481 102.399C55.4948 101.812 54.4314 101.518 53.3581 101.518C52.5581 101.518 51.8701 101.68 51.2941 102.004C50.7178 102.318 50.2831 102.773 49.99 103.37C49.697 103.967 49.5651 104.686 49.5945 105.526C49.6234 106.356 49.8055 107.074 50.1406 107.681C50.4753 108.278 50.942 108.739 51.5406 109.063C52.1389 109.376 52.838 109.533 53.6379 109.533C54.6809 109.533 55.7238 109.24 56.7665 108.653L57.2653 110.323C56.2229 110.92 55.0132 111.218 53.636 111.218ZM59.1426 111.066L58.867 103.173H60.6593L60.7264 104.661H60.7568C61.0081 104.317 61.3066 104.023 61.6526 103.78C62.0083 103.527 62.4017 103.34 62.8329 103.219C63.2637 103.087 63.7171 103.021 64.193 103.021L64.2492 104.63C63.6112 104.63 63.0332 104.752 62.5152 104.995C62.0072 105.237 61.6036 105.566 61.3041 105.981C61.0145 106.386 60.8785 106.841 60.8962 107.347L61.0261 111.066H59.1426ZM69.1898 111.218C67.7924 111.218 66.7067 110.864 65.9327 110.156C65.1586 109.447 64.7486 108.435 64.7027 107.12C64.6581 105.845 64.9674 104.843 65.6305 104.114C66.3038 103.386 67.2429 103.021 68.4479 103.021C69.6124 103.021 70.5256 103.365 71.1876 104.053C71.8495 104.742 72.2026 105.718 72.2468 106.983C72.2517 107.125 72.2521 107.282 72.248 107.454C72.2439 107.626 72.2382 107.752 72.2309 107.833H65.7604L65.7132 106.482H70.756L70.4969 106.892C70.4679 106.062 70.2845 105.45 69.9467 105.055C69.6186 104.651 69.1357 104.448 68.4977 104.448C67.8193 104.448 67.3103 104.661 66.9707 105.086C66.6409 105.501 66.4903 106.118 66.519 106.938L66.5375 107.469C66.5644 108.238 66.7869 108.81 67.205 109.184C67.6227 109.548 68.2417 109.731 69.0619 109.731C69.4872 109.731 69.9415 109.69 70.4247 109.609C70.9075 109.518 71.3338 109.402 71.7035 109.26L71.9823 110.717C71.6028 110.869 71.1665 110.991 70.6735 111.082C70.1806 111.173 69.686 111.218 69.1898 111.218ZM76.9091 111.218C75.856 111.218 75.0232 110.859 74.4108 110.14C73.7985 109.422 73.4696 108.415 73.4244 107.12C73.3792 105.824 73.6377 104.817 74.1999 104.099C74.7621 103.38 75.5697 103.021 76.6228 103.021C77.1494 103.021 77.6285 103.112 78.0601 103.294C78.4918 103.477 78.8606 103.745 79.1666 104.099H79.2122L79.0686 99.9853H80.9064L81.2934 111.066H79.5466L79.4839 110.14H79.4536C79.1719 110.485 78.8066 110.753 78.3577 110.945C77.9185 111.127 77.4356 111.218 76.9091 111.218ZM77.3421 109.7C77.737 109.7 78.0835 109.619 78.3817 109.457C78.6899 109.295 78.9302 109.073 79.1026 108.789C79.275 108.506 79.355 108.187 79.3426 107.833L79.2928 106.406C79.2801 106.042 79.1778 105.723 78.986 105.45C78.7938 105.167 78.543 104.944 78.2336 104.782C77.9242 104.62 77.5669 104.539 77.1619 104.539C76.524 104.539 76.0356 104.762 75.6967 105.207C75.368 105.652 75.2181 106.29 75.2471 107.12C75.276 107.95 75.4705 108.587 75.8303 109.032C76.2002 109.478 76.7042 109.7 77.3421 109.7ZM83.325 101.776L83.2625 99.9853H85.1459L85.2084 101.776H83.325ZM83.6494 111.066L83.3754 103.219H85.2588L85.5328 111.066H83.6494ZM91.4335 111.218C90.5019 111.218 89.8218 111.026 89.3932 110.641C88.9646 110.257 88.7351 109.629 88.7047 108.759L88.5616 104.661H86.7997L86.7477 103.173H88.5096L88.4195 100.592H90.303L90.3931 103.173H93.0511L93.1031 104.661H90.445L90.5717 108.289C90.5894 108.795 90.6827 109.149 90.8518 109.351C91.0307 109.543 91.3328 109.64 91.758 109.64C91.9808 109.64 92.213 109.619 92.4546 109.579C92.6962 109.538 92.912 109.483 93.1019 109.412L93.3225 110.945C92.9818 111.046 92.6602 111.117 92.3579 111.158C92.0555 111.198 91.7474 111.218 91.4335 111.218ZM104.721 111.218C103.516 111.218 102.47 110.991 101.583 110.535C100.696 110.08 100.005 109.427 99.5096 108.577C99.0243 107.727 98.7609 106.71 98.7196 105.526C98.6779 104.332 98.8702 103.315 99.2965 102.475C99.7327 101.625 100.378 100.972 101.233 100.517C102.088 100.061 103.118 99.8335 104.323 99.8335C105.7 99.8335 106.931 100.132 108.015 100.729L107.633 102.399C106.579 101.812 105.516 101.518 104.443 101.518C103.643 101.518 102.955 101.68 102.379 102.004C101.802 102.318 101.368 102.773 101.075 103.37C100.781 103.967 100.65 104.686 100.679 105.526C100.708 106.356 100.89 107.074 101.225 107.681C101.56 108.278 102.027 108.739 102.625 109.063C103.223 109.376 103.922 109.533 104.722 109.533C105.765 109.533 106.808 109.24 107.851 108.653L108.35 110.323C107.307 110.92 106.098 111.218 104.721 111.218ZM112.027 111.218C111.237 111.218 110.607 111.006 110.136 110.581C109.676 110.146 109.432 109.559 109.407 108.82C109.374 107.899 109.709 107.191 110.411 106.695C111.112 106.199 112.126 105.951 113.453 105.951H114.562C114.548 105.566 114.487 105.273 114.379 105.07C114.281 104.858 114.113 104.711 113.878 104.63C113.652 104.549 113.332 104.509 112.917 104.509C112.41 104.509 111.885 104.559 111.342 104.661C110.809 104.762 110.308 104.914 109.839 105.116L109.545 103.644C110.054 103.451 110.621 103.3 111.245 103.188C111.869 103.077 112.495 103.021 113.123 103.021C113.923 103.021 114.554 103.117 115.016 103.31C115.489 103.502 115.834 103.826 116.053 104.281C116.271 104.737 116.393 105.339 116.42 106.088L116.593 111.066H114.816L114.769 110.156H114.739C114.476 110.469 114.091 110.727 113.581 110.93C113.072 111.122 112.553 111.218 112.027 111.218ZM112.644 109.761C113.019 109.761 113.361 109.695 113.67 109.564C113.979 109.422 114.221 109.235 114.395 109.002C114.569 108.769 114.651 108.506 114.641 108.213L114.607 107.256H113.772C112.901 107.256 112.247 107.373 111.81 107.605C111.382 107.828 111.176 108.172 111.192 108.638C111.205 108.982 111.336 109.255 111.586 109.457C111.836 109.66 112.189 109.761 112.644 109.761ZM118.593 111.066L118.317 103.173H120.11L120.177 104.661H120.207C120.458 104.317 120.757 104.023 121.103 103.78C121.459 103.527 121.852 103.34 122.283 103.219C122.714 103.087 123.167 103.021 123.643 103.021L123.699 104.63C123.061 104.63 122.483 104.752 121.965 104.995C121.457 105.237 121.054 105.566 120.754 105.981C120.465 106.386 120.329 106.841 120.346 107.347L120.476 111.066H118.593ZM127.638 111.218C126.584 111.218 125.752 110.859 125.139 110.14C124.527 109.422 124.198 108.415 124.153 107.12C124.108 105.824 124.366 104.817 124.928 104.099C125.491 103.38 126.298 103.021 127.351 103.021C127.878 103.021 128.357 103.112 128.789 103.294C129.22 103.477 129.589 103.745 129.895 104.099H129.941L129.797 99.9853H131.635L132.022 111.066H130.275L130.212 110.14H130.182C129.9 110.485 129.535 110.753 129.086 110.945C128.647 111.127 128.164 111.218 127.638 111.218ZM128.071 109.7C128.466 109.7 128.812 109.619 129.11 109.457C129.418 109.295 129.659 109.073 129.831 108.789C130.003 108.506 130.083 108.187 130.071 107.833L130.021 106.406C130.009 106.042 129.906 105.723 129.714 105.45C129.522 105.167 129.272 104.944 128.962 104.782C128.653 104.62 128.295 104.539 127.89 104.539C127.252 104.539 126.764 104.762 126.425 105.207C126.096 105.652 125.947 106.29 125.976 107.12C126.005 107.95 126.199 108.587 126.559 109.032C126.929 109.478 127.433 109.7 128.071 109.7ZM138.59 111.066L138.204 99.9853H140.224L145.468 107.939H145.499L145.221 99.9853H147.104L147.491 111.066H145.471L140.242 103.112H140.211L140.489 111.066H138.59ZM153.284 111.218C152.008 111.218 151.009 110.864 150.285 110.156C149.572 109.437 149.192 108.425 149.146 107.12C149.101 105.814 149.41 104.807 150.074 104.099C150.747 103.38 151.722 103.021 152.998 103.021C154.274 103.021 155.274 103.38 155.997 104.099C156.721 104.807 157.105 105.814 157.151 107.12C157.196 108.425 156.882 109.437 156.209 110.156C155.535 110.864 154.56 111.218 153.284 111.218ZM153.232 109.731C153.931 109.731 154.455 109.513 154.804 109.078C155.153 108.633 155.313 107.98 155.283 107.12C155.253 106.26 155.048 105.612 154.668 105.177C154.288 104.731 153.749 104.509 153.05 104.509C152.361 104.509 151.837 104.731 151.478 105.177C151.129 105.612 150.969 106.26 150.999 107.12C151.029 107.98 151.234 108.633 151.615 109.078C152.004 109.513 152.544 109.731 153.232 109.731ZM158.766 111.066L158.691 108.926H160.848L160.923 111.066H158.766Z" fill="#EDEDED"/>
<path d="M184.721 192.386L184.334 181.305H191.746L191.803 182.945H186.29L186.389 185.798H191.599L191.655 187.407H186.446L186.562 190.747H192.076L192.133 192.386H184.721ZM193.35 192.386L195.718 188.409L193.105 184.493H195.171L196.944 187.438H196.975L198.543 184.493H200.608L198.269 188.409L200.914 192.386H198.849L197.043 189.396H197.013L195.431 192.386H193.35ZM206.597 184.341C207.65 184.341 208.483 184.7 209.095 185.419C209.707 186.137 210.036 187.144 210.081 188.44C210.127 189.735 209.868 190.742 209.306 191.46C208.744 192.179 207.936 192.538 206.883 192.538C206.367 192.538 205.887 192.447 205.446 192.265C205.014 192.073 204.645 191.804 204.339 191.46H204.309L204.452 195.574H202.584L202.197 184.493H203.974L204.022 185.419H204.052C204.344 185.065 204.709 184.796 205.148 184.614C205.587 184.432 206.07 184.341 206.597 184.341ZM206.164 185.859C205.779 185.859 205.432 185.94 205.124 186.102C204.816 186.264 204.576 186.486 204.403 186.77C204.241 187.043 204.166 187.362 204.178 187.726L204.228 189.153C204.241 189.507 204.338 189.826 204.52 190.109C204.712 190.393 204.968 190.615 205.287 190.777C205.607 190.939 205.959 191.02 206.344 191.02C206.992 191.02 207.48 190.797 207.809 190.352C208.138 189.907 208.288 189.269 208.259 188.44C208.23 187.61 208.035 186.972 207.676 186.527C207.316 186.082 206.812 185.859 206.164 185.859ZM211.705 192.386L211.63 190.246H213.787L213.862 192.386H211.705Z" fill="#EDEDED"/>
<path d="M189.804 222.046C188.537 222.046 187.581 221.647 186.937 220.849C186.293 220.051 185.942 218.823 185.884 217.167C185.826 215.51 186.091 214.282 186.68 213.484C187.268 212.686 188.196 212.287 189.463 212.287C190.73 212.287 191.682 212.686 192.317 213.484C192.961 214.282 193.312 215.51 193.37 217.167C193.428 218.823 193.163 220.051 192.574 220.849C191.995 221.647 191.071 222.046 189.804 222.046ZM189.753 220.602C190.474 220.602 190.989 220.324 191.3 219.769C191.61 219.214 191.745 218.346 191.704 217.167C191.662 215.978 191.467 215.111 191.118 214.564C190.769 214.009 190.234 213.732 189.514 213.732C188.793 213.732 188.273 214.009 187.954 214.564C187.644 215.111 187.509 215.978 187.55 217.167C187.592 218.346 187.787 219.214 188.136 219.769C188.494 220.324 189.033 220.602 189.753 220.602ZM197.829 212.287C198.61 212.287 199.275 212.426 199.822 212.704C200.37 212.981 200.788 213.389 201.076 213.927C201.372 214.465 201.535 215.133 201.562 215.931C201.604 217.128 201.406 218.173 200.969 219.066C200.54 219.951 199.905 220.649 199.063 221.161C198.222 221.673 197.199 221.963 195.995 222.033L195.663 220.719C196.737 220.658 197.605 220.428 198.268 220.029C198.931 219.621 199.41 219.027 199.703 218.247L199.677 218.234C199.371 218.416 199.042 218.554 198.689 218.65C198.345 218.745 197.965 218.793 197.548 218.793C196.585 218.793 195.816 218.511 195.24 217.947C194.674 217.383 194.373 216.603 194.338 215.605C194.314 214.911 194.437 214.317 194.706 213.823C194.975 213.328 195.374 212.951 195.903 212.691C196.432 212.422 197.074 212.287 197.829 212.287ZM197.878 213.68C197.235 213.68 196.746 213.849 196.411 214.187C196.084 214.517 195.931 214.981 195.952 215.579C195.973 216.178 196.15 216.646 196.483 216.984C196.824 217.314 197.298 217.479 197.906 217.479C198.34 217.479 198.711 217.409 199.018 217.271C199.326 217.123 199.557 216.911 199.712 216.633C199.876 216.347 199.951 216.013 199.938 215.631C199.926 215.293 199.845 214.976 199.696 214.681C199.556 214.387 199.335 214.148 199.033 213.966C198.74 213.775 198.355 213.68 197.878 213.68ZM202.513 222.436L206.78 211.897H208.368L204.101 222.436H202.513ZM213.391 221.916L213.123 214.239H213.097L209.833 216.204L209.315 214.786L213.06 212.418H214.713L215.045 221.916H213.391ZM221.757 221.916L221.489 214.239H221.463L218.199 216.204L217.68 214.786L221.425 212.418H223.079L223.41 221.916H221.757Z" fill="white"/>
<path d="M52.1826 221.916L51.8509 212.418H54.7151C56.1125 212.418 57.1402 212.643 57.7982 213.094C58.4649 213.545 58.8154 214.261 58.8496 215.241C58.8832 216.204 58.5959 216.924 57.9877 217.401C57.3881 217.878 56.4547 218.116 55.1875 218.116H52.766L52.7224 216.867H54.9356C55.8209 216.867 56.4546 216.746 56.8367 216.503C57.2271 216.251 57.4127 215.848 57.3933 215.293C57.3739 214.738 57.1603 214.339 56.7526 214.096C56.3533 213.844 55.7109 213.719 54.8256 213.719H53.3285L53.6147 221.916H52.1826ZM57.7417 221.916L53.2807 217.57H55.0903L59.6035 221.916H57.7417ZM61.1586 221.916L60.8269 212.418H67.0761L67.1206 213.693H62.3036L62.3953 216.321H66.952L66.9956 217.57H62.439L62.5462 220.641H67.3632L67.4078 221.916H61.1586ZM75.2558 221.916L74.9241 212.418H76.3562L76.6879 221.916H75.2558ZM69.3972 221.916L69.0656 212.418H70.4977L70.8293 221.916H69.3972ZM69.9624 217.596L69.917 216.295H75.7756L75.821 217.596H69.9624ZM77.9699 221.916L81.1013 212.418H83.0411L86.8228 221.916H85.2475L82.1204 213.641H82.0944L79.5452 221.916H77.9699ZM79.6834 219.535L79.6379 218.234H84.9106L84.9561 219.535H79.6834ZM88.0994 221.916L87.7677 212.418H89.33L94.1105 219.574H94.1366L93.8867 212.418H95.3188L95.6504 221.916H94.0882L89.3076 214.76H89.2816L89.5315 221.916H88.0994ZM101.513 221.916L101.181 212.418H104.045C105.442 212.418 106.47 212.643 107.128 213.094C107.795 213.545 108.145 214.261 108.18 215.241C108.213 216.204 107.926 216.924 107.318 217.401C106.718 217.878 105.785 218.116 104.517 218.116H102.096L102.052 216.867H104.266C105.151 216.867 105.785 216.746 106.167 216.503C106.557 216.251 106.743 215.848 106.723 215.293C106.704 214.738 106.49 214.339 106.083 214.096C105.683 213.844 105.041 213.719 104.156 213.719H102.658L102.945 221.916H101.513ZM107.072 221.916L102.611 217.57H104.42L108.933 221.916H107.072ZM109.551 221.916L112.683 212.418H114.622L118.404 221.916H116.829L113.702 213.641H113.676L111.127 221.916H109.551ZM111.265 219.535L111.219 218.234H116.492L116.537 219.535H111.265ZM119.798 221.916L119.466 212.418H120.95L121.282 221.916H119.798ZM129.468 221.916L129.136 212.418H130.568L130.9 221.916H129.468ZM123.609 221.916L123.278 212.418H124.71L125.041 221.916H123.609ZM124.175 217.596L124.129 216.295H129.988L130.033 217.596H124.175ZM132.182 221.916L135.313 212.418H137.253L141.035 221.916H139.46L136.333 213.641H136.306L133.757 221.916H132.182ZM133.895 219.535L133.85 218.234H139.123L139.168 219.535H133.895ZM142.312 221.916L141.98 212.418H143.542L148.323 219.574H148.349L148.099 212.418H149.531L149.863 221.916H148.3L143.52 214.76H143.494L143.744 221.916H142.312Z" fill="white"/>
<path fill-rule="evenodd" clip-rule="evenodd" d="M64.8255 52.7832C67.3316 50.4049 68.8353 46.993 68.7029 43.2013C68.5705 39.4096 66.8285 35.9976 64.1563 33.6194C66.3996 31.4907 69.4474 30.1902 72.8435 30.1902C80.0336 30.1902 86.066 36.0156 86.3169 43.2013C86.5679 50.387 80.9423 56.2124 73.7522 56.2124C70.3561 56.2124 67.2175 54.9119 64.8255 52.7832ZM64.8255 52.7832C62.5821 54.9119 59.5343 56.2124 56.1382 56.2124C48.9481 56.2124 42.9157 50.387 42.6648 43.2013C42.4139 36.0156 48.0394 30.1902 55.2295 30.1902C58.6256 30.1902 61.7643 31.4907 64.1563 33.6194C61.6502 35.9976 60.1464 39.4096 60.2788 43.2013C60.4112 46.993 62.1533 50.4049 64.8255 52.7832Z" fill="white"/>
<path fill-rule="evenodd" clip-rule="evenodd" d="M377.801 30.4423C378.394 30.0082 379.244 30.1487 379.699 30.7561C382.125 33.9903 385.076 39.5064 386.1 45.6505C387.13 51.8366 386.209 58.7425 380.739 64.4842C380.233 65.0156 379.377 65.0212 378.827 64.4968C378.277 63.9724 378.241 63.1165 378.748 62.5851C383.518 57.5774 384.358 51.5796 383.43 46.0031C382.494 40.3846 379.767 35.2791 377.553 32.3281C377.098 31.7207 377.209 30.8764 377.801 30.4423ZM372.112 35.4001C372.704 34.9651 373.553 35.1043 374.01 35.7111C375.722 37.9869 377.8 41.8578 378.521 46.1803C379.25 50.5454 378.599 55.4529 374.704 59.5292C374.196 60.0597 373.34 60.064 372.791 59.5387C372.242 59.0135 372.208 58.1576 372.715 57.627C375.909 54.2845 376.478 50.2867 375.852 46.534C375.218 42.7386 373.365 39.2791 371.866 37.2863C371.41 36.6796 371.52 35.8351 372.112 35.4001ZM367.787 40.811C368.376 40.3731 369.227 40.5084 369.686 41.113C370.62 42.3433 371.747 44.4201 372.14 46.7571C372.541 49.1387 372.183 51.8679 370.001 54.1268C369.492 54.6547 368.635 54.6547 368.088 54.1268C367.542 53.5988 367.512 52.7429 368.022 52.215C369.496 50.6888 369.767 48.8745 369.471 47.1143C369.168 45.3095 368.27 43.6463 367.55 42.6987C367.091 42.094 367.197 41.2489 367.787 40.811ZM364.267 46.4119C363.769 46.4119 363.379 46.8154 363.396 47.3131C363.414 47.8108 363.832 48.2143 364.33 48.2143C364.828 48.2143 365.217 47.8108 365.2 47.3131C365.183 46.8154 364.765 46.4119 364.267 46.4119ZM360.691 47.3131C360.622 45.3222 362.18 43.7083 364.172 43.7083C366.164 43.7083 367.836 45.3222 367.905 47.3131C367.975 49.304 366.416 50.9179 364.424 50.9179C362.432 50.9179 360.761 49.304 360.691 47.3131Z" fill="white"/>
<path d="M51.7504 145.508L51.3225 133.256H51.2791L46.7712 137.137L46.647 133.581L51.1976 129.678H54.3222L54.875 145.508H51.7504ZM62.5204 145.725C61.3053 145.725 60.3215 145.515 59.5691 145.096C58.8312 144.676 58.2792 143.99 57.9132 143.036C57.5616 142.081 57.3581 140.809 57.3026 139.219C57.2243 136.978 57.4498 135.149 57.9789 133.733C58.5076 132.301 59.3673 131.239 60.5582 130.545C61.7491 129.851 63.2987 129.49 65.2072 129.461L65.3011 132.15C64.4332 132.15 63.6571 132.294 62.9728 132.583C62.288 132.858 61.7445 133.241 61.3422 133.733C60.9398 134.224 60.7213 134.802 60.6867 135.467H60.7735C61.171 135.251 61.549 135.099 61.9076 135.012C62.2662 134.925 62.6553 134.882 63.0748 134.882C64.4635 134.882 65.4982 135.308 66.1789 136.161C66.8736 137 67.252 138.308 67.3141 140.086C67.3843 142.096 67.0442 143.542 66.2939 144.423C65.5575 145.291 64.2996 145.725 62.5204 145.725ZM62.4512 143.122C63.1022 143.122 63.5714 142.891 63.8591 142.428C64.1462 141.951 64.2726 141.221 64.2382 140.238C64.2039 139.255 64.0268 138.532 63.7069 138.07C63.3864 137.593 62.9007 137.354 62.2498 137.354C61.5988 137.354 61.1298 137.593 60.8427 138.07C60.555 138.532 60.4284 139.255 60.4627 140.238C60.4971 141.221 60.6744 141.951 60.9949 142.428C61.3148 142.891 61.8002 143.122 62.4512 143.122ZM73.1227 138.655C72.6598 138.655 72.2861 138.518 72.0017 138.243C71.7173 137.968 71.5672 137.607 71.5516 137.159C71.5354 136.696 71.6602 136.335 71.926 136.075C72.1912 135.8 72.5553 135.663 73.0182 135.663C73.4811 135.663 73.8548 135.8 74.1392 136.075C74.4232 136.335 74.5732 136.696 74.5894 137.159C74.605 137.607 74.4802 137.968 74.2149 138.243C73.9497 138.518 73.5856 138.655 73.1227 138.655ZM73.3696 145.725C72.1689 145.725 71.2059 145.486 70.4804 145.009C69.7544 144.517 69.2131 143.722 68.8565 142.624C68.4999 141.525 68.2898 140.065 68.2262 138.243L68.1807 136.942C68.1166 135.106 68.2248 133.646 68.5051 132.562C68.785 131.463 69.271 130.675 69.9632 130.198C70.6548 129.706 71.601 129.461 72.8016 129.461C73.9878 129.461 74.9439 129.706 75.6699 130.198C76.4098 130.675 76.9581 131.463 77.3147 132.562C77.6708 133.646 77.8809 135.106 77.945 136.942L77.9905 138.243C78.0541 140.065 77.9459 141.525 77.6661 142.624C77.3862 143.722 76.8932 144.517 76.1871 145.009C75.4949 145.486 74.5558 145.725 73.3696 145.725ZM73.2757 143.036C73.7675 143.036 74.1318 142.905 74.3687 142.645C74.6055 142.385 74.7549 141.901 74.817 141.192C74.893 140.47 74.9068 139.414 74.8583 138.026L74.828 137.159C74.7796 135.771 74.6923 134.723 74.5663 134.015C74.4543 133.292 74.2708 132.8 74.0158 132.54C73.7608 132.28 73.3874 132.15 72.8955 132.15C72.4182 132.15 72.0538 132.28 71.8025 132.54C71.5657 132.8 71.4093 133.292 71.3333 134.015C71.2712 134.723 71.2644 135.771 71.3129 137.159L71.3432 138.026C71.3916 139.414 71.4719 140.47 71.5839 141.192C71.7099 141.901 71.9004 142.385 72.1554 142.645C72.4249 142.905 72.7983 143.036 73.2757 143.036ZM79.7807 142.905C80.7275 141.85 81.5264 140.91 82.1775 140.086C82.8281 139.248 83.3516 138.496 83.7479 137.831C84.1436 137.152 84.426 136.537 84.5948 135.988C84.7637 135.439 84.8395 134.918 84.8224 134.427C84.7956 133.66 84.6096 133.097 84.2643 132.735C83.9189 132.374 83.3918 132.193 82.683 132.193C81.7572 132.193 80.6744 132.46 79.4346 132.995L79.3361 130.176C80.4044 129.699 81.7197 129.461 83.282 129.461C84.8587 129.461 86.0291 129.837 86.7931 130.588C87.5566 131.326 87.9661 132.489 88.0216 134.08C88.0449 134.745 87.9746 135.424 87.8107 136.118C87.6609 136.797 87.4105 137.499 87.0596 138.221C86.7088 138.944 86.2647 139.689 85.7272 140.455C85.2043 141.221 84.5736 142.009 83.8352 142.819L83.8383 142.905H88.46L88.5509 145.508H79.8715L79.7807 142.905ZM116.52 138.655C116.057 138.655 115.683 138.518 115.399 138.243C115.114 137.968 114.964 137.607 114.948 137.159C114.932 136.696 115.057 136.335 115.323 136.075C115.588 135.8 115.952 135.663 116.415 135.663C116.878 135.663 117.252 135.8 117.536 136.075C117.82 136.335 117.97 136.696 117.986 137.159C118.002 137.607 117.877 137.968 117.612 138.243C117.347 138.518 116.982 138.655 116.52 138.655ZM116.766 145.725C115.566 145.725 114.603 145.486 113.877 145.009C113.151 144.517 112.61 143.722 112.253 142.624C111.897 141.525 111.687 140.065 111.623 138.243L111.578 136.942C111.513 135.106 111.622 133.646 111.902 132.562C112.182 131.463 112.668 130.675 113.36 130.198C114.052 129.706 114.998 129.461 116.198 129.461C117.385 129.461 118.341 129.706 119.067 130.198C119.807 130.675 120.355 131.463 120.712 132.562C121.068 133.646 121.278 135.106 121.342 136.942L121.387 138.243C121.451 140.065 121.343 141.525 121.063 142.624C120.783 143.722 120.29 144.517 119.584 145.009C118.892 145.486 117.953 145.725 116.766 145.725ZM116.673 143.036C117.164 143.036 117.529 142.905 117.765 142.645C118.002 142.385 118.152 141.901 118.214 141.192C118.29 140.47 118.304 139.414 118.255 138.026L118.225 137.159C118.176 135.771 118.089 134.723 117.963 134.015C117.851 133.292 117.668 132.8 117.413 132.54C117.158 132.28 116.784 132.15 116.292 132.15C115.815 132.15 115.451 132.28 115.199 132.54C114.963 132.8 114.806 133.292 114.73 134.015C114.668 134.723 114.661 135.771 114.71 137.159L114.74 138.026C114.788 139.414 114.869 140.47 114.981 141.192C115.107 141.901 115.297 142.385 115.552 142.645C115.822 142.905 116.195 143.036 116.673 143.036ZM127.048 129.461C128.277 129.461 129.261 129.67 129.999 130.09C130.737 130.509 131.282 131.195 131.633 132.15C131.999 133.104 132.21 134.376 132.265 135.966C132.343 138.193 132.118 140.021 131.589 141.453C131.06 142.884 130.201 143.946 129.01 144.64C127.833 145.334 126.284 145.696 124.361 145.725L124.267 143.036C125.149 143.036 125.926 142.898 126.596 142.624C127.28 142.334 127.824 141.944 128.226 141.453C128.628 140.947 128.846 140.368 128.881 139.718H128.795C128.397 139.935 128.019 140.086 127.66 140.173C127.302 140.26 126.913 140.303 126.493 140.303C125.105 140.303 124.063 139.884 123.368 139.046C122.687 138.193 122.316 136.877 122.254 135.099C122.184 133.089 122.517 131.651 123.253 130.783C124.004 129.902 125.268 129.461 127.048 129.461ZM127.117 132.063C126.466 132.063 125.997 132.301 125.71 132.779C125.422 133.241 125.295 133.964 125.33 134.947C125.364 135.93 125.542 136.66 125.862 137.137C126.182 137.6 126.667 137.831 127.318 137.831C127.969 137.831 128.439 137.6 128.726 137.137C129.013 136.66 129.14 135.93 129.105 134.947C129.071 133.964 128.894 133.241 128.574 132.779C128.253 132.301 127.768 132.063 127.117 132.063ZM138.544 145.508L138.116 133.256H138.073L133.565 137.137L133.441 133.581L137.991 129.678H141.116L141.669 145.508H138.544ZM149.393 145.508L148.965 133.256H148.922L144.414 137.137L144.29 133.581L148.84 129.678H151.965L152.518 145.508H149.393ZM177.424 142.905C178.37 141.85 179.169 140.91 179.82 140.086C180.471 139.248 180.994 138.496 181.391 137.831C181.786 137.152 182.069 136.537 182.238 135.988C182.407 135.439 182.482 134.918 182.465 134.427C182.438 133.66 182.252 133.097 181.907 132.735C181.562 132.374 181.035 132.193 180.326 132.193C179.4 132.193 178.317 132.46 177.077 132.995L176.979 130.176C178.047 129.699 179.363 129.461 180.925 129.461C182.502 129.461 183.672 129.837 184.436 130.588C185.199 131.326 185.609 132.489 185.664 134.08C185.688 134.745 185.617 135.424 185.454 136.118C185.304 136.797 185.053 137.499 184.703 138.221C184.352 138.944 183.908 139.689 183.37 140.455C182.847 141.221 182.216 142.009 181.478 142.819L181.481 142.905H186.103L186.194 145.508H177.514L177.424 142.905ZM192.464 138.655C192.001 138.655 191.627 138.518 191.343 138.243C191.059 137.968 190.908 137.607 190.893 137.159C190.877 136.696 191.001 136.335 191.267 136.075C191.532 135.8 191.897 135.663 192.359 135.663C192.822 135.663 193.196 135.8 193.48 136.075C193.764 136.335 193.914 136.696 193.931 137.159C193.946 137.607 193.821 137.968 193.556 138.243C193.291 138.518 192.927 138.655 192.464 138.655ZM192.711 145.725C191.51 145.725 190.547 145.486 189.822 145.009C189.096 144.517 188.554 143.722 188.198 142.624C187.841 141.525 187.631 140.065 187.567 138.243L187.522 136.942C187.458 135.106 187.566 133.646 187.846 132.562C188.126 131.463 188.612 130.675 189.304 130.198C189.996 129.706 190.942 129.461 192.143 129.461C193.329 129.461 194.285 129.706 195.011 130.198C195.751 130.675 196.299 131.463 196.656 132.562C197.012 133.646 197.222 135.106 197.286 136.942L197.332 138.243C197.395 140.065 197.287 141.525 197.007 142.624C196.727 143.722 196.234 144.517 195.528 145.009C194.836 145.486 193.897 145.725 192.711 145.725ZM192.617 143.036C193.109 143.036 193.473 142.905 193.71 142.645C193.947 142.385 194.096 141.901 194.158 141.192C194.234 140.47 194.248 139.414 194.2 138.026L194.169 137.159C194.121 135.771 194.034 134.723 193.908 134.015C193.796 133.292 193.612 132.8 193.357 132.54C193.102 132.28 192.729 132.15 192.237 132.15C191.759 132.15 191.395 132.28 191.144 132.54C190.907 132.8 190.751 133.292 190.675 134.015C190.612 134.723 190.606 135.771 190.654 137.159L190.684 138.026C190.733 139.414 190.813 140.47 190.925 141.192C191.051 141.901 191.242 142.385 191.497 142.645C191.766 142.905 192.14 143.036 192.617 143.036ZM203.639 145.508L203.211 133.256H203.168L198.66 137.137L198.536 133.581L203.086 129.678H206.211L206.764 145.508H203.639ZM213.841 129.461C215.071 129.461 216.055 129.67 216.793 130.09C217.53 130.509 218.075 131.195 218.427 132.15C218.793 133.104 219.004 134.376 219.059 135.966C219.137 138.193 218.911 140.021 218.383 141.453C217.854 142.884 216.994 143.946 215.803 144.64C214.627 145.334 213.077 145.696 211.154 145.725L211.061 143.036C211.943 143.036 212.719 142.898 213.39 142.624C214.074 142.334 214.617 141.944 215.02 141.453C215.421 140.947 215.64 140.368 215.675 139.718H215.588C215.191 139.935 214.813 140.086 214.454 140.173C214.095 140.26 213.706 140.303 213.287 140.303C211.898 140.303 210.857 139.884 210.162 139.046C209.481 138.193 209.11 136.877 209.048 135.099C208.977 133.089 209.31 131.651 210.047 130.783C210.797 129.902 212.062 129.461 213.841 129.461ZM213.91 132.063C213.26 132.063 212.79 132.301 212.503 132.779C212.216 133.241 212.089 133.964 212.123 134.947C212.158 135.93 212.335 136.66 212.656 137.137C212.976 137.6 213.461 137.831 214.112 137.831C214.763 137.831 215.232 137.6 215.52 137.137C215.807 136.66 215.933 135.93 215.899 134.947C215.865 133.964 215.687 133.241 215.368 132.779C215.047 132.301 214.561 132.063 213.91 132.063ZM242.519 142.905C243.466 141.85 244.265 140.91 244.916 140.086C245.566 139.248 246.09 138.496 246.486 137.831C246.882 137.152 247.164 136.537 247.333 135.988C247.502 135.439 247.578 134.918 247.56 134.427C247.534 133.66 247.348 133.097 247.002 132.735C246.657 132.374 246.13 132.193 245.421 132.193C244.495 132.193 243.413 132.46 242.173 132.995L242.074 130.176C243.142 129.699 244.458 129.461 246.02 129.461C247.597 129.461 248.767 129.837 249.531 130.588C250.295 131.326 250.704 132.489 250.76 134.08C250.783 134.745 250.713 135.424 250.549 136.118C250.399 136.797 250.149 137.499 249.798 138.221C249.447 138.944 249.003 139.689 248.465 140.455C247.942 141.221 247.312 142.009 246.573 142.819L246.576 142.905H251.198L251.289 145.508H242.61L242.519 142.905ZM257.559 138.655C257.096 138.655 256.723 138.518 256.438 138.243C256.154 137.968 256.004 137.607 255.988 137.159C255.972 136.696 256.097 136.335 256.362 136.075C256.628 135.8 256.992 135.663 257.455 135.663C257.918 135.663 258.291 135.8 258.576 136.075C258.86 136.335 259.01 136.696 259.026 137.159C259.042 137.607 258.917 137.968 258.651 138.243C258.386 138.518 258.022 138.655 257.559 138.655ZM257.806 145.725C256.605 145.725 255.642 145.486 254.917 145.009C254.191 144.517 253.65 143.722 253.293 142.624C252.936 141.525 252.726 140.065 252.663 138.243L252.617 136.942C252.553 135.106 252.661 133.646 252.942 132.562C253.222 131.463 253.708 130.675 254.4 130.198C255.091 129.706 256.037 129.461 257.238 129.461C258.424 129.461 259.38 129.706 260.106 130.198C260.846 130.675 261.395 131.463 261.751 132.562C262.107 133.646 262.317 135.106 262.382 136.942L262.427 138.243C262.491 140.065 262.382 141.525 262.103 142.624C261.823 143.722 261.33 144.517 260.624 145.009C259.931 145.486 258.992 145.725 257.806 145.725ZM257.712 143.036C258.204 143.036 258.568 142.905 258.805 142.645C259.042 142.385 259.191 141.901 259.254 141.192C259.33 140.47 259.343 139.414 259.295 138.026L259.265 137.159C259.216 135.771 259.129 134.723 259.003 134.015C258.891 133.292 258.707 132.8 258.452 132.54C258.197 132.28 257.824 132.15 257.332 132.15C256.855 132.15 256.49 132.28 256.239 132.54C256.002 132.8 255.846 133.292 255.77 134.015C255.708 134.723 255.701 135.771 255.749 137.159L255.78 138.026C255.828 139.414 255.908 140.47 256.02 141.192C256.146 141.901 256.337 142.385 256.592 142.645C256.861 142.905 257.235 143.036 257.712 143.036ZM264.217 142.905C265.164 141.85 265.963 140.91 266.614 140.086C267.265 139.248 267.788 138.496 268.184 137.831C268.58 137.152 268.862 136.537 269.031 135.988C269.2 135.439 269.276 134.918 269.259 134.427C269.232 133.66 269.046 133.097 268.701 132.735C268.355 132.374 267.828 132.193 267.12 132.193C266.194 132.193 265.111 132.46 263.871 132.995L263.773 130.176C264.841 129.699 266.156 129.461 267.718 129.461C269.295 129.461 270.466 129.837 271.23 130.588C271.993 131.326 272.403 132.489 272.458 134.08C272.481 134.745 272.411 135.424 272.247 136.118C272.097 136.797 271.847 137.499 271.496 138.221C271.145 138.944 270.701 139.689 270.164 140.455C269.641 141.221 269.01 142.009 268.272 142.819L268.275 142.905H272.897L272.987 145.508H264.308L264.217 142.905ZM279.584 145.508L279.156 133.256H279.112L274.605 137.137L274.48 133.581L279.031 129.678H282.155L282.708 145.508H279.584Z" fill="white"/>
<path d="M349.806 201.615C349.783 200.955 350.3 200.419 350.962 200.419H361.137C361.799 200.419 362.353 200.955 362.376 201.615L362.642 209.235C362.658 209.696 362.408 210.117 361.998 210.315L356.994 212.736C356.674 212.891 356.296 212.891 355.965 212.736L350.792 210.315C350.369 210.117 350.088 209.696 350.072 209.235L349.806 201.615Z" fill="white"/>
<path d="M368.961 201.615C368.938 200.955 369.455 200.419 370.116 200.419H373.109C373.77 200.419 374.325 200.955 374.348 201.615L374.431 204.008C374.454 204.669 373.937 205.205 373.276 205.205H370.283C369.622 205.205 369.067 204.669 369.044 204.008L368.961 201.615Z" fill="white"/>
<path d="M380.932 201.615C380.909 200.955 381.426 200.419 382.088 200.419H392.263C392.925 200.419 393.479 200.955 393.502 201.615L393.753 208.794C393.776 209.455 393.259 209.99 392.598 209.99H382.422C381.761 209.99 381.206 209.455 381.183 208.794L380.932 201.615Z" fill="white"/>
<path d="M350.245 214.178C350.222 213.517 350.739 212.981 351.4 212.981H361.576C362.237 212.981 362.792 213.517 362.815 214.178L363.066 221.356C363.089 222.017 362.571 222.553 361.91 222.553H351.734C351.073 222.553 350.519 222.017 350.496 221.356L350.245 214.178Z" fill="white"/>
<path d="M365.641 209.392C365.618 208.731 366.135 208.196 366.796 208.196H376.972C377.633 208.196 378.188 208.731 378.211 209.392L378.796 226.142C378.819 226.803 378.302 227.338 377.64 227.338H367.465C366.803 227.338 366.249 226.803 366.226 226.142L365.641 209.392Z" fill="white"/>
<path d="M381.371 214.178C381.348 213.517 381.865 212.981 382.526 212.981H392.702C393.363 212.981 393.918 213.517 393.941 214.178L394.192 221.356C394.215 222.017 393.697 222.553 393.036 222.553H382.861C382.199 222.553 381.645 222.017 381.622 221.356L381.371 214.178Z" fill="white"/>
<path d="M350.684 226.74C350.66 226.08 351.178 225.544 351.839 225.544H362.015C362.676 225.544 363.231 226.08 363.254 226.74L363.504 233.919C363.527 234.58 363.01 235.115 362.349 235.115H352.173C351.512 235.115 350.957 234.58 350.934 233.919L350.684 226.74Z" fill="white"/>
<path d="M370.005 231.526C369.982 230.865 370.499 230.33 371.161 230.33H374.153C374.815 230.33 375.369 230.865 375.392 231.526L375.476 233.919C375.499 234.58 374.982 235.115 374.321 235.115H371.328C370.666 235.115 370.112 234.58 370.089 233.919L370.005 231.526Z" fill="white"/>
<path d="M381.794 226.299C381.778 225.838 382.029 225.417 382.439 225.219L387.442 222.798C387.762 222.643 388.141 222.643 388.472 222.798L393.644 225.219C394.068 225.417 394.348 225.838 394.364 226.299L394.63 233.919C394.653 234.58 394.136 235.115 393.475 235.115H383.299C382.638 235.115 382.083 234.58 382.06 233.919L381.794 226.299Z" fill="white"/>
<defs>
<filter id="filter0_b_18_34" x="-12.8549" y="-12.0436" width="447.067" height="288.309" filterUnits="userSpaceOnUse" color-interpolation-filters="sRGB">
<feFlood flood-opacity="0" result="BackgroundImageFix"/>
<feGaussianBlur in="BackgroundImageFix" stdDeviation="6.47968"/>
<feComposite in2="SourceAlpha" operator="in" result="effect1_backgroundBlur_18_34"/>
<feBlend mode="normal" in="SourceGraphic" in2="effect1_backgroundBlur_18_34" result="shape"/>
</filter>
<linearGradient id="paint0_linear_18_34" x1="30.3778" y1="11.9341" x2="250.617" y2="260.381" gradientUnits="userSpaceOnUse">
<stop stop-color="white"/>
<stop offset="1" stop-color="white" stop-opacity="0.55"/>
</linearGradient>
</defs>
</svg>
