<svg width="123" height="33" viewBox="0 0 123 33" fill="none" xmlns="http://www.w3.org/2000/svg">
<path d="M19.4876 15.1185C19.455 11.5861 22.4541 9.86754 22.5913 9.78753C20.8927 7.37304 18.2601 7.04314 17.3349 7.01684C15.1238 6.78997 12.979 8.30683 11.8527 8.30683C10.7038 8.30683 8.96934 7.03876 7.09996 7.07602C4.69437 7.11219 2.44391 8.47014 1.20964 10.5788C-1.33758 14.8785 0.56216 21.1969 3.00259 24.6723C4.22337 26.3744 5.64986 28.2749 7.517 28.208C9.34367 28.1346 10.026 27.0726 12.2304 27.0726C14.4145 27.0726 15.0552 28.208 16.9595 28.1653C18.9199 28.1346 20.1542 26.4555 21.3323 24.7381C22.743 22.7872 23.3096 20.8659 23.332 20.7673C23.2859 20.7519 19.5247 19.3523 19.4876 15.1185Z" fill="white"/>
<path d="M15.8905 4.73058C16.8729 3.53265 17.5451 1.90289 17.3585 0.249023C15.9365 0.3104 14.1582 1.20803 13.1342 2.37965C12.2281 3.41209 11.4188 5.10431 11.6279 6.69571C13.2252 6.81189 14.8653 5.90988 15.8905 4.73058Z" fill="white"/>
<path d="M40.7579 4.40508C40.7579 5.69507 40.3611 6.66613 39.5686 7.31825C38.8346 7.91996 37.7914 8.22136 36.4402 8.22136C35.7703 8.22136 35.197 8.19286 34.717 8.13587V1.08747C35.3431 0.988834 36.0176 0.938418 36.746 0.938418C38.0331 0.938418 39.0032 1.21132 39.6574 1.75713C40.3903 2.37418 40.7579 3.25646 40.7579 4.40508ZM39.5158 4.43686C39.5158 3.60061 39.2887 2.95945 38.8346 2.51228C38.3804 2.0662 37.7172 1.84262 36.8438 1.84262C36.4728 1.84262 36.157 1.86673 35.895 1.91715V7.27551C36.0401 7.29743 36.3053 7.30729 36.6909 7.30729C37.5924 7.30729 38.2883 7.06288 38.7784 6.57406C39.2685 6.08525 39.5158 5.37285 39.5158 4.43686Z" fill="white"/>
<path d="M47.3441 5.53176C47.3441 6.32636 47.1114 6.97739 46.646 7.48813C46.1581 8.01311 45.5118 8.27506 44.7047 8.27506C43.9268 8.27506 43.3074 8.02407 42.8454 7.51991C42.3845 7.01685 42.1541 6.38226 42.1541 5.61725C42.1541 4.81717 42.3912 4.16066 42.8679 3.65102C43.3445 3.14138 43.9852 2.88601 44.7923 2.88601C45.5702 2.88601 46.1952 3.137 46.6685 3.64006C47.1181 4.12888 47.3441 4.76018 47.3441 5.53176ZM46.1222 5.56903C46.1222 5.09227 46.0165 4.68346 45.8063 4.3426C45.559 3.9305 45.2071 3.72445 44.7496 3.72445C44.2764 3.72445 43.9167 3.9305 43.6694 4.3426C43.458 4.68346 43.3535 5.09884 43.3535 5.58985C43.3535 6.06661 43.4591 6.47542 43.6694 6.81628C43.9245 7.22837 44.2797 7.43442 44.7384 7.43442C45.188 7.43442 45.541 7.22509 45.795 6.80532C46.0131 6.45789 46.1222 6.04579 46.1222 5.56903Z" fill="white"/>
<path d="M56.175 2.99123L54.517 8.15778H53.4378L52.751 5.91427C52.5768 5.35421 52.4351 4.79744 52.325 4.24505H52.3036C52.2013 4.81278 52.0597 5.36846 51.8776 5.91427L51.148 8.15778H50.0565L48.4974 2.99123H49.708L50.3072 5.44737C50.4522 6.02825 50.5714 6.58173 50.6669 7.10562H50.6883C50.776 6.6738 50.921 6.1236 51.1255 5.45833L51.8776 2.99232H52.8376L53.5581 5.40572C53.7323 5.99428 53.874 6.56091 53.983 7.10672H54.0156C54.0954 6.57516 54.2157 6.00852 54.3753 5.40572L55.0183 2.99232H56.175V2.99123Z" fill="white"/>
<path d="M62.2823 8.15779H61.1042V5.19859C61.1042 4.28671 60.749 3.83077 60.0363 3.83077C59.6867 3.83077 59.4046 3.95572 59.1854 4.2067C58.9684 4.45769 58.8583 4.75361 58.8583 5.09227V8.1567H57.6802V4.46755C57.6802 4.01381 57.6656 3.5217 57.6375 2.98904H58.6728L58.7279 3.7968H58.7605C58.8976 3.54581 59.1022 3.33867 59.3709 3.17317C59.6901 2.98028 60.0476 2.88273 60.4388 2.88273C60.9334 2.88273 61.3448 3.03836 61.6719 3.35072C62.0788 3.73323 62.2823 4.30425 62.2823 5.06268V8.15779Z" fill="white"/>
<path d="M65.531 8.15778H64.354V0.620572H65.531V8.15778Z" fill="white"/>
<path d="M72.4667 5.53176C72.4667 6.32636 72.234 6.97739 71.7686 7.48813C71.2808 8.01311 70.6333 8.27506 69.8273 8.27506C69.0483 8.27506 68.4289 8.02407 67.968 7.51991C67.5071 7.01685 67.2767 6.38226 67.2767 5.61725C67.2767 4.81717 67.5139 4.16066 67.9905 3.65102C68.4671 3.14138 69.1079 2.88601 69.9138 2.88601C70.6929 2.88601 71.3167 3.137 71.7911 3.64006C72.2408 4.12888 72.4667 4.76018 72.4667 5.53176ZM71.2437 5.56903C71.2437 5.09227 71.138 4.68346 70.9278 4.3426C70.6816 3.9305 70.3286 3.72445 69.8723 3.72445C69.3979 3.72445 69.0382 3.9305 68.792 4.3426C68.5807 4.68346 68.4761 5.09884 68.4761 5.58985C68.4761 6.06661 68.5818 6.47542 68.792 6.81628C69.0472 7.22837 69.4024 7.43442 69.861 7.43442C70.3107 7.43442 70.6625 7.22509 70.9165 6.80532C71.1357 6.45789 71.2437 6.04579 71.2437 5.56903Z" fill="white"/>
<path d="M78.1682 8.15778H77.1104L77.0227 7.56266H76.9901C76.6281 8.03722 76.1122 8.27506 75.4422 8.27506C74.942 8.27506 74.5373 8.11833 74.2327 7.80706C73.9561 7.5243 73.8179 7.17248 73.8179 6.7549C73.8179 6.1236 74.0877 5.64246 74.6306 5.30927C75.1724 4.97609 75.9346 4.81278 76.9159 4.82046V4.72401C76.9159 4.04339 76.5494 3.70363 75.8154 3.70363C75.2927 3.70363 74.8318 3.83186 74.4339 4.08614L74.1944 3.33209C74.6868 3.03507 75.2949 2.88601 76.0121 2.88601C77.397 2.88601 78.0917 3.59841 78.0917 5.02322V6.92588C78.0917 7.4421 78.1176 7.8531 78.1682 8.15778ZM76.9451 6.38226V5.58547C75.6457 5.56355 74.9959 5.91098 74.9959 6.62667C74.9959 6.89629 75.0701 7.09795 75.2219 7.23276C75.3736 7.36757 75.567 7.43442 75.7974 7.43442C76.056 7.43442 76.2976 7.35441 76.518 7.19549C76.7394 7.03548 76.8754 6.83272 76.926 6.58392C76.9384 6.52803 76.9451 6.46008 76.9451 6.38226Z" fill="white"/>
<path d="M84.8622 8.15778H83.8168L83.7617 7.32811H83.7291C83.3952 7.95941 82.8265 8.27505 82.0272 8.27505C81.3887 8.27505 80.857 8.03065 80.4355 7.54183C80.0139 7.05301 79.8037 6.41843 79.8037 5.63917C79.8037 4.80292 80.0319 4.12559 80.4906 3.60827C80.9346 3.12603 81.4787 2.88491 82.1261 2.88491C82.8377 2.88491 83.3357 3.11836 83.6189 3.58636H83.6414V0.620572H84.8206V6.76586C84.8206 7.26892 84.8341 7.73253 84.8622 8.15778ZM83.6414 5.97893V5.11747C83.6414 4.96841 83.6302 4.84785 83.6088 4.75579C83.5425 4.4796 83.3997 4.24724 83.1828 4.05983C82.9636 3.87241 82.6994 3.77816 82.3948 3.77816C81.9553 3.77816 81.6113 3.94804 81.3584 4.28889C81.1077 4.62975 80.9807 5.06486 80.9807 5.59642C80.9807 6.10716 81.101 6.52145 81.3426 6.84039C81.5978 7.18015 81.9418 7.35003 82.3723 7.35003C82.759 7.35003 83.0681 7.20864 83.3031 6.92478C83.5301 6.66283 83.6414 6.34719 83.6414 5.97893Z" fill="white"/>
<path d="M94.9376 5.53176C94.9376 6.32636 94.7049 6.97739 94.2395 7.48813C93.7516 8.01311 93.1064 8.27506 92.2982 8.27506C91.5214 8.27506 90.902 8.02407 90.4389 7.51991C89.978 7.01685 89.7476 6.38226 89.7476 5.61725C89.7476 4.81717 89.9848 4.16066 90.4614 3.65102C90.938 3.14138 91.5787 2.88601 92.387 2.88601C93.1637 2.88601 93.7898 3.137 94.262 3.64006C94.7116 4.12888 94.9376 4.76018 94.9376 5.53176ZM93.7168 5.56903C93.7168 5.09227 93.6111 4.68346 93.4009 4.3426C93.1525 3.9305 92.8018 3.72445 92.3431 3.72445C91.871 3.72445 91.5113 3.9305 91.2629 4.3426C91.0515 4.68346 90.947 5.09884 90.947 5.58985C90.947 6.06661 91.0527 6.47542 91.2629 6.81628C91.518 7.22837 91.8733 7.43442 92.3319 7.43442C92.7815 7.43442 93.1356 7.22509 93.3897 6.80532C93.6066 6.45789 93.7168 6.04579 93.7168 5.56903Z" fill="white"/>
<path d="M101.272 8.15779H100.095V5.19859C100.095 4.28671 99.7397 3.83077 99.0259 3.83077C98.6763 3.83077 98.3942 3.95572 98.1761 4.2067C97.958 4.45769 97.849 4.75361 97.849 5.09227V8.1567H96.6698V4.46755C96.6698 4.01381 96.6563 3.5217 96.6282 2.98904H97.6624L97.7175 3.7968H97.7501C97.8883 3.54581 98.0929 3.33867 98.3605 3.17317C98.6808 2.98028 99.0372 2.88273 99.4295 2.88273C99.923 2.88273 100.334 3.03836 100.661 3.35072C101.07 3.73323 101.272 4.30425 101.272 5.06268V8.15779Z" fill="white"/>
<path d="M109.2 3.8516H107.903V6.36144C107.903 6.99931 108.133 7.31825 108.59 7.31825C108.801 7.31825 108.977 7.30072 109.115 7.26455L109.145 8.13587C108.912 8.22136 108.607 8.2641 108.23 8.2641C107.765 8.2641 107.403 8.12601 107.141 7.84981C106.878 7.57362 106.747 7.10892 106.747 6.45679V3.8516H105.973V2.99123H106.747V2.04429L107.902 1.70453V2.99014H109.199V3.8516H109.2Z" fill="white"/>
<path d="M115.437 8.15778H114.258V5.2205C114.258 4.29437 113.902 3.83076 113.191 3.83076C112.644 3.83076 112.271 4.09928 112.067 4.63633C112.032 4.74921 112.012 4.88731 112.012 5.04952V8.15669H110.835V0.620572H112.012V3.73432H112.034C112.405 3.16768 112.937 2.88491 113.626 2.88491C114.114 2.88491 114.517 3.04055 114.838 3.35291C115.237 3.74199 115.437 4.32068 115.437 5.08569V8.15778Z" fill="white"/>
<path d="M121.87 5.33009C121.87 5.53614 121.854 5.70931 121.826 5.85069H118.293C118.309 6.36143 118.477 6.75051 118.805 7.02013C119.104 7.26125 119.489 7.38181 119.961 7.38181C120.484 7.38181 120.961 7.3007 121.39 7.1374L121.574 7.93529C121.072 8.14791 120.481 8.25423 119.796 8.25423C118.975 8.25423 118.329 8.01859 117.861 7.54731C117.392 7.07603 117.159 6.44363 117.159 5.65013C117.159 4.87087 117.376 4.22203 117.813 3.70472C118.269 3.15234 118.887 2.87614 119.666 2.87614C120.428 2.87614 121.007 3.15234 121.398 3.70472C121.714 4.14312 121.87 4.68564 121.87 5.33009ZM120.746 5.03308C120.755 4.69222 120.677 4.39849 120.518 4.15079C120.313 3.83186 120.002 3.67184 119.58 3.67184C119.196 3.67184 118.882 3.82747 118.643 4.13983C118.447 4.38863 118.331 4.68564 118.293 5.03308H120.746Z" fill="white"/>
<path d="M45.9232 27.9636H43.3703L41.9719 23.6793H37.1113L35.7792 27.9636H33.2938L38.1095 13.378H41.0839L45.9232 27.9636ZM41.5504 21.8819L40.2858 18.0733C40.152 17.6842 39.9013 16.768 39.5315 15.3256H39.4865C39.3393 15.946 39.1021 16.8622 38.7761 18.0733L37.534 21.8819H41.5504Z" fill="white"/>
<path d="M58.3074 22.5757C58.3074 24.3644 57.8117 25.7782 56.8202 26.8161C55.9322 27.7401 54.8294 28.2015 53.5131 28.2015C52.0923 28.2015 51.0716 27.7039 50.4499 26.7087H50.405V32.249H48.0084V20.9087C48.0084 19.7842 47.978 18.6301 47.9196 17.4464H50.0273L50.161 19.1134H50.206C51.0052 17.8574 52.2182 17.2305 53.8459 17.2305C55.1183 17.2305 56.1806 17.7204 57.0304 18.7013C57.8825 19.6833 58.3074 20.9744 58.3074 22.5757ZM55.8659 22.6612C55.8659 21.6375 55.6298 20.7936 55.1554 20.1294C54.6372 19.4368 53.9414 19.0904 53.0691 19.0904C52.4778 19.0904 51.9405 19.2833 51.4605 19.6636C50.9794 20.0472 50.6646 20.5481 50.5174 21.1684C50.4432 21.4578 50.4061 21.6945 50.4061 21.8808V23.6344C50.4061 24.3995 50.6467 25.045 51.1278 25.5722C51.6089 26.0994 52.2339 26.3624 53.0028 26.3624C53.9054 26.3624 54.608 26.0226 55.1105 25.3453C55.6141 24.6669 55.8659 23.7725 55.8659 22.6612Z" fill="white"/>
<path d="M70.7142 22.5757C70.7142 24.3644 70.2185 25.7782 69.2259 26.8161C68.339 27.7401 67.2362 28.2015 65.9199 28.2015C64.499 28.2015 63.4783 27.7039 62.8578 26.7087H62.8129V32.249H60.4163V20.9087C60.4163 19.7842 60.3859 18.6301 60.3275 17.4464H62.4352L62.5689 19.1134H62.6139C63.412 17.8574 64.6249 17.2305 66.2538 17.2305C67.5251 17.2305 68.5874 17.7204 69.4395 18.7013C70.2882 19.6833 70.7142 20.9744 70.7142 22.5757ZM68.2726 22.6612C68.2726 21.6375 68.0355 20.7936 67.5611 20.1294C67.0429 19.4368 66.3493 19.0904 65.4759 19.0904C64.8835 19.0904 64.3473 19.2833 63.8661 19.6636C63.385 20.0472 63.0714 20.5481 62.9241 21.1684C62.8511 21.4578 62.8129 21.6945 62.8129 21.8808V23.6344C62.8129 24.3995 63.0534 25.045 63.5323 25.5722C64.0134 26.0983 64.6384 26.3624 65.4095 26.3624C66.3122 26.3624 67.0148 26.0226 67.5172 25.3453C68.0208 24.6669 68.2726 23.7725 68.2726 22.6612Z" fill="white"/>
<path d="M84.5857 23.8734C84.5857 25.114 84.1439 26.1235 83.257 26.9027C82.2824 27.7543 80.9256 28.1796 79.1821 28.1796C77.5724 28.1796 76.2819 27.8771 75.305 27.271L75.8603 25.3234C76.9125 25.9437 78.067 26.255 79.3248 26.255C80.2275 26.255 80.9301 26.0555 81.4348 25.6588C81.9373 25.262 82.1879 24.7293 82.1879 24.0652C82.1879 23.4733 81.9811 22.9746 81.5663 22.5702C81.1538 22.1658 80.4647 21.7899 79.5024 21.4424C76.8833 20.49 75.5748 19.0948 75.5748 17.2601C75.5748 16.0611 76.0335 15.0779 76.9519 14.3129C77.8669 13.5468 79.0876 13.1643 80.6142 13.1643C81.9755 13.1643 83.1063 13.3956 84.009 13.857L83.4098 15.7618C82.5667 15.3147 81.6135 15.0911 80.5467 15.0911C79.7037 15.0911 79.0449 15.2939 78.5728 15.6972C78.1738 16.0578 77.9737 16.4973 77.9737 17.0179C77.9737 17.5944 78.2019 18.0711 78.6605 18.446C79.0595 18.7923 79.7846 19.1671 80.8368 19.5716C82.1239 20.0768 83.0692 20.6676 83.6774 21.3449C84.2833 22.02 84.5857 22.865 84.5857 23.8734Z" fill="white"/>
<path d="M92.5095 19.2H89.8678V24.3063C89.8678 25.605 90.3332 26.2539 91.2662 26.2539C91.6945 26.2539 92.0497 26.2177 92.3307 26.1454L92.3971 27.9198C91.9249 28.0919 91.3033 28.1784 90.5333 28.1784C89.5868 28.1784 88.8471 27.8968 88.3132 27.3345C87.7815 26.7712 87.5139 25.8264 87.5139 24.4992V19.1978H85.9402V17.4442H87.5139V15.5185L89.8678 14.8258V17.4442H92.5095V19.2Z" fill="white"/>
<path d="M104.428 22.6184C104.428 24.235 103.954 25.5623 103.007 26.6002C102.015 27.6688 100.697 28.2015 99.0551 28.2015C97.4724 28.2015 96.2123 27.6896 95.2725 26.666C94.3327 25.6423 93.8629 24.3501 93.8629 22.7927C93.8629 21.1629 94.3462 19.828 95.3163 18.7901C96.2842 17.7511 97.5904 17.2316 99.2327 17.2316C100.815 17.2316 102.089 17.7434 103.05 18.7682C103.97 19.7623 104.428 21.0457 104.428 22.6184ZM101.942 22.6941C101.942 21.7241 101.729 20.8922 101.299 20.1985C100.796 19.3589 100.078 18.9403 99.1473 18.9403C98.1839 18.9403 97.4521 19.36 96.9497 20.1985C96.5191 20.8933 96.3067 21.7383 96.3067 22.7379C96.3067 23.7079 96.5191 24.5397 96.9497 25.2324C97.4679 26.0719 98.1918 26.4906 99.1259 26.4906C100.041 26.4906 100.759 26.0632 101.277 25.2105C101.719 24.5036 101.942 23.6629 101.942 22.6941Z" fill="white"/>
<path d="M112.218 19.5014C111.981 19.4587 111.728 19.4368 111.463 19.4368C110.62 19.4368 109.968 19.7469 109.509 20.3684C109.11 20.9164 108.91 21.609 108.91 22.4453V27.9636H106.515L106.537 20.7585C106.537 19.5464 106.507 18.4427 106.447 17.4475H108.535L108.622 19.4598H108.689C108.942 18.7682 109.341 18.2114 109.887 17.7938C110.421 17.4179 110.998 17.2305 111.619 17.2305C111.841 17.2305 112.041 17.2458 112.218 17.2732V19.5014Z" fill="white"/>
<path d="M122.937 22.2074C122.937 22.6261 122.909 22.979 122.849 23.2673H115.659C115.687 24.3063 116.035 25.1009 116.702 25.6489C117.308 26.1388 118.092 26.3843 119.054 26.3843C120.119 26.3843 121.09 26.2188 121.963 25.8867L122.339 27.5088C121.318 27.9428 120.113 28.1587 118.722 28.1587C117.05 28.1587 115.737 27.6787 114.781 26.7197C113.828 25.7607 113.35 24.4729 113.35 22.8574C113.35 21.2714 113.794 19.9508 114.684 18.8975C115.614 17.773 116.872 17.2108 118.455 17.2108C120.01 17.2108 121.187 17.773 121.986 18.8975C122.619 19.7907 122.937 20.8955 122.937 22.2074ZM120.651 21.6013C120.667 20.9087 120.511 20.3102 120.186 19.805C119.771 19.1551 119.134 18.8306 118.276 18.8306C117.493 18.8306 116.855 19.1474 116.369 19.7831C115.97 20.2883 115.732 20.8944 115.659 21.6002H120.651V21.6013Z" fill="white"/>
</svg>
