<svg width="530" height="262" viewBox="0 0 530 262" fill="none" xmlns="http://www.w3.org/2000/svg">
<g filter="url(#filter0_b_148_2)">
<rect width="435.047" height="274.766" rx="36.6355" transform="matrix(1 0 -0.34202 0.939692 93.9757 2)" fill="white" fill-opacity="0.1"/>
<rect width="435.047" height="274.766" rx="36.6355" transform="matrix(1 0 -0.34202 0.939692 93.9757 2)" stroke="url(#paint0_linear_148_2)" stroke-opacity="0.5" stroke-width="2.28972"/>
</g>
<path d="M71.0864 194.273L75.0882 183.278H77.2199L79.5886 191.17H79.6206L82.4932 183.278H84.4806L80.4788 194.273H78.3471L75.9945 186.381H75.9624L73.0899 194.273H71.0864ZM84.8806 194.423C84.0471 194.423 83.4667 194.213 83.1393 193.791C82.8263 193.359 82.8032 192.777 83.07 192.044C83.4026 191.13 84.0377 190.427 84.9755 189.935C85.9132 189.443 87.082 189.197 88.4818 189.197H89.6518C89.7907 188.816 89.8432 188.524 89.8095 188.324C89.7901 188.113 89.6721 187.967 89.4556 187.887C89.2497 187.806 88.9277 187.766 88.4896 187.766C87.9554 187.766 87.3815 187.817 86.7679 187.917C86.165 188.017 85.5759 188.168 85.0006 188.369L85.2759 186.908C85.8903 186.717 86.5489 186.566 87.2516 186.456C87.9543 186.346 88.6369 186.29 89.2993 186.29C90.1435 186.29 90.7713 186.386 91.1827 186.576C91.6048 186.767 91.8404 187.089 91.8897 187.54C91.9389 187.992 91.8283 188.59 91.5579 189.333L89.7598 194.273H87.8845L88.1974 193.369H88.1654C87.7636 193.68 87.2536 193.936 86.6356 194.137C86.0212 194.328 85.4362 194.423 84.8806 194.423ZM86.1121 192.978C86.5074 192.978 86.8945 192.912 87.2732 192.782C87.6556 192.641 87.985 192.455 88.2614 192.225C88.5378 191.994 88.729 191.733 88.835 191.441L89.1804 190.492H88.2988C87.3799 190.492 86.6433 190.608 86.0891 190.839C85.5492 191.06 85.1952 191.401 85.0271 191.863C84.9029 192.204 84.9324 192.476 85.1158 192.676C85.2991 192.877 85.6312 192.978 86.1121 192.978ZM91.8698 194.273L94.7204 186.441H96.5476L96.2452 187.36H96.2773C96.7007 187.018 97.1537 186.757 97.6362 186.576C98.1224 186.386 98.6433 186.29 99.1989 186.29C99.7439 186.29 100.169 186.386 100.473 186.576C100.792 186.757 100.97 187.018 101.006 187.36H101.038C101.493 186.988 101.961 186.717 102.44 186.546C102.918 186.376 103.441 186.29 104.007 186.29C104.905 186.29 105.474 186.516 105.716 186.968C105.961 187.41 105.91 188.108 105.563 189.062L103.666 194.273H101.759L103.491 189.513C103.707 188.921 103.763 188.489 103.658 188.218C103.554 187.947 103.277 187.812 102.829 187.812C102.294 187.812 101.812 187.977 101.381 188.309C100.951 188.64 100.635 189.082 100.434 189.634L98.7458 194.273H96.8224L98.6041 189.378C98.7904 188.866 98.8189 188.479 98.6896 188.218C98.5639 187.947 98.2926 187.812 97.8759 187.812C97.5553 187.812 97.2323 187.892 96.9066 188.052C96.5917 188.213 96.3048 188.429 96.0458 188.7C95.7976 188.971 95.6095 189.283 95.4816 189.634L93.7931 194.273H91.8698ZM109.737 194.423C108.262 194.423 107.258 194.072 106.723 193.369C106.188 192.666 106.158 191.662 106.633 190.357C107.094 189.092 107.819 188.098 108.808 187.375C109.809 186.652 110.945 186.29 112.216 186.29C113.445 186.29 114.272 186.632 114.697 187.314C115.121 187.997 115.105 188.966 114.648 190.221C114.597 190.362 114.535 190.518 114.462 190.688C114.39 190.859 114.333 190.984 114.293 191.065H107.465L107.953 189.724H113.274L112.838 190.131C113.138 189.308 113.188 188.7 112.988 188.309C112.803 187.907 112.374 187.706 111.701 187.706C110.985 187.706 110.363 187.917 109.836 188.339C109.323 188.75 108.918 189.363 108.622 190.176L108.43 190.703C108.153 191.466 108.16 192.034 108.452 192.405C108.748 192.767 109.329 192.947 110.194 192.947C110.643 192.947 111.138 192.907 111.68 192.827C112.226 192.737 112.722 192.621 113.169 192.481L112.883 193.926C112.422 194.077 111.913 194.198 111.357 194.288C110.801 194.378 110.261 194.423 109.737 194.423Z" fill="#EDEDED"/>
<path d="M107.448 109.433C106.176 109.433 105.163 109.207 104.409 108.755C103.654 108.304 103.185 107.656 103 106.813C102.826 105.969 102.953 104.96 103.381 103.785C103.812 102.6 104.42 101.591 105.204 100.758C106.002 99.9144 106.943 99.2668 108.027 98.8149C109.11 98.3631 110.288 98.1372 111.559 98.1372C113.012 98.1372 114.192 98.4334 115.099 99.0258L114.031 100.683C113.153 100.1 112.147 99.809 111.015 99.809C110.171 99.809 109.38 99.9696 108.644 100.291C107.91 100.602 107.271 101.054 106.724 101.646C106.177 102.239 105.752 102.952 105.448 103.785C105.149 104.609 105.055 105.321 105.167 105.924C105.282 106.516 105.592 106.973 106.094 107.295C106.601 107.606 107.276 107.761 108.12 107.761C109.221 107.761 110.438 107.47 111.772 106.888L111.634 108.545C110.296 109.137 108.901 109.433 107.448 109.433ZM113.319 109.283L116.17 101.451H118.061L117.54 102.927H117.572C117.974 102.585 118.406 102.294 118.867 102.053C119.343 101.802 119.833 101.616 120.336 101.496C120.843 101.365 121.348 101.3 121.85 101.3L121.269 102.897C120.596 102.897 119.938 103.017 119.294 103.258C118.662 103.499 118.105 103.825 117.624 104.237C117.157 104.639 116.832 105.091 116.65 105.593L115.306 109.283H113.319ZM123.861 109.433C122.386 109.433 121.382 109.082 120.847 108.379C120.312 107.676 120.282 106.672 120.757 105.367C121.217 104.101 121.943 103.107 122.932 102.384C123.933 101.662 125.069 101.3 126.34 101.3C127.569 101.3 128.396 101.641 128.82 102.324C129.245 103.007 129.229 103.976 128.772 105.231C128.721 105.372 128.659 105.527 128.586 105.698C128.513 105.869 128.457 105.994 128.417 106.075H121.589L122.077 104.734H127.398L126.962 105.141C127.262 104.317 127.312 103.71 127.112 103.318C126.927 102.917 126.498 102.716 125.825 102.716C125.109 102.716 124.487 102.927 123.96 103.348C123.447 103.76 123.042 104.373 122.746 105.186L122.554 105.713C122.276 106.476 122.284 107.043 122.576 107.415C122.872 107.776 123.452 107.957 124.318 107.957C124.767 107.957 125.262 107.917 125.804 107.837C126.35 107.746 126.846 107.631 127.293 107.49L127.007 108.936C126.546 109.087 126.037 109.207 125.481 109.298C124.924 109.388 124.384 109.433 123.861 109.433ZM132.007 109.433C130.895 109.433 130.16 109.077 129.799 108.364C129.439 107.651 129.493 106.652 129.961 105.367C130.428 104.081 131.102 103.082 131.981 102.369C132.86 101.657 133.856 101.3 134.967 101.3C135.522 101.3 135.992 101.39 136.375 101.571C136.758 101.752 137.04 102.018 137.222 102.369H137.27L138.756 98.2878H140.695L136.694 109.283H134.85L135.153 108.364H135.121C134.686 108.705 134.194 108.971 133.644 109.162C133.108 109.343 132.562 109.433 132.007 109.433ZM133.068 107.927C133.484 107.927 133.882 107.847 134.261 107.686C134.651 107.525 134.993 107.305 135.288 107.023C135.583 106.742 135.794 106.426 135.922 106.075L136.437 104.659C136.569 104.297 136.588 103.981 136.494 103.71C136.404 103.429 136.228 103.208 135.966 103.047C135.704 102.887 135.359 102.806 134.932 102.806C134.258 102.806 133.654 103.027 133.12 103.469C132.595 103.911 132.184 104.543 131.884 105.367C131.584 106.19 131.536 106.823 131.738 107.264C131.951 107.706 132.394 107.927 133.068 107.927ZM142.535 100.065L143.182 98.2878H145.169L144.522 100.065H142.535ZM139.18 109.283L142.014 101.496H144.001L141.167 109.283H139.18ZM147.333 109.433C146.35 109.433 145.709 109.242 145.41 108.861C145.111 108.479 145.118 107.857 145.433 106.993L146.913 102.927H145.053L145.591 101.451H147.45L148.382 98.8902H150.369L149.437 101.451H152.242L151.705 102.927H148.9L147.59 106.526C147.407 107.028 147.365 107.38 147.463 107.581C147.575 107.771 147.855 107.867 148.304 107.867C148.539 107.867 148.792 107.847 149.063 107.807C149.335 107.766 149.584 107.711 149.813 107.641L149.436 109.162C149.036 109.263 148.668 109.333 148.333 109.373C147.998 109.413 147.665 109.433 147.333 109.433ZM161.355 109.433C160.083 109.433 159.07 109.207 158.316 108.755C157.561 108.304 157.092 107.656 156.907 106.813C156.733 105.969 156.86 104.96 157.288 103.785C157.719 102.6 158.327 101.591 159.111 100.758C159.909 99.9144 160.85 99.2668 161.934 98.8149C163.017 98.3631 164.194 98.1372 165.466 98.1372C166.919 98.1372 168.099 98.4334 169.005 99.0258L167.938 100.683C167.06 100.1 166.054 99.809 164.922 99.809C164.077 99.809 163.287 99.9696 162.55 100.291C161.817 100.602 161.177 101.054 160.63 101.646C160.084 102.239 159.659 102.952 159.355 103.785C159.056 104.609 158.962 105.321 159.074 105.924C159.189 106.516 159.498 106.973 160.001 107.295C160.508 107.606 161.183 107.761 162.027 107.761C163.128 107.761 164.345 107.47 165.679 106.888L165.541 108.545C164.203 109.137 162.808 109.433 161.355 109.433ZM169.065 109.433C168.231 109.433 167.651 109.222 167.323 108.801C167.01 108.369 166.987 107.787 167.254 107.054C167.587 106.14 168.222 105.437 169.159 104.945C170.097 104.453 171.266 104.207 172.666 104.207H173.836C173.975 103.825 174.027 103.534 173.993 103.333C173.974 103.123 173.856 102.977 173.64 102.897C173.434 102.816 173.112 102.776 172.674 102.776C172.139 102.776 171.565 102.826 170.952 102.927C170.349 103.027 169.76 103.178 169.185 103.379L169.46 101.918C170.074 101.727 170.733 101.576 171.436 101.466C172.138 101.355 172.821 101.3 173.483 101.3C174.327 101.3 174.955 101.395 175.367 101.586C175.789 101.777 176.024 102.098 176.074 102.55C176.123 103.002 176.012 103.599 175.742 104.342L173.944 109.283H172.069L172.381 108.379H172.349C171.948 108.69 171.438 108.946 170.82 109.147C170.205 109.338 169.62 109.433 169.065 109.433ZM170.296 107.987C170.691 107.987 171.078 107.922 171.457 107.792C171.84 107.651 172.169 107.465 172.445 107.234C172.722 107.003 172.913 106.742 173.019 106.451L173.364 105.502H172.483C171.564 105.502 170.827 105.618 170.273 105.849C169.733 106.07 169.379 106.411 169.211 106.873C169.087 107.214 169.116 107.485 169.3 107.686C169.483 107.887 169.815 107.987 170.296 107.987ZM176.054 109.283L178.904 101.451H180.796L180.274 102.927H180.307C180.709 102.585 181.14 102.294 181.602 102.053C182.078 101.802 182.568 101.616 183.071 101.496C183.578 101.365 184.083 101.3 184.585 101.3L184.004 102.897C183.331 102.897 182.673 103.017 182.029 103.258C181.396 103.499 180.84 103.825 180.359 104.237C179.892 104.639 179.567 105.091 179.384 105.593L178.041 109.283H176.054ZM185.538 109.433C184.426 109.433 183.691 109.077 183.33 108.364C182.97 107.651 183.024 106.652 183.492 105.367C183.959 104.081 184.633 103.082 185.512 102.369C186.391 101.657 187.387 101.3 188.498 101.3C189.054 101.3 189.523 101.39 189.906 101.571C190.289 101.752 190.571 102.018 190.753 102.369H190.801L192.287 98.2878H194.226L190.225 109.283H188.381L188.684 108.364H188.652C188.218 108.705 187.725 108.971 187.175 109.162C186.639 109.343 186.093 109.433 185.538 109.433ZM186.599 107.927C187.016 107.927 187.413 107.847 187.792 107.686C188.182 107.525 188.524 107.305 188.819 107.023C189.114 106.742 189.325 106.426 189.453 106.075L189.968 104.659C190.1 104.297 190.119 103.981 190.025 103.71C189.935 103.429 189.759 103.208 189.497 103.047C189.235 102.887 188.89 102.806 188.463 102.806C187.79 102.806 187.186 103.027 186.651 103.469C186.127 103.911 185.715 104.543 185.415 105.367C185.115 106.19 185.067 106.823 185.269 107.264C185.482 107.706 185.926 107.927 186.599 107.927ZM197.156 109.283L201.158 98.2878H203.29L205.658 106.18H205.69L208.563 98.2878H210.55L206.549 109.283H204.417L202.064 101.39H202.032L199.16 109.283H197.156ZM212.601 109.433C211.255 109.433 210.341 109.082 209.86 108.379C209.392 107.666 209.395 106.662 209.866 105.367C210.337 104.071 211.064 103.072 212.047 102.369C213.044 101.657 214.215 101.3 215.561 101.3C216.908 101.3 217.82 101.657 218.298 102.369C218.779 103.072 218.784 104.071 218.313 105.367C217.841 106.662 217.107 107.666 216.11 108.379C215.117 109.082 213.948 109.433 212.601 109.433ZM213.138 107.957C213.876 107.957 214.515 107.741 215.057 107.31C215.603 106.868 216.031 106.22 216.341 105.367C216.652 104.513 216.694 103.871 216.466 103.439C216.242 102.997 215.762 102.776 215.024 102.776C214.298 102.776 213.656 102.997 213.1 103.439C212.558 103.871 212.132 104.513 211.821 105.367C211.511 106.22 211.467 106.868 211.691 107.31C211.929 107.741 212.412 107.957 213.138 107.957ZM218.446 109.283L219.219 107.159H221.495L220.722 109.283H218.446Z" fill="#EDEDED"/>
<path d="M213.471 189.969L217.473 178.974H225.295L224.703 180.601H218.884L217.854 183.432H223.351L222.77 185.029H217.273L216.067 188.343H221.885L221.293 189.969H213.471ZM222.577 189.969L226.658 186.023L225.46 182.137H227.64L228.339 185.059H228.371L231.198 182.137H233.378L229.351 186.023L230.559 189.969H228.379L227.664 187.002H227.632L224.773 189.969H222.577ZM239.758 181.987C240.869 181.987 241.605 182.343 241.965 183.056C242.325 183.769 242.271 184.768 241.804 186.053C241.336 187.338 240.662 188.337 239.783 189.05C238.904 189.763 237.909 190.12 236.797 190.12C236.252 190.12 235.783 190.029 235.389 189.849C235.01 189.658 234.728 189.392 234.542 189.05H234.51L233.024 193.132H231.053L235.055 182.137H236.93L236.612 183.056H236.644C237.092 182.705 237.584 182.438 238.12 182.258C238.656 182.077 239.202 181.987 239.758 181.987ZM238.697 183.493C238.29 183.493 237.893 183.573 237.503 183.734C237.113 183.894 236.771 184.115 236.476 184.396C236.196 184.668 235.99 184.984 235.858 185.345L235.343 186.761C235.215 187.112 235.191 187.429 235.27 187.71C235.36 187.991 235.542 188.212 235.814 188.373C236.087 188.533 236.427 188.614 236.833 188.614C237.517 188.614 238.121 188.393 238.645 187.951C239.169 187.509 239.581 186.877 239.88 186.053C240.18 185.23 240.229 184.597 240.026 184.155C239.824 183.714 239.38 183.493 238.697 183.493ZM241.946 189.969L242.719 187.845H244.995L244.222 189.969H241.946Z" fill="#EDEDED"/>
<path d="M206.632 220.493C205.295 220.493 204.445 220.097 204.083 219.306C203.721 218.514 203.839 217.296 204.438 215.652C205.036 214.008 205.804 212.79 206.743 211.999C207.681 211.207 208.819 210.811 210.156 210.811C211.493 210.811 212.338 211.207 212.691 211.999C213.053 212.79 212.935 214.008 212.337 215.652C211.739 217.296 210.97 218.514 210.032 219.306C209.103 220.097 207.969 220.493 206.632 220.493ZM207.154 219.06C207.914 219.06 208.568 218.785 209.117 218.234C209.665 217.683 210.153 216.823 210.579 215.652C211.008 214.473 211.147 213.612 210.996 213.07C210.849 212.519 210.395 212.244 209.635 212.244C208.874 212.244 208.216 212.519 207.658 213.07C207.112 213.612 206.625 214.473 206.196 215.652C205.77 216.823 205.631 217.683 205.778 218.234C205.935 218.785 206.393 219.06 207.154 219.06ZM218.984 210.811C219.808 210.811 220.454 210.949 220.922 211.224C221.39 211.499 221.668 211.904 221.758 212.438C221.857 212.971 221.762 213.634 221.474 214.426C221.042 215.613 220.417 216.65 219.6 217.537C218.795 218.415 217.847 219.108 216.755 219.615C215.663 220.123 214.469 220.412 213.17 220.48L213.343 219.176C214.5 219.116 215.508 218.888 216.367 218.492C217.229 218.088 217.97 217.498 218.591 216.724L218.568 216.711C218.172 216.891 217.77 217.029 217.36 217.124C216.959 217.218 216.539 217.266 216.099 217.266C215.082 217.266 214.383 216.986 214 216.427C213.627 215.867 213.62 215.093 213.98 214.103C214.231 213.414 214.597 212.825 215.078 212.334C215.558 211.844 216.13 211.469 216.791 211.211C217.456 210.944 218.187 210.811 218.984 210.811ZM218.481 212.192C217.804 212.192 217.22 212.36 216.732 212.696C216.256 213.023 215.91 213.483 215.693 214.077C215.477 214.671 215.478 215.136 215.694 215.471C215.923 215.798 216.358 215.962 216.999 215.962C217.457 215.962 217.876 215.893 218.256 215.755C218.639 215.609 218.968 215.398 219.242 215.123C219.529 214.839 219.741 214.507 219.879 214.129C220.001 213.793 220.042 213.479 220.002 213.186C219.971 212.894 219.833 212.657 219.587 212.476C219.354 212.287 218.985 212.192 218.481 212.192ZM219.888 220.881L228.585 210.424H230.261L221.564 220.881H219.888ZM231.574 220.364L234.347 212.747H234.319L230.093 214.697L230.11 213.29L235.005 210.94H236.749L233.319 220.364H231.574ZM240.402 220.364L243.175 212.747H243.147L238.921 214.697L238.938 213.29L243.833 210.94H245.577L242.147 220.364H240.402Z" fill="white"/>
<path d="M61.4593 220.364L64.8894 210.94H67.9118C69.3864 210.94 70.3811 211.164 70.896 211.611C71.42 212.059 71.505 212.769 71.151 213.741C70.8033 214.697 70.2136 215.411 69.3819 215.884C68.5593 216.358 67.4794 216.595 66.1422 216.595H63.5869L64.038 215.355H66.3735C67.3077 215.355 68.0247 215.235 68.5246 214.994C69.0368 214.744 69.3931 214.344 69.5936 213.793C69.794 213.242 69.7275 212.846 69.3939 212.605C69.0726 212.356 68.4448 212.231 67.5106 212.231H65.9307L62.9705 220.364H61.4593ZM67.3255 220.364L64.3475 216.052H66.2572L69.2901 220.364H67.3255ZM70.9312 220.364L74.3613 210.94H80.9557L80.4952 212.205H75.412L74.4629 214.813H79.2713L78.8202 216.052H74.0118L72.9029 219.099H77.9861L77.5256 220.364H70.9312ZM85.8072 220.364L89.2373 210.94H90.7485L87.3184 220.364H85.8072ZM79.625 220.364L83.0551 210.94H84.5663L81.1362 220.364H79.625ZM81.9406 216.078L82.4105 214.787H88.5927L88.1228 216.078H81.9406ZM88.6712 220.364L95.7557 210.94H97.8028L98.0133 220.364H96.351L96.3444 212.154H96.317L90.3336 220.364H88.6712ZM91.427 218.002L91.8969 216.711H97.4609L96.991 218.002H91.427ZM99.3604 220.364L102.791 210.94H104.439L106.636 218.04H106.663L109.248 210.94H110.759L107.329 220.364H105.68L103.483 213.264H103.456L100.872 220.364H99.3604ZM113.515 220.364L116.945 210.94H119.967C121.442 210.94 122.436 211.164 122.951 211.611C123.475 212.059 123.56 212.769 123.206 213.741C122.859 214.697 122.269 215.411 121.437 215.884C120.615 216.358 119.535 216.595 118.198 216.595H115.642L116.093 215.355H118.429C119.363 215.355 120.08 215.235 120.58 214.994C121.092 214.744 121.448 214.344 121.649 213.793C121.849 213.242 121.783 212.846 121.449 212.605C121.128 212.356 120.5 212.231 119.566 212.231H117.986L115.026 220.364H113.515ZM119.381 220.364L116.403 216.052H118.313L121.345 220.364H119.381ZM121.997 220.364L129.082 210.94H131.129L131.339 220.364H129.677L129.671 212.154H129.643L123.66 220.364H121.997ZM124.753 218.002L125.223 216.711H130.787L130.317 218.002H124.753ZM132.81 220.364L136.24 210.94H137.807L134.376 220.364H132.81ZM143.014 220.364L146.445 210.94H147.956L144.526 220.364H143.014ZM136.832 220.364L140.262 210.94H141.774L138.343 220.364H136.832ZM139.148 216.078L139.618 214.787H145.8L145.33 216.078H139.148ZM145.878 220.364L152.963 210.94H155.01L155.221 220.364H153.558L153.552 212.154H153.524L147.541 220.364H145.878ZM148.634 218.002L149.104 216.711H154.668L154.198 218.002H148.634ZM156.568 220.364L159.998 210.94H161.646L163.843 218.04H163.87L166.455 210.94H167.966L164.536 220.364H162.887L160.691 213.264H160.663L158.079 220.364H156.568Z" fill="white"/>
<path fill-rule="evenodd" clip-rule="evenodd" d="M142.172 52.3878C145.763 50.0281 148.708 46.6426 150.077 42.8805C151.446 39.1184 150.966 35.7329 149.092 33.3732C152.307 31.2611 156.041 29.9707 159.624 29.9707C167.212 29.9707 171.259 35.7507 168.664 42.8805C166.069 50.0103 157.814 55.7903 150.227 55.7903C146.643 55.7903 143.849 54.4999 142.172 52.3878ZM142.172 52.3878C138.957 54.4999 135.223 55.7903 131.64 55.7903C124.052 55.7903 120.005 50.0103 122.6 42.8805C125.195 35.7507 133.45 29.9707 141.037 29.9707C144.621 29.9707 147.416 31.2611 149.092 33.3732C145.501 35.7329 142.557 39.1184 141.187 42.8805C139.818 46.6426 140.298 50.0281 142.172 52.3878Z" fill="white"/>
<path fill-rule="evenodd" clip-rule="evenodd" d="M481.331 30.2208C482.129 29.7901 482.969 29.9295 483.208 30.5322C484.481 33.7412 485.4 39.2144 484.034 45.3106C482.66 51.4486 478.94 58.3007 470.883 63.9977C470.137 64.525 469.231 64.5305 468.859 64.0102C468.488 63.4898 468.791 62.6406 469.537 62.1134C476.564 57.1446 479.837 51.1935 481.077 45.6605C482.326 40.0857 481.479 35.02 480.318 32.092C480.079 31.4893 480.532 30.6516 481.331 30.2208ZM473.353 35.14C474.151 34.7084 474.992 34.8466 475.233 35.4486C476.133 37.7067 476.786 41.5475 475.827 45.8363C474.858 50.1675 472.218 55.0367 466.485 59.0812C465.739 59.6076 464.834 59.6119 464.463 59.0907C464.093 58.5695 464.397 57.7203 465.143 57.1939C469.845 53.8774 472.036 49.9107 472.869 46.1872C473.711 42.4214 473.132 38.9889 472.344 37.0116C472.103 36.4095 472.555 35.5716 473.353 35.14ZM466.636 40.5088C467.432 40.0744 468.276 40.2085 468.52 40.8085C469.016 42.0292 469.379 44.0898 468.864 46.4086C468.339 48.7716 466.874 51.4796 463.673 53.7209C462.925 54.2447 462.022 54.2447 461.655 53.7209C461.288 53.1971 461.597 52.3478 462.345 51.824C464.508 50.3097 465.517 48.5095 465.905 46.763C466.303 44.9723 466.017 43.3221 465.635 42.3818C465.391 41.7819 465.839 40.9433 466.636 40.5088ZM460.692 46.0661C460.167 46.0661 459.595 46.4664 459.415 46.9603C459.236 47.4541 459.516 47.8545 460.041 47.8545C460.567 47.8545 461.139 47.4541 461.318 46.9603C461.498 46.4664 461.218 46.0661 460.692 46.0661ZM456.561 46.9603C457.28 44.9849 459.567 43.3835 461.669 43.3835C463.771 43.3835 464.892 44.9849 464.173 46.9603C463.454 48.9356 461.167 50.537 459.065 50.537C456.963 50.537 455.842 48.9356 456.561 46.9603Z" fill="white"/>
<path d="M91.526 144.24L95.9507 132.083H95.9049L89.6031 135.934L90.8874 132.406L97.2428 128.533H100.54L94.8232 144.24H91.526ZM102.805 144.455C101.522 144.455 100.568 144.247 99.9407 143.831C99.3288 143.415 99.0196 142.733 99.0131 141.787C99.0219 140.84 99.3134 139.578 99.8877 138C100.697 135.777 101.663 133.962 102.785 132.556C103.912 131.136 105.243 130.082 106.775 129.393C108.308 128.705 110.087 128.346 112.113 128.318L111.142 130.986C110.226 130.986 109.349 131.129 108.512 131.416C107.68 131.688 106.954 132.069 106.334 132.556C105.714 133.044 105.253 133.618 104.952 134.278H105.043C105.549 134.062 106.009 133.912 106.421 133.826C106.834 133.74 107.262 133.697 107.705 133.697C109.17 133.697 110.092 134.12 110.471 134.966C110.871 135.798 110.749 137.096 110.107 138.861C109.381 140.854 108.447 142.289 107.304 143.164C106.182 144.024 104.682 144.455 102.805 144.455ZM103.767 141.873C104.454 141.873 105.042 141.643 105.529 141.184C106.022 140.711 106.446 139.987 106.801 139.011C107.156 138.036 107.257 137.319 107.103 136.86C106.955 136.386 106.537 136.149 105.85 136.149C105.164 136.149 104.574 136.386 104.081 136.86C103.593 137.319 103.172 138.036 102.817 139.011C102.462 139.987 102.358 140.711 102.507 141.184C102.66 141.643 103.08 141.873 103.767 141.873ZM116.806 137.44C116.318 137.44 115.978 137.304 115.787 137.032C115.596 136.759 115.582 136.401 115.744 135.956C115.911 135.497 116.186 135.138 116.57 134.88C116.96 134.607 117.399 134.471 117.887 134.471C118.375 134.471 118.715 134.607 118.906 134.88C119.102 135.138 119.117 135.497 118.949 135.956C118.788 136.401 118.512 136.759 118.123 137.032C117.734 137.304 117.295 137.44 116.806 137.44ZM114.253 144.455C112.986 144.455 112.065 144.218 111.489 143.745C110.919 143.257 110.664 142.468 110.725 141.378C110.786 140.288 111.145 138.839 111.803 137.032L112.273 135.741C112.936 133.919 113.631 132.47 114.359 131.394C115.091 130.304 115.918 129.522 116.838 129.049C117.764 128.561 118.86 128.318 120.127 128.318C121.378 128.318 122.29 128.561 122.86 129.049C123.451 129.522 123.716 130.304 123.655 131.394C123.599 132.47 123.24 133.919 122.577 135.741L122.107 137.032C121.449 138.839 120.754 140.288 120.021 141.378C119.289 142.468 118.452 143.257 117.511 143.745C116.591 144.218 115.505 144.455 114.253 144.455ZM115.224 141.787C115.743 141.787 116.18 141.658 116.533 141.399C116.887 141.141 117.237 140.661 117.584 139.958C117.952 139.241 118.387 138.194 118.888 136.817L119.201 135.956C119.703 134.579 120.028 133.539 120.177 132.836C120.346 132.119 120.348 131.631 120.182 131.373C120.017 131.115 119.675 130.986 119.156 130.986C118.652 130.986 118.216 131.115 117.847 131.373C117.493 131.631 117.133 132.119 116.765 132.836C116.417 133.539 115.993 134.579 115.492 135.956L115.179 136.817C114.678 138.194 114.342 139.241 114.173 139.958C114.024 140.661 114.032 141.141 114.198 141.399C114.378 141.658 114.721 141.787 115.224 141.787ZM122.141 141.658C123.56 140.611 124.777 139.678 125.792 138.861C126.812 138.029 127.664 137.283 128.346 136.623C129.034 135.949 129.577 135.339 129.974 134.794C130.371 134.249 130.658 133.732 130.835 133.245C131.112 132.485 131.14 131.925 130.919 131.567C130.699 131.208 130.215 131.029 129.467 131.029C128.49 131.029 127.241 131.294 125.719 131.825L126.737 129.028C128.055 128.554 129.538 128.318 131.186 128.318C132.85 128.318 133.935 128.691 134.442 129.436C134.955 130.168 134.924 131.323 134.349 132.901C134.109 133.56 133.765 134.235 133.316 134.923C132.887 135.597 132.344 136.293 131.686 137.01C131.028 137.727 130.263 138.466 129.391 139.226C128.534 139.987 127.555 140.768 126.454 141.572L126.422 141.658H131.299L130.36 144.24H121.201L122.141 141.658ZM162.601 137.44C162.112 137.44 161.773 137.304 161.582 137.032C161.391 136.759 161.376 136.401 161.538 135.956C161.705 135.497 161.981 135.138 162.365 134.88C162.754 134.607 163.193 134.471 163.681 134.471C164.17 134.471 164.51 134.607 164.7 134.88C164.896 135.138 164.911 135.497 164.744 135.956C164.582 136.401 164.306 136.759 163.917 137.032C163.528 137.304 163.089 137.44 162.601 137.44ZM160.048 144.455C158.781 144.455 157.859 144.218 157.284 143.745C156.713 143.257 156.458 142.468 156.519 141.378C156.58 140.288 156.94 138.839 157.598 137.032L158.068 135.741C158.731 133.919 159.426 132.47 160.153 131.394C160.886 130.304 161.712 129.522 162.632 129.049C163.558 128.561 164.654 128.318 165.921 128.318C167.173 128.318 168.084 128.561 168.654 129.049C169.245 129.522 169.51 130.304 169.449 131.394C169.394 132.47 169.034 133.919 168.371 135.741L167.901 137.032C167.244 138.839 166.548 140.288 165.816 141.378C165.083 142.468 164.246 143.257 163.306 143.745C162.385 144.218 161.299 144.455 160.048 144.455ZM161.019 141.787C161.538 141.787 161.974 141.658 162.328 141.399C162.681 141.141 163.031 140.661 163.379 139.958C163.747 139.241 164.181 138.194 164.682 136.817L164.996 135.956C165.497 134.579 165.822 133.539 165.971 132.836C166.14 132.119 166.142 131.631 165.977 131.373C165.811 131.115 165.469 130.986 164.95 130.986C164.446 130.986 164.01 131.115 163.641 131.373C163.288 131.631 162.927 132.119 162.559 132.836C162.212 133.539 161.788 134.579 161.286 135.956L160.973 136.817C160.472 138.194 160.137 139.241 159.967 139.958C159.818 140.661 159.826 141.141 159.992 141.399C160.173 141.658 160.515 141.787 161.019 141.787ZM177.37 128.318C178.667 128.318 179.622 128.526 180.234 128.942C180.846 129.358 181.147 130.039 181.138 130.986C181.145 131.932 180.861 133.195 180.287 134.772C179.483 136.981 178.517 138.796 177.39 140.216C176.262 141.636 174.932 142.69 173.399 143.379C171.882 144.068 170.102 144.426 168.062 144.455L169.033 141.787C169.964 141.787 170.838 141.651 171.654 141.378C172.492 141.091 173.22 140.704 173.84 140.216C174.466 139.714 174.927 139.14 175.223 138.495H175.131C174.625 138.71 174.166 138.861 173.753 138.947C173.34 139.033 172.912 139.076 172.47 139.076C171.004 139.076 170.072 138.66 169.672 137.828C169.293 136.981 169.425 135.676 170.067 133.912C170.793 131.918 171.717 130.491 172.839 129.63C173.982 128.755 175.492 128.318 177.37 128.318ZM176.407 130.9C175.72 130.9 175.13 131.136 174.637 131.61C174.15 132.069 173.729 132.786 173.374 133.761C173.018 134.737 172.915 135.461 173.063 135.934C173.217 136.393 173.637 136.623 174.324 136.623C175.011 136.623 175.598 136.393 176.086 135.934C176.579 135.461 177.003 134.737 177.358 133.761C177.713 132.786 177.813 132.069 177.66 131.61C177.512 131.136 177.094 130.9 176.407 130.9ZM183.115 144.24L187.54 132.083H187.494L181.192 135.934L182.476 132.406L188.832 128.533H192.129L186.412 144.24H183.115ZM194.563 144.24L198.988 132.083H198.942L192.641 135.934L193.925 132.406L200.28 128.533H203.577L197.861 144.24H194.563ZM225.178 141.658C226.597 140.611 227.814 139.678 228.829 138.861C229.849 138.029 230.701 137.283 231.384 136.623C232.072 135.949 232.614 135.339 233.011 134.794C233.408 134.249 233.695 133.732 233.873 133.245C234.149 132.485 234.177 131.925 233.957 131.567C233.736 131.208 233.252 131.029 232.504 131.029C231.527 131.029 230.278 131.294 228.757 131.825L229.775 129.028C231.092 128.554 232.575 128.318 234.224 128.318C235.887 128.318 236.973 128.691 237.48 129.436C237.992 130.168 237.961 131.323 237.387 132.901C237.147 133.56 236.802 134.235 236.353 134.923C235.924 135.597 235.381 136.293 234.723 137.01C234.065 137.727 233.3 138.466 232.428 139.226C231.572 139.987 230.592 140.768 229.491 141.572L229.46 141.658H234.337L233.397 144.24H224.238L225.178 141.658ZM242.741 137.44C242.252 137.44 241.913 137.304 241.722 137.032C241.531 136.759 241.517 136.401 241.679 135.956C241.846 135.497 242.121 135.138 242.505 134.88C242.894 134.607 243.333 134.471 243.822 134.471C244.31 134.471 244.65 134.607 244.841 134.88C245.037 135.138 245.051 135.497 244.884 135.956C244.722 136.401 244.447 136.759 244.058 137.032C243.668 137.304 243.229 137.44 242.741 137.44ZM240.188 144.455C238.921 144.455 238 144.218 237.424 143.745C236.853 143.257 236.599 142.468 236.66 141.378C236.721 140.288 237.08 138.839 237.738 137.032L238.208 135.741C238.871 133.919 239.566 132.47 240.293 131.394C241.026 130.304 241.852 129.522 242.773 129.049C243.698 128.561 244.794 128.318 246.061 128.318C247.313 128.318 248.224 128.561 248.795 129.049C249.386 129.522 249.651 130.304 249.59 131.394C249.534 132.47 249.175 133.919 248.512 135.741L248.042 137.032C247.384 138.839 246.689 140.288 245.956 141.378C245.223 142.468 244.387 143.257 243.446 143.745C242.526 144.218 241.44 144.455 240.188 144.455ZM241.159 141.787C241.678 141.787 242.114 141.658 242.468 141.399C242.821 141.141 243.172 140.661 243.519 139.958C243.887 139.241 244.322 138.194 244.823 136.817L245.136 135.956C245.637 134.579 245.962 133.539 246.111 132.836C246.281 132.119 246.283 131.631 246.117 131.373C245.952 131.115 245.609 130.986 245.09 130.986C244.587 130.986 244.15 131.115 243.782 131.373C243.428 131.631 243.067 132.119 242.7 132.836C242.352 133.539 241.928 134.579 241.427 135.956L241.113 136.817C240.612 138.194 240.277 139.241 240.107 139.958C239.958 140.661 239.967 141.141 240.132 141.399C240.313 141.658 240.655 141.787 241.159 141.787ZM251.806 144.24L256.231 132.083H256.185L249.884 135.934L251.168 132.406L257.523 128.533H260.82L255.104 144.24H251.806ZM268.959 128.318C270.256 128.318 271.211 128.526 271.823 128.942C272.434 129.358 272.736 130.039 272.727 130.986C272.734 131.932 272.45 133.195 271.876 134.772C271.072 136.981 270.106 138.796 268.978 140.216C267.851 141.636 266.521 142.69 264.988 143.379C263.47 144.068 261.691 144.426 259.651 144.455L260.622 141.787C261.553 141.787 262.427 141.651 263.243 141.378C264.08 141.091 264.809 140.704 265.429 140.216C266.055 139.714 266.515 139.14 266.811 138.495H266.72C266.214 138.71 265.755 138.861 265.342 138.947C264.929 139.033 264.501 139.076 264.058 139.076C262.593 139.076 261.661 138.66 261.261 137.828C260.882 136.981 261.014 135.676 261.656 133.912C262.382 131.918 263.306 130.491 264.428 129.63C265.571 128.755 267.081 128.318 268.959 128.318ZM267.996 130.9C267.309 130.9 266.719 131.136 266.226 131.61C265.739 132.069 265.317 132.786 264.962 133.761C264.607 134.737 264.504 135.461 264.652 135.934C264.806 136.393 265.226 136.623 265.913 136.623C266.6 136.623 267.187 136.393 267.675 135.934C268.168 135.461 268.591 134.737 268.946 133.761C269.301 132.786 269.402 132.069 269.249 131.61C269.1 131.136 268.683 130.9 267.996 130.9ZM293.87 141.658C295.289 140.611 296.506 139.678 297.521 138.861C298.541 138.029 299.393 137.283 300.075 136.623C300.764 135.949 301.306 135.339 301.703 134.794C302.1 134.249 302.387 133.732 302.564 133.245C302.841 132.485 302.869 131.925 302.649 131.567C302.428 131.208 301.944 131.029 301.196 131.029C300.219 131.029 298.97 131.294 297.449 131.825L298.467 129.028C299.784 128.554 301.267 128.318 302.915 128.318C304.579 128.318 305.665 128.691 306.172 129.436C306.684 130.168 306.653 131.323 306.078 132.901C305.838 133.56 305.494 134.235 305.045 134.923C304.616 135.597 304.073 136.293 303.415 137.01C302.757 137.727 301.992 138.466 301.12 139.226C300.263 139.987 299.284 140.768 298.183 141.572L298.151 141.658H303.028L302.089 144.24H292.93L293.87 141.658ZM311.433 137.44C310.944 137.44 310.604 137.304 310.414 137.032C310.223 136.759 310.208 136.401 310.37 135.956C310.537 135.497 310.813 135.138 311.197 134.88C311.586 134.607 312.025 134.471 312.513 134.471C313.002 134.471 313.341 134.607 313.532 134.88C313.728 135.138 313.743 135.497 313.576 135.956C313.414 136.401 313.138 136.759 312.749 137.032C312.36 137.304 311.921 137.44 311.433 137.44ZM308.88 144.455C307.613 144.455 306.691 144.218 306.116 143.745C305.545 143.257 305.29 142.468 305.351 141.378C305.412 140.288 305.772 138.839 306.429 137.032L306.899 135.741C307.562 133.919 308.258 132.47 308.985 131.394C309.718 130.304 310.544 129.522 311.464 129.049C312.39 128.561 313.486 128.318 314.753 128.318C316.005 128.318 316.916 128.561 317.486 129.049C318.077 129.522 318.342 130.304 318.281 131.394C318.226 132.47 317.866 133.919 317.203 135.741L316.733 137.032C316.075 138.839 315.38 140.288 314.648 141.378C313.915 142.468 313.078 143.257 312.138 143.745C311.217 144.218 310.131 144.455 308.88 144.455ZM309.851 141.787C310.37 141.787 310.806 141.658 311.159 141.399C311.513 141.141 311.863 140.661 312.211 139.958C312.579 139.241 313.013 138.194 313.514 136.817L313.828 135.956C314.329 134.579 314.654 133.539 314.803 132.836C314.972 132.119 314.974 131.631 314.809 131.373C314.643 131.115 314.301 130.986 313.782 130.986C313.278 130.986 312.842 131.115 312.473 131.373C312.12 131.631 311.759 132.119 311.391 132.836C311.044 133.539 310.619 134.579 310.118 135.956L309.805 136.817C309.304 138.194 308.968 139.241 308.799 139.958C308.65 140.661 308.658 141.141 308.824 141.399C309.005 141.658 309.347 141.787 309.851 141.787ZM316.767 141.658C318.186 140.611 319.403 139.678 320.418 138.861C321.438 138.029 322.29 137.283 322.973 136.623C323.661 135.949 324.203 135.339 324.6 134.794C324.997 134.249 325.284 133.732 325.462 133.245C325.738 132.485 325.766 131.925 325.546 131.567C325.325 131.208 324.841 131.029 324.093 131.029C323.116 131.029 321.867 131.294 320.346 131.825L321.364 129.028C322.681 128.554 324.164 128.318 325.812 128.318C327.476 128.318 328.562 128.691 329.069 129.436C329.581 130.168 329.55 131.323 328.976 132.901C328.735 133.56 328.391 134.235 327.942 134.923C327.513 135.597 326.97 136.293 326.312 137.01C325.654 137.727 324.889 138.466 324.017 139.226C323.16 139.987 322.181 140.768 321.08 141.572L321.049 141.658H325.926L324.986 144.24H315.827L316.767 141.658ZM331.947 144.24L336.371 132.083H336.326L330.024 135.934L331.308 132.406L337.664 128.533H340.961L335.244 144.24H331.947Z" fill="white"/>
<path d="M383.664 200.061C383.902 199.406 384.661 198.874 385.359 198.874H396.097C396.795 198.874 397.167 199.406 396.928 200.061L394.177 207.621C394.01 208.079 393.578 208.496 393.066 208.693L386.823 211.096C386.423 211.249 386.024 211.249 385.737 211.096L381.242 208.693C380.874 208.496 380.745 208.079 380.912 207.621L383.664 200.061Z" fill="white"/>
<path d="M403.877 200.061C404.115 199.406 404.874 198.874 405.572 198.874H408.73C409.428 198.874 409.8 199.406 409.561 200.061L408.697 202.435C408.459 203.091 407.7 203.622 407.002 203.622H403.844C403.146 203.622 402.774 203.091 403.012 202.435L403.877 200.061Z" fill="white"/>
<path d="M416.509 200.061C416.748 199.406 417.507 198.874 418.205 198.874H428.943C429.641 198.874 430.013 199.406 429.774 200.061L427.182 207.184C426.943 207.839 426.184 208.371 425.486 208.371H414.748C414.051 208.371 413.678 207.839 413.917 207.184L416.509 200.061Z" fill="white"/>
<path d="M379.127 212.526C379.366 211.87 380.125 211.339 380.822 211.339H391.56C392.258 211.339 392.63 211.87 392.392 212.526L389.799 219.648C389.561 220.304 388.802 220.836 388.104 220.836H377.366C376.668 220.836 376.296 220.304 376.535 219.648L379.127 212.526Z" fill="white"/>
<path d="M397.278 207.777C397.517 207.122 398.276 206.59 398.974 206.59H409.712C410.409 206.59 410.781 207.122 410.543 207.777L404.494 224.397C404.255 225.052 403.496 225.584 402.798 225.584H392.06C391.363 225.584 390.991 225.052 391.229 224.397L397.278 207.777Z" fill="white"/>
<path d="M411.973 212.526C412.211 211.87 412.97 211.339 413.668 211.339H424.406C425.104 211.339 425.476 211.87 425.237 212.526L422.645 219.648C422.406 220.304 421.647 220.836 420.95 220.836H410.211C409.514 220.836 409.142 220.304 409.38 219.648L411.973 212.526Z" fill="white"/>
<path d="M374.59 224.99C374.829 224.335 375.588 223.803 376.286 223.803H387.024C387.721 223.803 388.094 224.335 387.855 224.99L385.262 232.113C385.024 232.769 384.265 233.3 383.567 233.3H372.829C372.131 233.3 371.759 232.769 371.998 232.113L374.59 224.99Z" fill="white"/>
<path d="M393.075 229.739C393.313 229.083 394.072 228.552 394.77 228.552H397.928C398.626 228.552 398.998 229.083 398.76 229.739L397.895 232.113C397.657 232.769 396.898 233.3 396.2 233.3H393.042C392.344 233.3 391.972 232.769 392.211 232.113L393.075 229.739Z" fill="white"/>
<path d="M407.595 224.553C407.762 224.095 408.194 223.678 408.705 223.481L414.949 221.079C415.348 220.925 415.748 220.925 416.035 221.079L420.53 223.481C420.898 223.678 421.026 224.095 420.86 224.553L418.108 232.113C417.869 232.769 417.11 233.3 416.413 233.3H405.675C404.977 233.3 404.605 232.769 404.844 232.113L407.595 224.553Z" fill="white"/>
<defs>
<filter id="filter0_b_148_2" x="-4.44958" y="-12.7512" width="537.922" height="287.698" filterUnits="userSpaceOnUse" color-interpolation-filters="sRGB">
<feFlood flood-opacity="0" result="BackgroundImageFix"/>
<feGaussianBlur in="BackgroundImageFix" stdDeviation="6.83767"/>
<feComposite in2="SourceAlpha" operator="in" result="effect1_backgroundBlur_148_2"/>
<feBlend mode="normal" in="SourceGraphic" in2="effect1_backgroundBlur_148_2" result="shape"/>
</filter>
<linearGradient id="paint0_linear_148_2" x1="32.0561" y1="12.5935" x2="264.463" y2="274.767" gradientUnits="userSpaceOnUse">
<stop stop-color="white"/>
<stop offset="1" stop-color="white" stop-opacity="0.55"/>
</linearGradient>
</defs>
</svg>
