<svg width="594" height="391" viewBox="0 0 594 391" fill="none" xmlns="http://www.w3.org/2000/svg">
<g filter="url(#filter0_d_121_2)">
<g filter="url(#filter1_b_121_2)">
<rect x="21.6663" y="17.4111" width="551.298" height="348.188" rx="32" fill="url(#paint0_linear_121_2)" fill-opacity="0.37"/>
<rect x="21.6663" y="17.4111" width="551.298" height="348.188" rx="32" stroke="url(#paint1_linear_121_2)" stroke-opacity="0.5" stroke-width="2"/>
</g>
<path d="M80.8311 269.889V259.669H82.6931L87.2711 267.005H87.2991V259.669H89.0351V269.889H87.1731L82.6091 262.553H82.5811V269.889H80.8311ZM92.9278 270.029C92.1998 270.029 91.6258 269.833 91.2058 269.441C90.7951 269.039 90.5898 268.498 90.5898 267.817C90.5898 266.967 90.9211 266.314 91.5838 265.857C92.2465 265.399 93.1891 265.171 94.4118 265.171H95.4338C95.4338 264.816 95.3871 264.545 95.2938 264.359C95.2098 264.163 95.0605 264.027 94.8458 263.953C94.6405 263.878 94.3465 263.841 93.9638 263.841C93.4971 263.841 93.0118 263.887 92.5078 263.981C92.0131 264.074 91.5465 264.214 91.1078 264.401L90.8838 263.043C91.3598 262.865 91.8871 262.725 92.4658 262.623C93.0445 262.52 93.6231 262.469 94.2018 262.469C94.9391 262.469 95.5178 262.557 95.9378 262.735C96.3671 262.912 96.6751 263.211 96.8618 263.631C97.0485 264.051 97.1418 264.606 97.1418 265.297V269.889H95.5038L95.4898 269.049H95.4618C95.2098 269.338 94.8458 269.576 94.3698 269.763C93.8938 269.94 93.4131 270.029 92.9278 270.029ZM93.5438 268.685C93.8891 268.685 94.2065 268.624 94.4958 268.503C94.7851 268.372 95.0138 268.199 95.1818 267.985C95.3498 267.77 95.4338 267.527 95.4338 267.257V266.375H94.6638C93.8611 266.375 93.2545 266.482 92.8438 266.697C92.4425 266.902 92.2418 267.219 92.2418 267.649C92.2418 267.966 92.3538 268.218 92.5778 268.405C92.8018 268.591 93.1238 268.685 93.5438 268.685ZM98.9848 269.889V262.609H100.581L100.609 263.463H100.637C100.898 263.145 101.211 262.903 101.575 262.735C101.939 262.557 102.363 262.469 102.849 262.469C103.325 262.469 103.726 262.557 104.053 262.735C104.389 262.903 104.627 263.145 104.767 263.463H104.795C105.075 263.117 105.397 262.865 105.761 262.707C106.125 262.548 106.554 262.469 107.049 262.469C107.833 262.469 108.402 262.679 108.757 263.099C109.111 263.509 109.289 264.158 109.289 265.045V269.889H107.623V265.465C107.623 264.914 107.534 264.513 107.357 264.261C107.179 264.009 106.895 263.883 106.503 263.883C106.036 263.883 105.667 264.037 105.397 264.345C105.126 264.653 104.991 265.063 104.991 265.577V269.889H103.311V265.339C103.311 264.863 103.213 264.503 103.017 264.261C102.821 264.009 102.541 263.883 102.177 263.883C101.897 263.883 101.64 263.957 101.407 264.107C101.183 264.256 101.001 264.457 100.861 264.709C100.73 264.961 100.665 265.25 100.665 265.577V269.889H98.9848ZM114.639 270.029C113.351 270.029 112.362 269.702 111.671 269.049C110.98 268.395 110.635 267.462 110.635 266.249C110.635 265.073 110.952 264.149 111.587 263.477C112.231 262.805 113.108 262.469 114.219 262.469C115.292 262.469 116.123 262.786 116.711 263.421C117.299 264.055 117.593 264.956 117.593 266.123C117.593 266.253 117.588 266.398 117.579 266.557C117.57 266.715 117.56 266.832 117.551 266.907H111.587V265.661H116.235L115.983 266.039C115.983 265.273 115.834 264.709 115.535 264.345C115.246 263.971 114.807 263.785 114.219 263.785C113.594 263.785 113.118 263.981 112.791 264.373C112.474 264.755 112.315 265.325 112.315 266.081V266.571C112.315 267.28 112.502 267.807 112.875 268.153C113.248 268.489 113.813 268.657 114.569 268.657C114.961 268.657 115.381 268.619 115.829 268.545C116.277 268.461 116.674 268.353 117.019 268.223L117.229 269.567C116.874 269.707 116.468 269.819 116.011 269.903C115.554 269.987 115.096 270.029 114.639 270.029Z" fill="#B9BEBD"/>
<path d="M85.6193 155.416C84.5086 155.416 83.5519 155.206 82.7493 154.786C81.9466 154.366 81.3306 153.764 80.9013 152.98C80.4813 152.196 80.2713 151.258 80.2713 150.166C80.2713 149.065 80.4813 148.127 80.9013 147.352C81.3306 146.568 81.9466 145.966 82.7493 145.546C83.5519 145.126 84.5086 144.916 85.6193 144.916C86.8886 144.916 88.0133 145.192 88.9933 145.742L88.5873 147.282C87.6353 146.741 86.6646 146.47 85.6753 146.47C84.9379 146.47 84.2986 146.62 83.7573 146.918C83.2159 147.208 82.8006 147.628 82.5113 148.178C82.2219 148.729 82.0773 149.392 82.0773 150.166C82.0773 150.932 82.2219 151.594 82.5113 152.154C82.8006 152.705 83.2159 153.13 83.7573 153.428C84.2986 153.718 84.9379 153.862 85.6753 153.862C86.6366 153.862 87.6073 153.592 88.5873 153.05L88.9933 154.59C88.0133 155.141 86.8886 155.416 85.6193 155.416ZM90.6997 155.276V147.996H92.3517L92.3657 149.368H92.3937C92.6364 149.051 92.9211 148.78 93.2477 148.556C93.5837 148.323 93.9524 148.15 94.3537 148.038C94.7551 147.917 95.1751 147.856 95.6137 147.856V149.34C95.0257 149.34 94.4891 149.452 94.0037 149.676C93.5277 149.9 93.1451 150.204 92.8557 150.586C92.5757 150.96 92.4357 151.38 92.4357 151.846V155.276H90.6997ZM99.9556 155.416C98.6676 155.416 97.6783 155.09 96.9876 154.436C96.2969 153.783 95.9516 152.85 95.9516 151.636C95.9516 150.46 96.2689 149.536 96.9036 148.864C97.5476 148.192 98.4249 147.856 99.5356 147.856C100.609 147.856 101.44 148.174 102.028 148.808C102.616 149.443 102.91 150.344 102.91 151.51C102.91 151.641 102.905 151.786 102.896 151.944C102.886 152.103 102.877 152.22 102.868 152.294H96.9036V151.048H101.552L101.3 151.426C101.3 150.661 101.15 150.096 100.852 149.732C100.562 149.359 100.124 149.172 99.5356 149.172C98.9103 149.172 98.4343 149.368 98.1076 149.76C97.7903 150.143 97.6316 150.712 97.6316 151.468V151.958C97.6316 152.668 97.8183 153.195 98.1916 153.54C98.5649 153.876 99.1296 154.044 99.8856 154.044C100.278 154.044 100.698 154.007 101.146 153.932C101.594 153.848 101.99 153.741 102.336 153.61L102.546 154.954C102.191 155.094 101.785 155.206 101.328 155.29C100.87 155.374 100.413 155.416 99.9556 155.416ZM107.071 155.416C106.1 155.416 105.344 155.085 104.803 154.422C104.261 153.76 103.991 152.831 103.991 151.636C103.991 150.442 104.261 149.513 104.803 148.85C105.344 148.188 106.1 147.856 107.071 147.856C107.556 147.856 107.995 147.94 108.387 148.108C108.779 148.276 109.11 148.524 109.381 148.85H109.423V145.056H111.117V155.276H109.507L109.479 154.422H109.451C109.18 154.74 108.835 154.987 108.415 155.164C108.004 155.332 107.556 155.416 107.071 155.416ZM107.519 154.016C107.883 154.016 108.205 153.942 108.485 153.792C108.774 153.643 109.003 153.438 109.171 153.176C109.339 152.915 109.423 152.621 109.423 152.294V150.978C109.423 150.642 109.339 150.348 109.171 150.096C109.003 149.835 108.779 149.63 108.499 149.48C108.219 149.331 107.892 149.256 107.519 149.256C106.931 149.256 106.473 149.462 106.147 149.872C105.829 150.283 105.671 150.871 105.671 151.636C105.671 152.402 105.829 152.99 106.147 153.4C106.473 153.811 106.931 154.016 107.519 154.016ZM113.288 146.708V145.056H115.024V146.708H113.288ZM113.288 155.276V148.038H115.024V155.276H113.288ZM120.458 155.416C119.599 155.416 118.979 155.239 118.596 154.884C118.213 154.53 118.022 153.951 118.022 153.148V149.368H116.398V147.996H118.022V145.616H119.758V147.996H122.208V149.368H119.758V152.714C119.758 153.181 119.833 153.508 119.982 153.694C120.141 153.872 120.416 153.96 120.808 153.96C121.013 153.96 121.228 153.942 121.452 153.904C121.676 153.867 121.877 153.816 122.054 153.75L122.208 155.164C121.891 155.258 121.592 155.323 121.312 155.36C121.032 155.398 120.747 155.416 120.458 155.416ZM132.705 155.416C131.595 155.416 130.638 155.206 129.835 154.786C129.033 154.366 128.417 153.764 127.987 152.98C127.567 152.196 127.357 151.258 127.357 150.166C127.357 149.065 127.567 148.127 127.987 147.352C128.417 146.568 129.033 145.966 129.835 145.546C130.638 145.126 131.595 144.916 132.705 144.916C133.975 144.916 135.099 145.192 136.079 145.742L135.673 147.282C134.721 146.741 133.751 146.47 132.761 146.47C132.024 146.47 131.385 146.62 130.843 146.918C130.302 147.208 129.887 147.628 129.597 148.178C129.308 148.729 129.163 149.392 129.163 150.166C129.163 150.932 129.308 151.594 129.597 152.154C129.887 152.705 130.302 153.13 130.843 153.428C131.385 153.718 132.024 153.862 132.761 153.862C133.723 153.862 134.693 153.592 135.673 153.05L136.079 154.59C135.099 155.141 133.975 155.416 132.705 155.416ZM139.44 155.416C138.712 155.416 138.138 155.22 137.718 154.828C137.307 154.427 137.102 153.886 137.102 153.204C137.102 152.355 137.433 151.702 138.096 151.244C138.758 150.787 139.701 150.558 140.924 150.558H141.946C141.946 150.204 141.899 149.933 141.806 149.746C141.722 149.55 141.572 149.415 141.358 149.34C141.152 149.266 140.858 149.228 140.476 149.228C140.009 149.228 139.524 149.275 139.02 149.368C138.525 149.462 138.058 149.602 137.62 149.788L137.396 148.43C137.872 148.253 138.399 148.113 138.978 148.01C139.556 147.908 140.135 147.856 140.714 147.856C141.451 147.856 142.03 147.945 142.45 148.122C142.879 148.3 143.187 148.598 143.374 149.018C143.56 149.438 143.654 149.994 143.654 150.684V155.276H142.016L142.002 154.436H141.974C141.722 154.726 141.358 154.964 140.882 155.15C140.406 155.328 139.925 155.416 139.44 155.416ZM140.056 154.072C140.401 154.072 140.718 154.012 141.008 153.89C141.297 153.76 141.526 153.587 141.694 153.372C141.862 153.158 141.946 152.915 141.946 152.644V151.762H141.176C140.373 151.762 139.766 151.87 139.356 152.084C138.954 152.29 138.754 152.607 138.754 153.036C138.754 153.354 138.866 153.606 139.09 153.792C139.314 153.979 139.636 154.072 140.056 154.072ZM145.497 155.276V147.996H147.149L147.163 149.368H147.191C147.433 149.051 147.718 148.78 148.045 148.556C148.381 148.323 148.749 148.15 149.151 148.038C149.552 147.917 149.972 147.856 150.411 147.856V149.34C149.823 149.34 149.286 149.452 148.801 149.676C148.325 149.9 147.942 150.204 147.653 150.586C147.373 150.96 147.233 151.38 147.233 151.846V155.276H145.497ZM153.828 155.416C152.858 155.416 152.102 155.085 151.56 154.422C151.019 153.76 150.748 152.831 150.748 151.636C150.748 150.442 151.019 149.513 151.56 148.85C152.102 148.188 152.858 147.856 153.828 147.856C154.314 147.856 154.752 147.94 155.144 148.108C155.536 148.276 155.868 148.524 156.138 148.85H156.18V145.056H157.874V155.276H156.264L156.236 154.422H156.208C155.938 154.74 155.592 154.987 155.172 155.164C154.762 155.332 154.314 155.416 153.828 155.416ZM154.276 154.016C154.64 154.016 154.962 153.942 155.242 153.792C155.532 153.643 155.76 153.438 155.928 153.176C156.096 152.915 156.18 152.621 156.18 152.294V150.978C156.18 150.642 156.096 150.348 155.928 150.096C155.76 149.835 155.536 149.63 155.256 149.48C154.976 149.331 154.65 149.256 154.276 149.256C153.688 149.256 153.231 149.462 152.904 149.872C152.587 150.283 152.428 150.871 152.428 151.636C152.428 152.402 152.587 152.99 152.904 153.4C153.231 153.811 153.688 154.016 154.276 154.016ZM163.929 155.276V145.056H165.791L170.369 152.392H170.397V145.056H172.133V155.276H170.271L165.707 147.94H165.679V155.276H163.929ZM177.468 155.416C176.292 155.416 175.382 155.09 174.738 154.436C174.103 153.774 173.786 152.84 173.786 151.636C173.786 150.432 174.103 149.504 174.738 148.85C175.382 148.188 176.292 147.856 177.468 147.856C178.644 147.856 179.554 148.188 180.198 148.85C180.842 149.504 181.164 150.432 181.164 151.636C181.164 152.84 180.842 153.774 180.198 154.436C179.554 155.09 178.644 155.416 177.468 155.416ZM177.468 154.044C178.112 154.044 178.602 153.844 178.938 153.442C179.274 153.032 179.442 152.43 179.442 151.636C179.442 150.843 179.274 150.246 178.938 149.844C178.602 149.434 178.112 149.228 177.468 149.228C176.833 149.228 176.343 149.434 175.998 149.844C175.662 150.246 175.494 150.843 175.494 151.636C175.494 152.43 175.662 153.032 175.998 153.442C176.343 153.844 176.833 154.044 177.468 154.044ZM182.525 155.276V153.302H184.513V155.276H182.525Z" fill="#B9BEBD"/>
<path d="M259.278 264.086V253.866H266.11V255.378H261.028V258.01H265.83V259.494H261.028V262.574H266.11V264.086H259.278ZM267.232 264.086L269.542 260.418L267.26 256.806H269.164L270.704 259.522H270.732L272.272 256.806H274.176L271.894 260.418L274.204 264.086H272.3L270.732 261.328H270.704L269.15 264.086H267.232ZM279.7 256.666C280.671 256.666 281.427 256.997 281.968 257.66C282.51 258.322 282.78 259.251 282.78 260.446C282.78 261.64 282.51 262.569 281.968 263.232C281.427 263.894 280.671 264.226 279.7 264.226C279.224 264.226 278.786 264.142 278.384 263.974C277.992 263.796 277.661 263.549 277.39 263.232H277.362V267.026H275.64V256.806H277.278L277.292 257.66H277.32C277.6 257.333 277.946 257.086 278.356 256.918C278.767 256.75 279.215 256.666 279.7 256.666ZM279.252 258.066C278.898 258.066 278.576 258.14 278.286 258.29C277.997 258.439 277.768 258.644 277.6 258.906C277.442 259.158 277.362 259.452 277.362 259.788V261.104C277.362 261.43 277.442 261.724 277.6 261.986C277.768 262.247 277.997 262.452 278.286 262.602C278.576 262.751 278.898 262.826 279.252 262.826C279.85 262.826 280.307 262.62 280.624 262.21C280.942 261.799 281.1 261.211 281.1 260.446C281.1 259.68 280.942 259.092 280.624 258.682C280.307 258.271 279.85 258.066 279.252 258.066ZM284.15 264.086V262.112H286.138V264.086H284.15Z" fill="#B9BEBD"/>
<path d="M263.459 305.729C262.291 305.729 261.423 305.361 260.855 304.625C260.287 303.889 260.003 302.757 260.003 301.229C260.003 299.701 260.287 298.569 260.855 297.833C261.423 297.097 262.291 296.729 263.459 296.729C264.627 296.729 265.491 297.097 266.051 297.833C266.619 298.569 266.903 299.701 266.903 301.229C266.903 302.757 266.619 303.889 266.051 304.625C265.491 305.361 264.627 305.729 263.459 305.729ZM263.459 304.397C264.123 304.397 264.607 304.141 264.911 303.629C265.215 303.117 265.367 302.317 265.367 301.229C265.367 300.133 265.215 299.333 264.911 298.829C264.607 298.317 264.123 298.061 263.459 298.061C262.795 298.061 262.307 298.317 261.995 298.829C261.691 299.333 261.539 300.133 261.539 301.229C261.539 302.317 261.691 303.117 261.995 303.629C262.307 304.141 262.795 304.397 263.459 304.397ZM271.17 296.729C271.89 296.729 272.498 296.857 272.994 297.113C273.49 297.369 273.862 297.745 274.11 298.241C274.366 298.737 274.494 299.353 274.494 300.089C274.494 301.193 274.278 302.157 273.846 302.981C273.422 303.797 272.814 304.441 272.022 304.913C271.23 305.385 270.278 305.653 269.166 305.717L268.902 304.505C269.894 304.449 270.702 304.237 271.326 303.869C271.95 303.493 272.41 302.945 272.706 302.225L272.682 302.213C272.394 302.381 272.086 302.509 271.758 302.597C271.438 302.685 271.086 302.729 270.702 302.729C269.814 302.729 269.114 302.469 268.602 301.949C268.098 301.429 267.846 300.709 267.846 299.789C267.846 299.149 267.978 298.601 268.242 298.145C268.506 297.689 268.886 297.341 269.382 297.101C269.878 296.853 270.474 296.729 271.17 296.729ZM271.17 298.013C270.578 298.013 270.122 298.169 269.802 298.481C269.49 298.785 269.334 299.213 269.334 299.765C269.334 300.317 269.482 300.749 269.778 301.061C270.082 301.365 270.514 301.517 271.074 301.517C271.474 301.517 271.818 301.453 272.106 301.325C272.394 301.189 272.614 300.993 272.766 300.737C272.926 300.473 273.006 300.165 273.006 299.813C273.006 299.501 272.942 299.209 272.814 298.937C272.694 298.665 272.498 298.445 272.226 298.277C271.962 298.101 271.61 298.013 271.17 298.013ZM275.16 306.089L279.432 296.369H280.896L276.624 306.089H275.16ZM285.204 305.609V298.529H285.18L282.108 300.341L281.676 299.033L285.204 296.849H286.728V305.609H285.204ZM292.915 305.609V298.529H292.891L289.819 300.341L289.387 299.033L292.915 296.849H294.439V305.609H292.915Z" fill="white"/>
<path d="M80.7173 305.61V296.85H83.3573C84.6453 296.85 85.5853 297.058 86.1773 297.474C86.7773 297.89 87.0773 298.55 87.0773 299.454C87.0773 300.342 86.7893 301.006 86.2133 301.446C85.6453 301.886 84.7773 302.106 83.6093 302.106H81.3773V300.954H83.4173C84.2333 300.954 84.8213 300.842 85.1813 300.618C85.5493 300.386 85.7333 300.014 85.7333 299.502C85.7333 298.99 85.5493 298.622 85.1813 298.398C84.8213 298.166 84.2333 298.05 83.4173 298.05H82.0373V305.61H80.7173ZM85.8413 305.61L81.8693 301.602H83.5373L87.5573 305.61H85.8413ZM88.9907 305.61V296.85H94.7507V298.026H90.3107V300.45H94.5107V301.602H90.3107V304.434H94.7507V305.61H88.9907ZM101.984 305.61V296.85H103.304V305.61H101.984ZM96.5845 305.61V296.85H97.9045V305.61H96.5845ZM97.2445 301.626V300.426H102.644V301.626H97.2445ZM104.486 305.61L107.678 296.85H109.466L112.646 305.61H111.194L108.578 297.978H108.554L105.938 305.61H104.486ZM106.142 303.414V302.214H111.002V303.414H106.142ZM113.823 305.61V296.85H115.263L119.439 303.45H119.463V296.85H120.783V305.61H119.343L115.167 299.01H115.143V305.61H113.823ZM126.186 305.61V296.85H128.826C130.114 296.85 131.054 297.058 131.646 297.474C132.246 297.89 132.546 298.55 132.546 299.454C132.546 300.342 132.258 301.006 131.682 301.446C131.114 301.886 130.246 302.106 129.078 302.106H126.846V300.954H128.886C129.702 300.954 130.29 300.842 130.65 300.618C131.018 300.386 131.202 300.014 131.202 299.502C131.202 298.99 131.018 298.622 130.65 298.398C130.29 298.166 129.702 298.05 128.886 298.05H127.506V305.61H126.186ZM131.31 305.61L127.338 301.602H129.006L133.026 305.61H131.31ZM133.595 305.61L136.787 296.85H138.575L141.755 305.61H140.303L137.687 297.978H137.663L135.047 305.61H133.595ZM135.251 303.414V302.214H140.111V303.414H135.251ZM143.04 305.61V296.85H144.408V305.61H143.04ZM151.953 305.61V296.85H153.273V305.61H151.953ZM146.553 305.61V296.85H147.873V305.61H146.553ZM147.213 301.626V300.426H152.613V301.626H147.213ZM154.455 305.61L157.647 296.85H159.435L162.615 305.61H161.163L158.547 297.978H158.523L155.907 305.61H154.455ZM156.111 303.414V302.214H160.971V303.414H156.111ZM163.791 305.61V296.85H165.231L169.407 303.45H169.431V296.85H170.751V305.61H169.311L165.135 299.01H165.111V305.61H163.791Z" fill="white"/>
<path fill-rule="evenodd" clip-rule="evenodd" d="M105.983 85.3621C109.445 82.1798 111.616 77.6144 111.616 72.541C111.616 67.4676 109.445 62.9023 105.983 59.72C109.082 56.8718 113.219 55.1316 117.76 55.1316C127.375 55.1316 135.169 62.9263 135.169 72.541C135.169 82.1558 127.375 89.9504 117.76 89.9504C113.219 89.9504 109.082 88.2103 105.983 85.3621ZM105.983 85.3621C102.884 88.2103 98.7475 89.9504 94.2062 89.9504C84.5914 89.9504 76.7968 82.1558 76.7968 72.541C76.7968 62.9263 84.5914 55.1316 94.2062 55.1316C98.7475 55.1316 102.884 56.8718 105.983 59.72C102.521 62.9023 100.351 67.4676 100.351 72.541C100.351 77.6144 102.521 82.1798 105.983 85.3621Z" fill="white"/>
<path fill-rule="evenodd" clip-rule="evenodd" d="M525.544 55.4692C526.356 54.8883 527.486 55.0763 528.067 55.889C531.16 60.2165 534.849 67.5973 535.93 75.8184C537.019 84.0957 535.465 93.336 527.883 101.019C527.181 101.73 526.036 101.737 525.325 101.036C524.614 100.334 524.606 99.1886 525.308 98.4776C531.921 91.777 533.325 83.7517 532.343 76.2901C531.355 68.7723 527.946 61.941 525.124 57.9924C524.543 57.1797 524.731 56.05 525.544 55.4692ZM517.704 62.1029C518.515 61.5208 519.645 61.7071 520.227 62.519C522.411 65.5642 525.008 70.7436 525.772 76.5273C526.542 82.368 525.443 88.9345 520.043 94.3886C519.34 95.0985 518.195 95.1042 517.485 94.4014C516.775 93.6986 516.769 92.5534 517.472 91.8435C521.9 87.3711 522.848 82.0218 522.185 77.0005C521.515 71.9222 519.199 67.2932 517.287 64.6268C516.705 63.8149 516.892 62.6849 517.704 62.1029ZM511.667 69.3429C512.476 68.757 513.607 68.938 514.193 69.7471C515.385 71.3933 516.795 74.1721 517.212 77.2991C517.636 80.4857 517.03 84.1375 514.007 87.16C513.301 87.8663 512.156 87.8663 511.449 87.16C510.743 86.4536 510.743 85.3083 511.449 84.602C513.491 82.5599 513.94 80.1322 513.626 77.777C513.304 75.3621 512.181 73.1367 511.263 71.8688C510.677 71.0597 510.858 69.9288 511.667 69.3429Z" fill="white"/>
<path d="M84.9244 205.349V187.269H84.8604L78.0124 192.997V187.749L84.9244 181.989H89.5324V205.349H84.9244ZM100.796 205.669C99.0044 205.669 97.5644 205.36 96.4764 204.741C95.4097 204.123 94.6311 203.109 94.1404 201.701C93.6711 200.293 93.4364 198.416 93.4364 196.069C93.4364 192.763 93.8631 190.064 94.7164 187.973C95.5697 185.861 96.8924 184.293 98.6844 183.269C100.476 182.245 102.78 181.712 105.596 181.669V185.637C104.316 185.637 103.164 185.851 102.14 186.277C101.116 186.683 100.295 187.248 99.6764 187.973C99.0577 188.699 98.7057 189.552 98.6204 190.533H98.7484C99.3457 190.213 99.9111 189.989 100.444 189.861C100.978 189.733 101.554 189.669 102.172 189.669C104.22 189.669 105.724 190.299 106.684 191.557C107.666 192.795 108.156 194.725 108.156 197.349C108.156 200.315 107.58 202.448 106.428 203.749C105.298 205.029 103.42 205.669 100.796 205.669ZM100.828 201.829C101.788 201.829 102.492 201.488 102.94 200.805C103.388 200.101 103.612 199.024 103.612 197.573C103.612 196.123 103.388 195.056 102.94 194.373C102.492 193.669 101.788 193.317 100.828 193.317C99.8684 193.317 99.1644 193.669 98.7164 194.373C98.2684 195.056 98.0444 196.123 98.0444 197.573C98.0444 199.024 98.2684 200.101 98.7164 200.805C99.1644 201.488 99.8684 201.829 100.828 201.829ZM116.796 195.237C116.114 195.237 115.57 195.035 115.164 194.629C114.759 194.224 114.556 193.691 114.556 193.029C114.556 192.347 114.759 191.813 115.164 191.429C115.57 191.024 116.114 190.821 116.796 190.821C117.479 190.821 118.023 191.024 118.428 191.429C118.834 191.813 119.036 192.347 119.036 193.029C119.036 193.691 118.834 194.224 118.428 194.629C118.023 195.035 117.479 195.237 116.796 195.237ZM116.796 205.669C115.026 205.669 113.618 205.317 112.572 204.613C111.527 203.888 110.77 202.715 110.3 201.093C109.831 199.472 109.596 197.317 109.596 194.629V192.709C109.596 190 109.831 187.845 110.3 186.245C110.77 184.624 111.527 183.461 112.572 182.757C113.618 182.032 115.026 181.669 116.796 181.669C118.546 181.669 119.943 182.032 120.988 182.757C122.055 183.461 122.823 184.624 123.292 186.245C123.762 187.845 123.996 190 123.996 192.709V194.629C123.996 197.317 123.762 199.472 123.292 201.093C122.823 202.715 122.055 203.888 120.988 204.613C119.943 205.317 118.546 205.669 116.796 205.669ZM116.796 201.701C117.522 201.701 118.066 201.509 118.428 201.125C118.791 200.741 119.036 200.027 119.164 198.981C119.314 197.915 119.388 196.357 119.388 194.309V193.029C119.388 190.981 119.314 189.435 119.164 188.389C119.036 187.323 118.791 186.597 118.428 186.213C118.066 185.829 117.522 185.637 116.796 185.637C116.092 185.637 115.548 185.829 115.164 186.213C114.802 186.597 114.546 187.323 114.396 188.389C114.268 189.435 114.204 190.981 114.204 193.029V194.309C114.204 196.357 114.268 197.915 114.396 198.981C114.546 200.027 114.802 200.741 115.164 201.125C115.548 201.509 116.092 201.701 116.796 201.701ZM126.396 201.509C127.847 199.952 129.074 198.565 130.076 197.349C131.079 196.112 131.89 195.003 132.508 194.021C133.127 193.019 133.575 192.112 133.852 191.301C134.13 190.491 134.268 189.723 134.268 188.997C134.268 187.867 134.023 187.035 133.532 186.501C133.042 185.968 132.274 185.701 131.228 185.701C129.863 185.701 128.252 186.096 126.396 186.885V182.725C127.996 182.021 129.948 181.669 132.252 181.669C134.578 181.669 136.284 182.224 137.372 183.333C138.46 184.421 139.004 186.139 139.004 188.485C139.004 189.467 138.866 190.469 138.588 191.493C138.332 192.496 137.927 193.531 137.372 194.597C136.818 195.664 136.124 196.763 135.292 197.893C134.482 199.024 133.511 200.187 132.38 201.381V201.509H139.196V205.349H126.396V201.509ZM180.796 195.237C180.114 195.237 179.57 195.035 179.164 194.629C178.759 194.224 178.556 193.691 178.556 193.029C178.556 192.347 178.759 191.813 179.164 191.429C179.57 191.024 180.114 190.821 180.796 190.821C181.479 190.821 182.023 191.024 182.428 191.429C182.834 191.813 183.036 192.347 183.036 193.029C183.036 193.691 182.834 194.224 182.428 194.629C182.023 195.035 181.479 195.237 180.796 195.237ZM180.796 205.669C179.026 205.669 177.618 205.317 176.572 204.613C175.527 203.888 174.77 202.715 174.3 201.093C173.831 199.472 173.596 197.317 173.596 194.629V192.709C173.596 190 173.831 187.845 174.3 186.245C174.77 184.624 175.527 183.461 176.572 182.757C177.618 182.032 179.026 181.669 180.796 181.669C182.546 181.669 183.943 182.032 184.988 182.757C186.055 183.461 186.823 184.624 187.292 186.245C187.762 187.845 187.996 190 187.996 192.709V194.629C187.996 197.317 187.762 199.472 187.292 201.093C186.823 202.715 186.055 203.888 184.988 204.613C183.943 205.317 182.546 205.669 180.796 205.669ZM180.796 201.701C181.522 201.701 182.066 201.509 182.428 201.125C182.791 200.741 183.036 200.027 183.164 198.981C183.314 197.915 183.388 196.357 183.388 194.309V193.029C183.388 190.981 183.314 189.435 183.164 188.389C183.036 187.323 182.791 186.597 182.428 186.213C182.066 185.829 181.522 185.637 180.796 185.637C180.092 185.637 179.548 185.829 179.164 186.213C178.802 186.597 178.546 187.323 178.396 188.389C178.268 189.435 178.204 190.981 178.204 193.029V194.309C178.204 196.357 178.268 197.915 178.396 198.981C178.546 200.027 178.802 200.741 179.164 201.125C179.548 201.509 180.092 201.701 180.796 201.701ZM196.796 181.669C198.61 181.669 200.05 181.979 201.116 182.597C202.183 183.216 202.951 184.229 203.42 185.637C203.911 187.045 204.156 188.923 204.156 191.269C204.156 194.555 203.73 197.253 202.876 199.365C202.023 201.477 200.7 203.045 198.908 204.069C197.138 205.093 194.834 205.627 191.996 205.669V201.701C193.298 201.701 194.45 201.499 195.452 201.093C196.476 200.667 197.298 200.091 197.916 199.365C198.535 198.619 198.887 197.765 198.972 196.805H198.844C198.247 197.125 197.682 197.349 197.148 197.477C196.615 197.605 196.039 197.669 195.42 197.669C193.372 197.669 191.858 197.051 190.876 195.813C189.916 194.555 189.436 192.613 189.436 189.989C189.436 187.024 190.002 184.901 191.132 183.621C192.284 182.32 194.172 181.669 196.796 181.669ZM196.764 185.509C195.804 185.509 195.1 185.861 194.652 186.565C194.204 187.248 193.98 188.315 193.98 189.765C193.98 191.216 194.204 192.293 194.652 192.997C195.1 193.68 195.804 194.021 196.764 194.021C197.724 194.021 198.428 193.68 198.876 192.997C199.324 192.293 199.548 191.216 199.548 189.765C199.548 188.315 199.324 187.248 198.876 186.565C198.428 185.861 197.724 185.509 196.764 185.509ZM212.924 205.349V187.269H212.86L206.012 192.997V187.749L212.924 181.989H217.532V205.349H212.924ZM228.924 205.349V187.269H228.86L222.012 192.997V187.749L228.924 181.989H233.532V205.349H228.924ZM270.396 201.509C271.847 199.952 273.074 198.565 274.076 197.349C275.079 196.112 275.89 195.003 276.508 194.021C277.127 193.019 277.575 192.112 277.852 191.301C278.13 190.491 278.268 189.723 278.268 188.997C278.268 187.867 278.023 187.035 277.532 186.501C277.042 185.968 276.274 185.701 275.228 185.701C273.863 185.701 272.252 186.096 270.396 186.885V182.725C271.996 182.021 273.948 181.669 276.252 181.669C278.578 181.669 280.284 182.224 281.372 183.333C282.46 184.421 283.004 186.139 283.004 188.485C283.004 189.467 282.866 190.469 282.588 191.493C282.332 192.496 281.927 193.531 281.372 194.597C280.818 195.664 280.124 196.763 279.292 197.893C278.482 199.024 277.511 200.187 276.38 201.381V201.509H283.196V205.349H270.396V201.509ZM292.796 195.237C292.114 195.237 291.57 195.035 291.164 194.629C290.759 194.224 290.556 193.691 290.556 193.029C290.556 192.347 290.759 191.813 291.164 191.429C291.57 191.024 292.114 190.821 292.796 190.821C293.479 190.821 294.023 191.024 294.428 191.429C294.834 191.813 295.036 192.347 295.036 193.029C295.036 193.691 294.834 194.224 294.428 194.629C294.023 195.035 293.479 195.237 292.796 195.237ZM292.796 205.669C291.026 205.669 289.618 205.317 288.572 204.613C287.527 203.888 286.77 202.715 286.3 201.093C285.831 199.472 285.596 197.317 285.596 194.629V192.709C285.596 190 285.831 187.845 286.3 186.245C286.77 184.624 287.527 183.461 288.572 182.757C289.618 182.032 291.026 181.669 292.796 181.669C294.546 181.669 295.943 182.032 296.988 182.757C298.055 183.461 298.823 184.624 299.292 186.245C299.762 187.845 299.996 190 299.996 192.709V194.629C299.996 197.317 299.762 199.472 299.292 201.093C298.823 202.715 298.055 203.888 296.988 204.613C295.943 205.317 294.546 205.669 292.796 205.669ZM292.796 201.701C293.522 201.701 294.066 201.509 294.428 201.125C294.791 200.741 295.036 200.027 295.164 198.981C295.314 197.915 295.388 196.357 295.388 194.309V193.029C295.388 190.981 295.314 189.435 295.164 188.389C295.036 187.323 294.791 186.597 294.428 186.213C294.066 185.829 293.522 185.637 292.796 185.637C292.092 185.637 291.548 185.829 291.164 186.213C290.802 186.597 290.546 187.323 290.396 188.389C290.268 189.435 290.204 190.981 290.204 193.029V194.309C290.204 196.357 290.268 197.915 290.396 198.981C290.546 200.027 290.802 200.741 291.164 201.125C291.548 201.509 292.092 201.701 292.796 201.701ZM308.924 205.349V187.269H308.86L302.012 192.997V187.749L308.924 181.989H313.532V205.349H308.924ZM324.796 181.669C326.61 181.669 328.05 181.979 329.116 182.597C330.183 183.216 330.951 184.229 331.42 185.637C331.911 187.045 332.156 188.923 332.156 191.269C332.156 194.555 331.73 197.253 330.876 199.365C330.023 201.477 328.7 203.045 326.908 204.069C325.138 205.093 322.834 205.627 319.996 205.669V201.701C321.298 201.701 322.45 201.499 323.452 201.093C324.476 200.667 325.298 200.091 325.916 199.365C326.535 198.619 326.887 197.765 326.972 196.805H326.844C326.247 197.125 325.682 197.349 325.148 197.477C324.615 197.605 324.039 197.669 323.42 197.669C321.372 197.669 319.858 197.051 318.876 195.813C317.916 194.555 317.436 192.613 317.436 189.989C317.436 187.024 318.002 184.901 319.132 183.621C320.284 182.32 322.172 181.669 324.796 181.669ZM324.764 185.509C323.804 185.509 323.1 185.861 322.652 186.565C322.204 187.248 321.98 188.315 321.98 189.765C321.98 191.216 322.204 192.293 322.652 192.997C323.1 193.68 323.804 194.021 324.764 194.021C325.724 194.021 326.428 193.68 326.876 192.997C327.324 192.293 327.548 191.216 327.548 189.765C327.548 188.315 327.324 187.248 326.876 186.565C326.428 185.861 325.724 185.509 324.764 185.509ZM366.396 201.509C367.847 199.952 369.074 198.565 370.076 197.349C371.079 196.112 371.89 195.003 372.508 194.021C373.127 193.019 373.575 192.112 373.852 191.301C374.13 190.491 374.268 189.723 374.268 188.997C374.268 187.867 374.023 187.035 373.532 186.501C373.042 185.968 372.274 185.701 371.228 185.701C369.863 185.701 368.252 186.096 366.396 186.885V182.725C367.996 182.021 369.948 181.669 372.252 181.669C374.578 181.669 376.284 182.224 377.372 183.333C378.46 184.421 379.004 186.139 379.004 188.485C379.004 189.467 378.866 190.469 378.588 191.493C378.332 192.496 377.927 193.531 377.372 194.597C376.818 195.664 376.124 196.763 375.292 197.893C374.482 199.024 373.511 200.187 372.38 201.381V201.509H379.196V205.349L366.396 205.349V201.509ZM388.796 195.237C388.114 195.237 387.57 195.035 387.164 194.629C386.759 194.224 386.556 193.691 386.556 193.029C386.556 192.347 386.759 191.813 387.164 191.429C387.57 191.024 388.114 190.821 388.796 190.821C389.479 190.821 390.023 191.024 390.428 191.429C390.834 191.813 391.036 192.347 391.036 193.029C391.036 193.691 390.834 194.224 390.428 194.629C390.023 195.035 389.479 195.237 388.796 195.237ZM388.796 205.669C387.026 205.669 385.618 205.317 384.572 204.613C383.527 203.888 382.77 202.715 382.3 201.093C381.831 199.472 381.596 197.317 381.596 194.629V192.709C381.596 190 381.831 187.845 382.3 186.245C382.77 184.624 383.527 183.461 384.572 182.757C385.618 182.032 387.026 181.669 388.796 181.669C390.546 181.669 391.943 182.032 392.988 182.757C394.055 183.461 394.823 184.624 395.292 186.245C395.762 187.845 395.996 190 395.996 192.709V194.629C395.996 197.317 395.762 199.472 395.292 201.093C394.823 202.715 394.055 203.888 392.988 204.613C391.943 205.317 390.546 205.669 388.796 205.669ZM388.796 201.701C389.522 201.701 390.066 201.509 390.428 201.125C390.791 200.741 391.036 200.027 391.164 198.981C391.314 197.915 391.388 196.357 391.388 194.309V193.029C391.388 190.981 391.314 189.435 391.164 188.389C391.036 187.323 390.791 186.597 390.428 186.213C390.066 185.829 389.522 185.637 388.796 185.637C388.092 185.637 387.548 185.829 387.164 186.213C386.802 186.597 386.546 187.323 386.396 188.389C386.268 189.435 386.204 190.981 386.204 193.029V194.309C386.204 196.357 386.268 197.915 386.396 198.981C386.546 200.027 386.802 200.741 387.164 201.125C387.548 201.509 388.092 201.701 388.796 201.701ZM398.396 201.509C399.847 199.952 401.074 198.565 402.076 197.349C403.079 196.112 403.89 195.003 404.508 194.021C405.127 193.019 405.575 192.112 405.852 191.301C406.13 190.491 406.268 189.723 406.268 188.997C406.268 187.867 406.023 187.035 405.532 186.501C405.042 185.968 404.274 185.701 403.228 185.701C401.863 185.701 400.252 186.096 398.396 186.885V182.725C399.996 182.021 401.948 181.669 404.252 181.669C406.578 181.669 408.284 182.224 409.372 183.333C410.46 184.421 411.004 186.139 411.004 188.485C411.004 189.467 410.866 190.469 410.588 191.493C410.332 192.496 409.927 193.531 409.372 194.597C408.818 195.664 408.124 196.763 407.292 197.893C406.482 199.024 405.511 200.187 404.38 201.381V201.509H411.196V205.349H398.396V201.509ZM420.924 205.349V187.269H420.86L414.012 192.997V187.749L420.924 181.989H425.532V205.349H420.924Z" fill="white"/>
<path d="M480.114 284.506C480.114 283.622 480.83 282.905 481.715 282.905H495.322C496.206 282.905 496.923 283.622 496.923 284.506V294.701C496.923 295.319 496.568 295.881 496.01 296.147L489.206 299.386C488.771 299.594 488.265 299.594 487.83 299.386L481.026 296.147C480.469 295.881 480.114 295.319 480.114 294.701V284.506Z" fill="white"/>
<path d="M505.727 284.506C505.727 283.622 506.444 282.905 507.328 282.905H511.331C512.215 282.905 512.931 283.622 512.931 284.506V287.708C512.931 288.592 512.215 289.309 511.331 289.309H507.328C506.444 289.309 505.727 288.592 505.727 287.708V284.506Z" fill="white"/>
<path d="M521.736 284.506C521.736 283.622 522.453 282.905 523.337 282.905H536.944C537.828 282.905 538.545 283.622 538.545 284.506V294.111C538.545 294.995 537.828 295.712 536.944 295.712H523.337C522.453 295.712 521.736 294.995 521.736 294.111V284.506Z" fill="white"/>
<path d="M480.114 301.315C480.114 300.431 480.83 299.714 481.715 299.714H495.322C496.206 299.714 496.923 300.431 496.923 301.315V310.92C496.923 311.804 496.206 312.521 495.322 312.521H481.715C480.83 312.521 480.114 311.804 480.114 310.92V301.315Z" fill="white"/>
<path d="M500.925 294.912C500.925 294.028 501.642 293.311 502.526 293.311H516.133C517.017 293.311 517.734 294.028 517.734 294.912V317.324C517.734 318.208 517.017 318.925 516.133 318.925H502.526C501.642 318.925 500.925 318.208 500.925 317.324V294.912Z" fill="white"/>
<path d="M521.736 301.315C521.736 300.431 522.453 299.714 523.337 299.714H536.944C537.828 299.714 538.545 300.431 538.545 301.315V310.92C538.545 311.804 537.828 312.521 536.944 312.521H523.337C522.453 312.521 521.736 311.804 521.736 310.92V301.315Z" fill="white"/>
<path d="M480.114 318.124C480.114 317.24 480.83 316.523 481.715 316.523H495.322C496.206 316.523 496.923 317.24 496.923 318.124V327.729C496.923 328.614 496.206 329.33 495.322 329.33H481.715C480.83 329.33 480.114 328.614 480.114 327.729V318.124Z" fill="white"/>
<path d="M505.727 324.528C505.727 323.644 506.444 322.927 507.328 322.927H511.331C512.215 322.927 512.931 323.644 512.931 324.528V327.729C512.931 328.614 512.215 329.33 511.331 329.33H507.328C506.444 329.33 505.727 328.614 505.727 327.729V324.528Z" fill="white"/>
<path d="M521.736 317.534C521.736 316.917 522.091 316.354 522.649 316.089L529.452 312.849C529.888 312.642 530.394 312.642 530.829 312.849L537.633 316.089C538.19 316.354 538.545 316.917 538.545 317.534V327.729C538.545 328.614 537.828 329.33 536.944 329.33H523.337C522.453 329.33 521.736 328.614 521.736 327.729V317.534Z" fill="white"/>
</g>
<defs>
<filter id="filter0_d_121_2" x="0.66626" y="0.411072" width="593.298" height="390.188" filterUnits="userSpaceOnUse" color-interpolation-filters="sRGB">
<feFlood flood-opacity="0" result="BackgroundImageFix"/>
<feColorMatrix in="SourceAlpha" type="matrix" values="0 0 0 0 0 0 0 0 0 0 0 0 0 0 0 0 0 0 127 0" result="hardAlpha"/>
<feOffset dy="4"/>
<feGaussianBlur stdDeviation="10"/>
<feComposite in2="hardAlpha" operator="out"/>
<feColorMatrix type="matrix" values="0 0 0 0 0 0 0 0 0 0 0 0 0 0 0 0 0 0 0.25 0"/>
<feBlend mode="normal" in2="BackgroundImageFix" result="effect1_dropShadow_121_2"/>
<feBlend mode="normal" in="SourceGraphic" in2="effect1_dropShadow_121_2" result="shape"/>
</filter>
<filter id="filter1_b_121_2" x="-54.3337" y="-58.5889" width="703.298" height="500.188" filterUnits="userSpaceOnUse" color-interpolation-filters="sRGB">
<feFlood flood-opacity="0" result="BackgroundImageFix"/>
<feGaussianBlur in="BackgroundImageFix" stdDeviation="37.5"/>
<feComposite in2="SourceAlpha" operator="in" result="effect1_backgroundBlur_121_2"/>
<feBlend mode="normal" in="SourceGraphic" in2="effect1_backgroundBlur_121_2" result="shape"/>
</filter>
<linearGradient id="paint0_linear_121_2" x1="85.6432" y1="42.1972" x2="576.329" y2="364.687" gradientUnits="userSpaceOnUse">
<stop stop-color="white"/>
<stop offset="1" stop-color="white" stop-opacity="0"/>
</linearGradient>
<linearGradient id="paint1_linear_121_2" x1="62.2882" y1="33.3697" x2="356.797" y2="365.599" gradientUnits="userSpaceOnUse">
<stop stop-color="white"/>
<stop offset="1" stop-color="white" stop-opacity="0.55"/>
</linearGradient>
</defs>
</svg>
