<svg width="140" height="33" viewBox="0 0 140 33" fill="none" xmlns="http://www.w3.org/2000/svg">
<path d="M1.48611 1.59612C1.13812 1.95129 0.936737 2.50426 0.936737 3.22037V28.7637C0.936737 29.4798 1.13812 30.0328 1.48611 30.388L1.572 30.4659L16.2526 16.1581V15.8202L1.572 1.51238L1.48611 1.59612Z" fill="white"/>
<path d="M22.9177 20.9298L18.0296 16.1581V15.8202L22.9236 11.0485L23.0332 11.1106L28.829 14.3259C30.4831 15.2384 30.4831 16.7399 28.829 17.6582L23.0332 20.8677L22.9177 20.9298Z" fill="white"/>
<path d="M22.1447 21.7562L17.1411 16.8776L2.37458 31.2765C2.92396 31.8395 3.81984 31.9074 4.83863 31.3443L22.1447 21.7562Z" fill="white"/>
<path d="M22.1447 10.2222L4.83863 0.634019C3.81984 0.0767199 2.92396 0.144576 2.37458 0.707649L17.1411 15.1007L22.1447 10.2222Z" fill="white"/>
<path d="M46.1855 4.72047C46.1855 5.68491 45.8893 6.45734 45.3059 7.0334C44.6351 7.71631 43.7614 8.05993 42.6908 8.05993C41.6676 8.05993 40.7939 7.71053 40.0772 7.02185C39.359 6.32306 39.0007 5.46546 39.0007 4.43893C39.0007 3.4124 39.359 2.5548 40.0772 1.86179C40.7939 1.16733 41.6676 0.817932 42.6908 0.817932C43.2002 0.817932 43.6859 0.920441 44.1494 1.11102C44.6114 1.30304 44.9875 1.56292 45.26 1.88344L44.641 2.49272C44.1657 1.94552 43.5186 1.67554 42.6908 1.67554C41.9445 1.67554 41.2974 1.92964 40.748 2.44218C40.2046 2.95617 39.9321 3.62175 39.9321 4.43893C39.9321 5.25611 40.2046 5.92747 40.748 6.44145C41.2974 6.94822 41.9445 7.2081 42.6908 7.2081C43.4831 7.2081 44.1494 6.94822 44.6751 6.43568C45.0216 6.09639 45.2185 5.6286 45.2704 5.03088H42.6908V4.19638H46.1322C46.1737 4.37685 46.1855 4.55155 46.1855 4.72047Z" fill="white"/>
<path d="M51.6452 1.82713H48.4126V4.02167H51.3268V4.85617H48.4126V7.05072H51.6452V7.90111H47.4975V0.976741H51.6452V1.82713Z" fill="white"/>
<path d="M55.4982 7.90111H54.5831V1.82713H52.6003V0.976741H57.4825V1.82713H55.4982V7.90111Z" fill="white"/>
<path d="M61.0157 7.90111V0.976741H61.9294V7.90111H61.0157Z" fill="white"/>
<path d="M65.9793 7.90111H65.0716V1.82713H63.0814V0.976741H67.9695V1.82713H65.9793V7.90111Z" fill="white"/>
<path d="M77.2127 7.0103C76.5123 7.71053 75.6445 8.05993 74.6094 8.05993C73.5684 8.05993 72.7007 7.71053 72.0003 7.0103C71.3013 6.31151 70.9533 5.45391 70.9533 4.43893C70.9533 3.42395 71.3013 2.56635 72.0003 1.86756C72.7007 1.16733 73.5684 0.817932 74.6094 0.817932C75.6386 0.817932 76.5064 1.16733 77.2068 1.87333C77.9116 2.5779 78.2596 3.42973 78.2596 4.43893C78.2596 5.45391 77.9116 6.31151 77.2127 7.0103ZM72.677 6.4299C73.2042 6.94822 73.8453 7.2081 74.6094 7.2081C75.3676 7.2081 76.0147 6.94822 76.536 6.4299C77.0617 5.91159 77.3282 5.246 77.3282 4.43893C77.3282 3.63186 77.0617 2.96628 76.536 2.44796C76.0147 1.92964 75.3676 1.66976 74.6094 1.66976C73.8453 1.66976 73.2042 1.92964 72.677 2.44796C72.1513 2.96628 71.8848 3.63186 71.8848 4.43893C71.8848 5.246 72.1513 5.91159 72.677 6.4299Z" fill="white"/>
<path d="M79.5435 7.90111V0.976741H80.6541L84.1073 6.36204H84.1473L84.1073 5.03087V0.976741H85.021V7.90111H84.0673L80.4512 2.25015H80.4112L80.4512 3.58709V7.90111H79.5435Z" fill="white"/>
<path d="M70.7283 18.0134C67.9458 18.0134 65.6728 20.078 65.6728 22.9265C65.6728 25.752 67.9458 27.8383 70.7283 27.8383C73.5166 27.8383 75.7896 25.752 75.7896 22.9265C75.7896 20.078 73.5166 18.0134 70.7283 18.0134ZM70.7283 25.9036C69.2016 25.9036 67.8881 24.675 67.8881 22.9265C67.8881 21.155 69.2016 19.948 70.7283 19.948C72.255 19.948 73.5744 21.155 73.5744 22.9265C73.5744 24.675 72.255 25.9036 70.7283 25.9036ZM59.6978 18.0134C56.9095 18.0134 54.6424 20.078 54.6424 22.9265C54.6424 25.752 56.9095 27.8383 59.6978 27.8383C62.4847 27.8383 64.7532 25.752 64.7532 22.9265C64.7532 20.078 62.4847 18.0134 59.6978 18.0134ZM59.6978 25.9036C58.1696 25.9036 56.8517 24.675 56.8517 22.9265C56.8517 21.155 58.1696 19.948 59.6978 19.948C61.2245 19.948 62.538 21.155 62.538 22.9265C62.538 24.675 61.2245 25.9036 59.6978 25.9036ZM46.572 19.5192V21.6069H51.6852C51.5356 22.7735 51.1358 23.6311 50.5228 24.2288C49.7764 24.9507 48.614 25.752 46.572 25.752C43.4253 25.752 40.9613 23.2759 40.9613 20.2079C40.9613 17.1399 43.4253 14.6638 46.572 14.6638C48.2734 14.6638 49.5114 15.3121 50.425 16.1523L51.934 14.6811C50.656 13.4914 48.9561 12.5775 46.572 12.5775C42.257 12.5775 38.6305 16.0007 38.6305 20.2079C38.6305 24.4151 42.257 27.8383 46.572 27.8383C48.9043 27.8383 50.656 27.0933 52.0332 25.6957C53.4444 24.3198 53.8842 22.3851 53.8842 20.823C53.8842 20.3378 53.8427 19.8917 53.7687 19.5192H46.572ZM100.245 21.1377C99.8289 20.039 98.5451 18.0134 95.93 18.0134C93.3386 18.0134 91.1811 20.0043 91.1811 22.9265C91.1811 25.6784 93.3164 27.8383 96.1788 27.8383C98.4932 27.8383 99.8289 26.4624 100.378 25.6611L98.6606 24.545C98.0875 25.3622 97.3071 25.9036 96.1788 25.9036C95.0578 25.9036 94.2537 25.4026 93.7384 24.4151L100.478 21.6964L100.245 21.1377ZM93.3741 22.7735C93.3164 20.8793 94.8831 19.909 96.0055 19.909C96.8851 19.909 97.6314 20.3378 97.8802 20.9515L93.3741 22.7735ZM87.8967 27.5394H90.1119V13.1016H87.8967V27.5394ZM84.2687 19.1077H84.1947C83.6971 18.5331 82.7479 18.0134 81.5455 18.0134C79.0222 18.0134 76.7151 20.1733 76.7151 22.9424C76.7151 25.6957 79.0222 27.8383 81.5455 27.8383C82.7479 27.8383 83.6971 27.3142 84.1947 26.7222H84.2687V27.4268C84.2687 29.3052 83.2395 30.3144 81.5796 30.3144C80.2261 30.3144 79.3865 29.3615 79.04 28.5602L77.1135 29.3441C77.6688 30.6464 79.1392 32.249 81.5796 32.249C84.1769 32.249 86.3685 30.759 86.3685 27.1337V18.3122H84.2687V19.1077ZM81.7351 25.9036C80.2084 25.9036 78.9304 24.6576 78.9304 22.9424C78.9304 21.2113 80.2084 19.948 81.7351 19.948C83.2395 19.948 84.4257 21.2113 84.4257 22.9424C84.4257 24.6576 83.2395 25.9036 81.7351 25.9036ZM110.617 13.1016H105.318V27.5394H107.528V22.0689H110.617C113.07 22.0689 115.477 20.3378 115.477 17.5846C115.477 14.8327 113.064 13.1016 110.617 13.1016ZM110.674 20.0606H107.528V15.1099H110.674C112.324 15.1099 113.266 16.4454 113.266 17.5846C113.266 18.702 112.324 20.0606 110.674 20.0606ZM124.332 17.9859C122.735 17.9859 121.075 18.6732 120.393 20.1964L122.353 20.9977C122.775 20.1964 123.551 19.9365 124.372 19.9365C125.518 19.9365 126.68 20.6078 126.698 21.7932V21.9448C126.298 21.7195 125.442 21.386 124.389 21.386C122.278 21.386 120.126 22.5194 120.126 24.6345C120.126 26.5692 121.856 27.8152 123.8 27.8152C125.287 27.8152 126.107 27.1611 126.623 26.4003H126.698V27.5163H128.832V21.978C128.832 19.4182 126.871 17.9859 124.332 17.9859ZM124.065 25.8978C123.343 25.8978 122.336 25.5484 122.336 24.675C122.336 23.5575 123.591 23.1287 124.678 23.1287C125.651 23.1287 126.107 23.338 126.698 23.6138C126.525 24.9507 125.345 25.8978 124.065 25.8978ZM136.606 18.3021L134.066 24.5609H133.991L131.366 18.3021H128.983L132.928 27.0485L130.677 31.9155H132.986L139.064 18.3021H136.606ZM116.691 27.5394H118.906V13.1016H116.691V27.5394Z" fill="white"/>
</svg>
