<svg width="373" height="103" viewBox="0 0 373 103" fill="none" xmlns="http://www.w3.org/2000/svg">
<path d="M35.5 102L56.5 100L83.5 97.5L123 93.5L159 89.5L189 86L218 82L238.5 79L264.5 74.5L283 71L294 68.5L310 64.5L320 61.5L330.5 58L339 54.5L343.5 52L346 50.5L348 49L351 46.5L353 44L354 42L354.5 40V38L353.5 36L352 33.5L350 31.5L347 29L342 26L336 23L331 21L326 19.5L319.5 17.5L304 13.5L292 11L283 9.5L266 7L258 6L251 5L234.5 3.5L219 2.5L204 1.5L186 1H160L143.5 1.5L133 2L125 2.5L116.5 3.5L99.5 5.5L81 8L67.5 10.5L42.5 17.5L35 20L28 23L19.5 27L14 30L9 33.5L5.5 36.5L3.5 38.5L2.5 40L1.5 42L1 43.5V45.5L1.5 47.5L2.5 50L4 52L6 54L8.5 56L11 57.5L14.5 59.5L20 62L26 64.5L31.5 66.5L38 68.5L47.5 71L54 72.5L60.5 74L84 78.5L118.5 83.5L145 86.5L176 89L191 90L210 91L231 92L251 92.5H283H300.5L316.5 92L339 91L353 90L372 88.5" stroke="#2BB32A" stroke-width="2"/>
</svg>
