<svg width="372" height="104" viewBox="0 0 372 104" fill="none" xmlns="http://www.w3.org/2000/svg">
<path d="M36.5 102.5L167.5 89L226.5 81L258 76.5L302.5 67L329.5 58.5L339.5 55L346.5 50.5L352.5 45L354 41V39L353.5 36L351 33L345 28L339.5 24.5L333 22L304.5 13.5L275 8.5L240 4L209 2L192 1L161.5 2H126.5L96.5 6L72.5 10L49.5 15L30 22.5L16.5 28.5L8 34.5L4.5 37.5L2 40.5L1 43.5V46.5L2 50L4.5 52.5L8 55L13 58.5L18 61L26.5 64.5L35.5 67.5L50.5 71.5L70.5 76L120 84L155.5 87.5L189.5 90L250.5 92.5H282H307.5L331.5 91.5L371 88.5" stroke="#2BB32A" stroke-width="2"/>
</svg>
